M48
;Layer_Color=9474304
;FILE_FORMAT=4:4
METRIC,TZ
;TYPE=PLATED
T1F00S00C0.2000
T2F00S00C0.3000
T3F00S00C0.3300
T5F00S00C0.6000
T6F00S00C0.9000
T7F00S00C1.0000
T8F00S00C1.2000
T9F00S00C2.5000
%
T01
X319000Y7000
X323750Y10750
X330750Y10250
X328000Y15000
X331750Y19000
X318500Y22750
X321000Y26750
X327250Y6000
X348000Y7000
Y14500
X348250Y21500
X358000
X358250Y14500
Y7000
X376250Y6500
Y12750
Y19500
Y25500
X366750Y29500
X361750
X392001Y18000
X412001
X432001
X452001
X530202Y17702
X527500Y30000
X563000Y17250
X226500Y19000
Y12000
X222250Y15000
Y8500
X226500Y4750
X217500
X209750
X212000Y18000
X222250Y21750
Y28750
X226500Y26000
X192000Y18000
X172000
X152000
X162000Y38000
X182000
X202000
X222250Y36000
Y42500
X222500Y48768
X226500Y46000
Y51750
X225849Y58198
X232500Y67332
X239750
X247250
X255000Y67500
X262500
X270002Y67332
X277500
X285000
X281500Y72750
X274000
X266500
X258750
X251500
X243750
X236250
X226500Y40000
Y33000
X192000Y58000
Y98000
X172000
X159311Y121250
X158770Y131130
X157750Y146000
X183000Y155000
Y162500
Y170000
Y176500
X221250Y160250
X224250Y154250
X224511Y142507
X225849Y134620
X235750Y126000
X242000Y118000
X282000
X274000Y102500
X281750Y87750
X255000Y152250
X262250Y175000
X247372Y179250
X239750Y173500
X197702Y122500
X122500Y126000
X119000Y129500
X112288Y133538
X111750Y152250
X116750Y159750
X116500Y169250
Y174227
X121500
Y169250
X126500
Y174227
X68500Y158000
X63500
X58000
X53000
X49750Y165750
X44250
X38750
X47750Y174227
X32000Y151538
X32000Y138000
X12000
X53500Y137115
X58250
Y132334
X53500
X55500Y125698
X65250Y126000
X71750Y125698
X74500Y129750
X80000
Y125250
Y120750
X74500Y121500
X68000Y116750
X62250Y119000
X78500Y113665
X74930Y105664
X82188Y96412
X82752Y86412
X83312Y80456
X80518Y74676
X73152Y76454
X73500Y60500
X79000Y65065
X64516Y62000
X54000Y60456
Y55118
Y48768
X45510
X37000Y48544
X32000Y58000
X42000Y38000
X62000
X82000
X102000
X112000Y58000
X92000
X102000Y78000
X152000Y58000
X142000Y38000
X77250Y139250
X304750Y144000
X299000Y150000
X302000Y158000
X294750Y165500
X322000Y158000
X324250Y152750
X332500Y163250
X328250Y167640
X337500Y158562
X342000Y173250
X366250Y176750
X374000
X385826Y145542
Y137414
X392684Y140462
X401250Y124000
X410000Y131500
X422001Y118000
X442001
X432001Y98000
X419750Y99250
X412001Y98000
X393000Y92350
X400000Y81250
Y75750
X399000Y64500
Y58750
X412001Y58000
X406000Y66000
X391750Y70500
X398750Y42500
Y36500
X390500Y32200
X382000
X366750Y34750
X361750
X364000Y40000
X358250
X352750Y40250
Y46750
X358750Y47000
X363750
X357750Y57750
X332250Y51500
X326750
X321250
Y45250
Y38500
X318750Y56250
X322750Y60250
X310750Y67332
X302000Y67250
X305250Y72750
X297500
X288750
X292500Y67332
X294397Y88853
X310500Y111500
X315750Y121250
X328500Y133858
X331250Y139250
X346517Y131756
X429000Y145542
X440000Y149860
X447500Y154686
X502158
X527050Y150358
X538480Y150114
X537972Y159004
X528574Y163068
X529590Y168656
X566928
X558800Y147828
X558556Y141272
X558292Y133858
X556514Y120904
X559500Y98500
X548853Y102362
X553847Y87884
X535940Y93726
X529082Y94742
X533000Y111750
X517906Y111506
X515500Y118000
X522250Y121250
X508000Y107000
X505500Y76750
X531500Y70500
X539500Y76750
X562500Y72250
X563500Y64500
X559830Y52846
X573542Y38750
X543000Y34750
X530606Y41402
X592001Y58000
X600750Y60250
X609250Y69000
X610500Y82000
X603250Y82250
X594529Y82004
X595500Y91750
X602500Y91662
X605480Y95750
Y101412
X599003Y101750
X599250Y95750
X592250Y96412
Y101412
X579278Y92754
X573542Y80500
X576000Y74250
X575564Y132080
X579000Y136500
X575310Y141224
X584250Y133250
X592500Y132750
X611250Y130500
Y125250
Y119500
X613000Y113665
X617000Y110000
X613250Y104250
Y98956
X616204Y94488
X631000Y94250
X635750
Y98956
Y104250
X636000Y109250
X631000
X635750Y120000
X635250Y126750
X643250
Y119500
X640250Y133000
X632250
X631500Y139500
X626750Y144000
X622000Y147250
X613750Y153500
X607500Y153250
X584250Y149860
X489204Y125000
X422001Y38000
X622001
T02
X77724Y79502
X115824Y79756
X128524Y74930
X140970Y79756
X145796Y92456
X140970Y104648
X128778Y109982
X116078Y105664
X110490Y92456
X443484
X448818Y79756
X461518Y74930
X473964Y79756
X478790Y92456
X473964Y104648
X461772Y109982
X449072Y105664
T03
X336000Y76500
Y88500
X348000
X348000Y76500
X360000Y76500
X372000
Y88500
X360000Y88500
X360000Y100500
X348000
X336000
X336000Y112500
X348000Y112500
X360000Y112500
X372000
X372000Y100500
T05
X144750Y157850
Y173750
T06
X270002Y122814
Y162814
T07
X464312Y17272
X489458
X514604Y17270
X578612Y20066
X137414Y17780
X112014
X86614
X61214
X464312Y167386
X489204Y167640
X513842
X595376Y164846
X624078Y121809
Y101809
Y81809
Y61809
T08
X629158Y20000
X19200Y20470
Y165170
X629158Y164700
T09
X128270Y92350
X461010
M30
