G04 Layer_Color=32896*
%FSLAX44Y44*%
%MOMM*%
G71*
G01*
G75*
%ADD11C,0.1524*%
%ADD45C,0.2540*%
%ADD46C,0.1500*%
%ADD49C,0.2000*%
%ADD89C,0.2500*%
%ADD90C,0.1000*%
%ADD92C,0.0254*%
%ADD190C,0.1520*%
%ADD191R,0.5000X4.0000*%
%ADD192R,0.8200X0.9600*%
G36*
X298264Y137493D02*
X298429Y137470D01*
X298581Y137423D01*
X298722Y137364D01*
X298980Y137223D01*
X299203Y137059D01*
X299379Y136883D01*
X299450Y136813D01*
X299508Y136742D01*
X299555Y136684D01*
X299590Y136637D01*
X299602Y136613D01*
X299614Y136601D01*
X299720Y136414D01*
X299802Y136202D01*
X299884Y135979D01*
X299942Y135733D01*
X300048Y135217D01*
X300119Y134700D01*
X300142Y134454D01*
X300154Y134219D01*
X300166Y134008D01*
X300177Y133832D01*
X300189Y133679D01*
Y133562D01*
Y133527D01*
Y133492D01*
Y133480D01*
Y133468D01*
X300177Y133057D01*
X300166Y132682D01*
X300130Y132330D01*
X300095Y132013D01*
X300060Y131720D01*
X300001Y131461D01*
X299954Y131238D01*
X299896Y131027D01*
X299849Y130851D01*
X299790Y130699D01*
X299743Y130581D01*
X299708Y130476D01*
X299661Y130394D01*
X299637Y130347D01*
X299626Y130311D01*
X299614Y130300D01*
X299497Y130147D01*
X299379Y130006D01*
X299250Y129889D01*
X299121Y129795D01*
X298992Y129701D01*
X298875Y129631D01*
X298746Y129572D01*
X298628Y129525D01*
X298405Y129467D01*
X298311Y129443D01*
X298229Y129431D01*
X298171D01*
X298124Y129420D01*
X298077D01*
X297901Y129431D01*
X297736Y129455D01*
X297584Y129502D01*
X297443Y129560D01*
X297185Y129701D01*
X296962Y129866D01*
X296786Y130030D01*
X296715Y130100D01*
X296657Y130171D01*
X296610Y130229D01*
X296575Y130276D01*
X296563Y130300D01*
X296551Y130311D01*
X296446Y130499D01*
X296352Y130710D01*
X296281Y130933D01*
X296211Y131180D01*
X296105Y131708D01*
X296035Y132224D01*
X296011Y132471D01*
X296000Y132705D01*
X295976Y132905D01*
Y133093D01*
X295964Y133245D01*
Y133363D01*
Y133398D01*
Y133433D01*
Y133445D01*
Y133456D01*
X295976Y133867D01*
X295988Y134231D01*
X296023Y134583D01*
X296058Y134888D01*
X296105Y135181D01*
X296152Y135440D01*
X296199Y135663D01*
X296258Y135874D01*
X296317Y136050D01*
X296363Y136202D01*
X296410Y136320D01*
X296457Y136425D01*
X296493Y136508D01*
X296528Y136554D01*
X296539Y136590D01*
X296551Y136601D01*
X296668Y136766D01*
X296786Y136895D01*
X296915Y137024D01*
X297044Y137129D01*
X297173Y137212D01*
X297290Y137282D01*
X297419Y137341D01*
X297537Y137388D01*
X297760Y137458D01*
X297854Y137481D01*
X297936Y137493D01*
X297994Y137505D01*
X298088D01*
X298264Y137493D01*
D02*
G37*
G36*
X201557Y67531D02*
X201602Y67394D01*
X201648Y67257D01*
X201681Y67132D01*
X201714Y67021D01*
X201740Y66917D01*
X201766Y66825D01*
X201805Y66668D01*
X201831Y66550D01*
X201844Y66459D01*
X201857Y66407D01*
Y66394D01*
X201870Y66263D01*
X201877Y66125D01*
Y65995D01*
X201870Y65884D01*
X201864Y65786D01*
X201851Y65707D01*
Y65655D01*
X201844Y65635D01*
X202047Y65760D01*
X202236Y65844D01*
X202426Y65903D01*
X202596Y65929D01*
X202733Y65949D01*
X202845Y65956D01*
X202916Y65949D01*
X202936Y65956D01*
X202943Y65949D01*
X203158Y65903D01*
X203361Y65831D01*
X203544Y65740D01*
X203701Y65635D01*
X203838Y65537D01*
X203897Y65491D01*
X203943Y65446D01*
X203982Y65420D01*
X204015Y65387D01*
X204028Y65374D01*
X204034Y65367D01*
X204178Y65210D01*
X204289Y65060D01*
X204387Y64910D01*
X204466Y64779D01*
X204512Y64668D01*
X204551Y64576D01*
X204570Y64517D01*
X204577Y64498D01*
X204616Y64328D01*
X204629Y64171D01*
X204636Y64033D01*
X204623Y63916D01*
X204610Y63811D01*
X204597Y63733D01*
X204577Y63687D01*
X204570Y63667D01*
X204538Y63595D01*
X204499Y63517D01*
X204400Y63354D01*
X204283Y63197D01*
X204165Y63040D01*
X204047Y62909D01*
X203989Y62850D01*
X203949Y62798D01*
X203910Y62759D01*
X203877Y62726D01*
X203858Y62706D01*
X203851Y62700D01*
X202308Y61157D01*
X197889Y65576D01*
X198621Y66309D01*
X200465Y64465D01*
X200609Y64609D01*
X200700Y64700D01*
X200765Y64779D01*
X200824Y64851D01*
X200864Y64916D01*
X200896Y64962D01*
X200909Y65001D01*
X200916Y65021D01*
X200922Y65027D01*
X200949Y65093D01*
X200955Y65164D01*
X200962Y65289D01*
Y65341D01*
X200955Y65387D01*
Y65413D01*
Y65426D01*
X200949Y65472D01*
X200935Y65537D01*
X200929Y65609D01*
X200909Y65681D01*
X200864Y65858D01*
X200818Y66034D01*
X200772Y66198D01*
X200752Y66269D01*
X200739Y66335D01*
X200726Y66387D01*
X200713Y66426D01*
X200707Y66459D01*
X200700Y66466D01*
X200262Y67950D01*
X201145Y68832D01*
X201557Y67531D01*
D02*
G37*
G36*
X197255Y64001D02*
X197268D01*
X197484Y63968D01*
X197693Y63916D01*
X197902Y63850D01*
X198105Y63766D01*
X198301Y63674D01*
X198490Y63576D01*
X198660Y63471D01*
X198824Y63360D01*
X198974Y63249D01*
X199111Y63151D01*
X199236Y63053D01*
X199334Y62968D01*
X199419Y62896D01*
X199478Y62837D01*
X199510Y62804D01*
X199523Y62791D01*
X199713Y62589D01*
X199890Y62386D01*
X200040Y62183D01*
X200171Y61987D01*
X200288Y61804D01*
X200380Y61621D01*
X200465Y61458D01*
X200537Y61294D01*
X200589Y61150D01*
X200628Y61020D01*
X200661Y60896D01*
X200687Y60804D01*
X200707Y60719D01*
X200713Y60660D01*
X200720Y60627D01*
Y60614D01*
X200726Y60412D01*
X200720Y60222D01*
X200694Y60039D01*
X200661Y59862D01*
X200609Y59706D01*
X200556Y59549D01*
X200491Y59405D01*
X200426Y59274D01*
X200354Y59163D01*
X200288Y59058D01*
X200223Y58967D01*
X200171Y58888D01*
X200118Y58836D01*
X200079Y58784D01*
X200053Y58758D01*
X200046Y58751D01*
X199837Y58568D01*
X199634Y58418D01*
X199438Y58300D01*
X199255Y58208D01*
X199177Y58182D01*
X199098Y58156D01*
X199033Y58130D01*
X198974Y58110D01*
X198935Y58097D01*
X198902Y58091D01*
X198876D01*
X198870Y58084D01*
X198634Y58058D01*
X198392Y58052D01*
X198170Y58078D01*
X197954Y58110D01*
X197771Y58150D01*
X197693Y58176D01*
X197634Y58195D01*
X197575Y58215D01*
X197536Y58228D01*
X197510D01*
X197503Y58235D01*
X197366Y58293D01*
X197222Y58359D01*
X196954Y58522D01*
X196699Y58699D01*
X196457Y58875D01*
X196359Y58960D01*
X196261Y59045D01*
X196176Y59117D01*
X196111Y59183D01*
X196052Y59228D01*
X196006Y59274D01*
X195980Y59300D01*
X195973Y59307D01*
X195784Y59510D01*
X195607Y59712D01*
X195457Y59915D01*
X195326Y60111D01*
X195215Y60300D01*
X195124Y60484D01*
X195039Y60660D01*
X194973Y60830D01*
X194921Y60974D01*
X194875Y61111D01*
X194842Y61235D01*
X194816Y61340D01*
X194803Y61418D01*
X194790Y61484D01*
X194784Y61516D01*
Y61530D01*
X194777Y61719D01*
X194790Y61889D01*
X194823Y62066D01*
X194855Y62229D01*
X194908Y62386D01*
X194967Y62536D01*
X195032Y62667D01*
X195097Y62798D01*
X195169Y62909D01*
X195235Y63014D01*
X195307Y63099D01*
X195359Y63177D01*
X195411Y63229D01*
X195450Y63282D01*
X195477Y63308D01*
X195483Y63314D01*
X195634Y63452D01*
X195784Y63563D01*
X195941Y63667D01*
X196091Y63752D01*
X196248Y63818D01*
X196392Y63870D01*
X196529Y63916D01*
X196666Y63948D01*
X196797Y63975D01*
X196908Y63994D01*
X197013D01*
X197098Y64001D01*
X197170Y64007D01*
X197222D01*
X197255Y64001D01*
D02*
G37*
G36*
X305798Y137493D02*
X305963Y137481D01*
X306256Y137411D01*
X306514Y137329D01*
X306725Y137223D01*
X306901Y137118D01*
X306960Y137059D01*
X307019Y137024D01*
X307066Y136989D01*
X307101Y136953D01*
X307113Y136942D01*
X307124Y136930D01*
X307230Y136813D01*
X307312Y136695D01*
X307465Y136414D01*
X307582Y136120D01*
X307664Y135839D01*
X307699Y135698D01*
X307734Y135569D01*
X307746Y135451D01*
X307770Y135358D01*
X307781Y135275D01*
Y135217D01*
X307793Y135170D01*
Y135158D01*
X306549Y134994D01*
X306526Y135217D01*
X306490Y135404D01*
X306444Y135569D01*
X306385Y135709D01*
X306315Y135839D01*
X306244Y135933D01*
X306162Y136015D01*
X306080Y136085D01*
X305998Y136132D01*
X305927Y136167D01*
X305786Y136214D01*
X305739Y136226D01*
X305693Y136238D01*
X305657D01*
X305528Y136226D01*
X305399Y136191D01*
X305294Y136155D01*
X305211Y136109D01*
X305141Y136050D01*
X305094Y136015D01*
X305059Y135979D01*
X305047Y135968D01*
X304965Y135862D01*
X304906Y135733D01*
X304871Y135604D01*
X304836Y135475D01*
X304824Y135358D01*
X304812Y135264D01*
Y135205D01*
Y135193D01*
Y135181D01*
X304824Y135005D01*
X304859Y134829D01*
X304906Y134665D01*
X304953Y134524D01*
X305000Y134395D01*
X305047Y134301D01*
X305082Y134243D01*
X305094Y134219D01*
X305141Y134149D01*
X305200Y134067D01*
X305340Y133879D01*
X305505Y133679D01*
X305681Y133468D01*
X305845Y133269D01*
X305916Y133175D01*
X305986Y133104D01*
X306033Y133046D01*
X306080Y132999D01*
X306103Y132964D01*
X306115Y132952D01*
X306303Y132741D01*
X306467Y132529D01*
X306631Y132342D01*
X306772Y132166D01*
X306901Y131990D01*
X307007Y131837D01*
X307113Y131696D01*
X307195Y131567D01*
X307277Y131450D01*
X307347Y131356D01*
X307394Y131262D01*
X307441Y131192D01*
X307476Y131133D01*
X307488Y131098D01*
X307511Y131074D01*
Y131062D01*
X307629Y130793D01*
X307723Y130523D01*
X307805Y130265D01*
X307852Y130042D01*
X307887Y129842D01*
X307910Y129760D01*
X307922Y129690D01*
Y129631D01*
X307934Y129584D01*
Y129560D01*
Y129549D01*
X303557D01*
Y130957D01*
X306045D01*
X305963Y131110D01*
X305880Y131238D01*
X305845Y131285D01*
X305810Y131332D01*
X305798Y131356D01*
X305786Y131368D01*
X305704Y131473D01*
X305599Y131602D01*
X305470Y131743D01*
X305340Y131896D01*
X305223Y132037D01*
X305118Y132154D01*
X305082Y132201D01*
X305047Y132236D01*
X305035Y132248D01*
X305024Y132260D01*
X304801Y132518D01*
X304613Y132752D01*
X304449Y132952D01*
X304320Y133128D01*
X304226Y133257D01*
X304155Y133363D01*
X304120Y133421D01*
X304108Y133445D01*
X304014Y133621D01*
X303921Y133785D01*
X303850Y133938D01*
X303792Y134078D01*
X303756Y134196D01*
X303721Y134278D01*
X303698Y134337D01*
Y134360D01*
X303651Y134536D01*
X303615Y134700D01*
X303592Y134865D01*
X303569Y135005D01*
Y135134D01*
X303557Y135228D01*
Y135287D01*
Y135310D01*
Y135475D01*
X303580Y135627D01*
X303639Y135909D01*
X303721Y136167D01*
X303815Y136390D01*
X303921Y136578D01*
X303967Y136660D01*
X304003Y136719D01*
X304038Y136766D01*
X304061Y136801D01*
X304073Y136824D01*
X304085Y136836D01*
X304191Y136953D01*
X304296Y137059D01*
X304414Y137141D01*
X304543Y137223D01*
X304672Y137294D01*
X304801Y137341D01*
X305047Y137423D01*
X305282Y137470D01*
X305376Y137481D01*
X305470Y137493D01*
X305540Y137505D01*
X305634D01*
X305798Y137493D01*
D02*
G37*
G36*
X311912Y129549D02*
X310480D01*
X308169Y137481D01*
X309577D01*
X311161Y131602D01*
X312804Y137481D01*
X314224D01*
X311912Y129549D01*
D02*
G37*
G36*
X302454D02*
X301210D01*
Y131074D01*
X302454D01*
Y129549D01*
D02*
G37*
G36*
X182970Y45924D02*
X181395Y44349D01*
X180649Y45094D01*
X181486Y45931D01*
X180930Y46487D01*
X180793Y46480D01*
X180669Y46460D01*
X180551Y46434D01*
X180453Y46415D01*
X180362Y46389D01*
X180296Y46362D01*
X180257Y46349D01*
X180237Y46343D01*
X180120Y46290D01*
X180015Y46238D01*
X179924Y46173D01*
X179845Y46120D01*
X179786Y46075D01*
X179741Y46042D01*
X179708Y46009D01*
X179701Y46003D01*
X179623Y45911D01*
X179551Y45826D01*
X179446Y45643D01*
X179374Y45454D01*
X179335Y45284D01*
X179322Y45140D01*
Y45022D01*
Y44944D01*
Y44931D01*
Y44917D01*
X179355Y44780D01*
X179394Y44650D01*
X179512Y44375D01*
X179662Y44120D01*
X179819Y43885D01*
X179891Y43787D01*
X179969Y43695D01*
X180035Y43603D01*
X180100Y43538D01*
X180146Y43479D01*
X180192Y43433D01*
X180218Y43407D01*
X180224Y43401D01*
X180368Y43270D01*
X180499Y43152D01*
X180630Y43048D01*
X180760Y42956D01*
X180878Y42878D01*
X180996Y42812D01*
X181100Y42760D01*
X181198Y42714D01*
X181290Y42675D01*
X181375Y42642D01*
X181447Y42623D01*
X181506Y42603D01*
X181551Y42597D01*
X181584Y42590D01*
X181610D01*
X181617Y42584D01*
X181741Y42577D01*
X181859D01*
X181963Y42590D01*
X182068Y42616D01*
X182257Y42675D01*
X182428Y42754D01*
X182558Y42832D01*
X182610Y42871D01*
X182656Y42904D01*
X182696Y42930D01*
X182722Y42956D01*
X182735Y42969D01*
X182741Y42976D01*
X182846Y43094D01*
X182924Y43211D01*
X182977Y43329D01*
X183022Y43440D01*
X183049Y43531D01*
X183062Y43610D01*
X183075Y43662D01*
Y43675D01*
Y43819D01*
X183055Y43969D01*
X183016Y44113D01*
X182977Y44231D01*
X182931Y44342D01*
X182892Y44421D01*
X182859Y44479D01*
Y44493D01*
X182852Y44499D01*
X183741Y45061D01*
X183833Y44917D01*
X183918Y44780D01*
X183977Y44643D01*
X184036Y44506D01*
X184081Y44381D01*
X184114Y44257D01*
X184147Y44146D01*
X184167Y44035D01*
X184186Y43937D01*
X184199Y43845D01*
Y43767D01*
X184212Y43702D01*
Y43649D01*
Y43610D01*
X184206Y43590D01*
Y43577D01*
X184193Y43446D01*
X184160Y43309D01*
X184121Y43179D01*
X184075Y43054D01*
X183964Y42825D01*
X183833Y42616D01*
X183774Y42531D01*
X183709Y42453D01*
X183650Y42381D01*
X183604Y42322D01*
X183565Y42270D01*
X183526Y42231D01*
X183506Y42211D01*
X183500Y42204D01*
X183290Y42021D01*
X183088Y41871D01*
X182885Y41760D01*
X182702Y41668D01*
X182617Y41636D01*
X182545Y41603D01*
X182473Y41583D01*
X182421Y41570D01*
X182375Y41551D01*
X182342Y41544D01*
X182316D01*
X182310Y41537D01*
X182068Y41505D01*
X181819D01*
X181591Y41525D01*
X181368Y41564D01*
X181185Y41603D01*
X181107Y41616D01*
X181042Y41642D01*
X180989Y41655D01*
X180950Y41668D01*
X180917Y41675D01*
X180911Y41681D01*
X180630Y41806D01*
X180362Y41956D01*
X180107Y42119D01*
X179884Y42289D01*
X179780Y42368D01*
X179695Y42440D01*
X179610Y42512D01*
X179551Y42571D01*
X179492Y42616D01*
X179453Y42656D01*
X179427Y42682D01*
X179420Y42688D01*
X179178Y42956D01*
X178969Y43218D01*
X178871Y43342D01*
X178793Y43460D01*
X178721Y43584D01*
X178655Y43688D01*
X178596Y43787D01*
X178551Y43885D01*
X178511Y43963D01*
X178472Y44028D01*
X178453Y44087D01*
X178433Y44120D01*
X178426Y44153D01*
X178420Y44159D01*
X178335Y44440D01*
X178283Y44702D01*
X178256Y44950D01*
X178250Y45166D01*
X178256Y45342D01*
X178276Y45480D01*
Y45532D01*
X178283Y45565D01*
X178289Y45584D01*
Y45597D01*
X178361Y45839D01*
X178459Y46068D01*
X178577Y46277D01*
X178688Y46454D01*
X178740Y46532D01*
X178799Y46604D01*
X178845Y46663D01*
X178891Y46709D01*
X178923Y46755D01*
X178950Y46781D01*
X178969Y46800D01*
X178976Y46807D01*
X179146Y46964D01*
X179329Y47094D01*
X179512Y47212D01*
X179675Y47310D01*
X179825Y47382D01*
X179884Y47415D01*
X179943Y47448D01*
X179982Y47461D01*
X180022Y47474D01*
X180041Y47480D01*
X180048Y47487D01*
X180283Y47565D01*
X180505Y47618D01*
X180695Y47650D01*
X180872Y47670D01*
X181015Y47683D01*
X181211D01*
X182970Y45924D01*
D02*
G37*
G36*
X179917Y38766D02*
X179139Y37988D01*
X173314Y41002D01*
X174092Y41779D01*
X175386Y41073D01*
X176851Y42538D01*
X176164Y43852D01*
X176956Y44643D01*
X179917Y38766D01*
D02*
G37*
G36*
X177380Y36229D02*
X176276Y35124D01*
X172595Y37497D01*
X174961Y33810D01*
X173870Y32718D01*
X169450Y37138D01*
X170130Y37818D01*
X173615Y34333D01*
X170849Y38537D01*
X171549Y39236D01*
X175766Y36484D01*
X172281Y39969D01*
X172961Y40648D01*
X177380Y36229D01*
D02*
G37*
G36*
X196078Y56417D02*
X197150Y57489D01*
X197896Y56744D01*
X195012Y53861D01*
X194267Y54606D01*
X195346Y55685D01*
X191672Y59359D01*
X192404Y60091D01*
X196078Y56417D01*
D02*
G37*
G36*
X190220Y56966D02*
X190233D01*
X190449Y56934D01*
X190658Y56881D01*
X190868Y56816D01*
X191070Y56731D01*
X191266Y56639D01*
X191456Y56541D01*
X191626Y56437D01*
X191789Y56326D01*
X191940Y56214D01*
X192077Y56116D01*
X192201Y56018D01*
X192299Y55933D01*
X192384Y55862D01*
X192443Y55803D01*
X192476Y55770D01*
X192489Y55757D01*
X192679Y55554D01*
X192855Y55352D01*
X193005Y55149D01*
X193136Y54953D01*
X193254Y54770D01*
X193345Y54587D01*
X193430Y54423D01*
X193502Y54260D01*
X193554Y54116D01*
X193594Y53985D01*
X193626Y53861D01*
X193653Y53769D01*
X193672Y53684D01*
X193679Y53626D01*
X193685Y53593D01*
Y53580D01*
X193692Y53377D01*
X193685Y53188D01*
X193659Y53004D01*
X193626Y52828D01*
X193574Y52671D01*
X193522Y52514D01*
X193456Y52370D01*
X193391Y52240D01*
X193319Y52129D01*
X193254Y52024D01*
X193188Y51932D01*
X193136Y51854D01*
X193084Y51802D01*
X193045Y51749D01*
X193018Y51723D01*
X193012Y51717D01*
X192803Y51534D01*
X192600Y51383D01*
X192404Y51266D01*
X192221Y51174D01*
X192142Y51148D01*
X192064Y51122D01*
X191999Y51096D01*
X191940Y51076D01*
X191901Y51063D01*
X191868Y51056D01*
X191842D01*
X191835Y51050D01*
X191600Y51024D01*
X191358Y51017D01*
X191136Y51043D01*
X190920Y51076D01*
X190737Y51115D01*
X190658Y51141D01*
X190599Y51161D01*
X190541Y51181D01*
X190501Y51194D01*
X190475D01*
X190469Y51200D01*
X190331Y51259D01*
X190188Y51324D01*
X189920Y51488D01*
X189665Y51664D01*
X189423Y51841D01*
X189325Y51926D01*
X189227Y52011D01*
X189142Y52083D01*
X189076Y52148D01*
X189017Y52194D01*
X188972Y52240D01*
X188946Y52266D01*
X188939Y52272D01*
X188749Y52475D01*
X188573Y52678D01*
X188423Y52880D01*
X188292Y53076D01*
X188181Y53266D01*
X188089Y53449D01*
X188004Y53626D01*
X187939Y53796D01*
X187886Y53939D01*
X187841Y54077D01*
X187808Y54201D01*
X187782Y54306D01*
X187769Y54384D01*
X187756Y54449D01*
X187749Y54482D01*
Y54495D01*
X187743Y54685D01*
X187756Y54855D01*
X187788Y55031D01*
X187821Y55195D01*
X187873Y55352D01*
X187932Y55502D01*
X187997Y55633D01*
X188063Y55763D01*
X188135Y55875D01*
X188200Y55979D01*
X188272Y56064D01*
X188324Y56143D01*
X188377Y56195D01*
X188416Y56247D01*
X188442Y56273D01*
X188449Y56280D01*
X188599Y56417D01*
X188749Y56528D01*
X188906Y56633D01*
X189057Y56718D01*
X189214Y56783D01*
X189357Y56836D01*
X189495Y56881D01*
X189632Y56914D01*
X189763Y56940D01*
X189874Y56960D01*
X189978D01*
X190063Y56966D01*
X190135Y56973D01*
X190188D01*
X190220Y56966D01*
D02*
G37*
G36*
X190606Y49455D02*
X189501Y48350D01*
X185821Y50723D01*
X188187Y47036D01*
X187095Y45944D01*
X182676Y50363D01*
X183356Y51043D01*
X186840Y47559D01*
X184075Y51762D01*
X184774Y52462D01*
X188991Y49710D01*
X185507Y53194D01*
X186187Y53874D01*
X190606Y49455D01*
D02*
G37*
G36*
X131503Y140000D02*
X130553D01*
Y141375D01*
X125871D01*
Y142308D01*
X130553D01*
Y143674D01*
X131503D01*
Y140000D01*
D02*
G37*
G36*
X127687Y168576D02*
X127854Y168559D01*
X128004Y168534D01*
X128129Y168501D01*
X128229Y168468D01*
X128304Y168443D01*
X128354Y168426D01*
X128370Y168418D01*
X128495Y168351D01*
X128612Y168276D01*
X128712Y168193D01*
X128795Y168118D01*
X128862Y168043D01*
X128904Y167985D01*
X128937Y167951D01*
X128945Y167934D01*
X128987Y167876D01*
X129029Y167801D01*
X129112Y167643D01*
X129178Y167476D01*
X129245Y167310D01*
X129304Y167160D01*
X129320Y167093D01*
X129345Y167035D01*
X129362Y166985D01*
X129370Y166951D01*
X129378Y166926D01*
Y166918D01*
X129412Y166801D01*
X129445Y166693D01*
X129479Y166593D01*
X129512Y166510D01*
X129545Y166427D01*
X129570Y166360D01*
X129603Y166302D01*
X129628Y166243D01*
X129670Y166160D01*
X129703Y166110D01*
X129720Y166077D01*
X129728Y166068D01*
X129787Y166010D01*
X129853Y165960D01*
X129912Y165927D01*
X129970Y165910D01*
X130028Y165893D01*
X130070Y165885D01*
X130103D01*
X130187Y165893D01*
X130262Y165918D01*
X130328Y165952D01*
X130387Y165985D01*
X130436Y166018D01*
X130470Y166052D01*
X130486Y166077D01*
X130495Y166085D01*
X130545Y166168D01*
X130587Y166268D01*
X130611Y166360D01*
X130637Y166452D01*
X130645Y166535D01*
X130653Y166610D01*
Y166651D01*
Y166668D01*
X130645Y166801D01*
X130628Y166918D01*
X130595Y167018D01*
X130562Y167101D01*
X130528Y167168D01*
X130495Y167218D01*
X130478Y167243D01*
X130470Y167251D01*
X130387Y167326D01*
X130295Y167385D01*
X130187Y167426D01*
X130087Y167468D01*
X129987Y167493D01*
X129912Y167510D01*
X129878Y167518D01*
X129853Y167526D01*
X129837D01*
X129887Y168459D01*
X130037Y168451D01*
X130178Y168426D01*
X130303Y168401D01*
X130428Y168368D01*
X130536Y168334D01*
X130645Y168293D01*
X130737Y168243D01*
X130820Y168201D01*
X130895Y168160D01*
X130961Y168118D01*
X131020Y168076D01*
X131061Y168043D01*
X131095Y168009D01*
X131128Y167985D01*
X131136Y167976D01*
X131145Y167968D01*
X131228Y167876D01*
X131295Y167785D01*
X131353Y167676D01*
X131403Y167576D01*
X131486Y167360D01*
X131536Y167160D01*
X131561Y167060D01*
X131570Y166976D01*
X131578Y166893D01*
X131586Y166826D01*
X131595Y166768D01*
Y166726D01*
Y166702D01*
Y166693D01*
X131586Y166502D01*
X131561Y166318D01*
X131536Y166168D01*
X131503Y166035D01*
X131461Y165927D01*
X131436Y165843D01*
X131411Y165793D01*
X131403Y165785D01*
Y165777D01*
X131328Y165643D01*
X131236Y165535D01*
X131145Y165435D01*
X131053Y165352D01*
X130970Y165285D01*
X130903Y165243D01*
X130861Y165210D01*
X130853Y165202D01*
X130845D01*
X130703Y165135D01*
X130562Y165085D01*
X130420Y165044D01*
X130295Y165019D01*
X130187Y165002D01*
X130095Y164994D01*
X130020D01*
X129878Y165002D01*
X129737Y165019D01*
X129612Y165044D01*
X129503Y165077D01*
X129412Y165102D01*
X129337Y165127D01*
X129295Y165144D01*
X129278Y165152D01*
X129153Y165219D01*
X129045Y165294D01*
X128954Y165368D01*
X128879Y165435D01*
X128812Y165502D01*
X128770Y165552D01*
X128737Y165585D01*
X128729Y165593D01*
X128654Y165710D01*
X128579Y165843D01*
X128512Y165993D01*
X128454Y166135D01*
X128404Y166268D01*
X128387Y166318D01*
X128370Y166368D01*
X128354Y166410D01*
X128345Y166443D01*
X128337Y166460D01*
Y166468D01*
X128304Y166585D01*
X128270Y166693D01*
X128237Y166793D01*
X128204Y166877D01*
X128179Y166960D01*
X128154Y167026D01*
X128137Y167085D01*
X128120Y167135D01*
X128087Y167210D01*
X128062Y167268D01*
X128054Y167293D01*
X128046Y167301D01*
X128012Y167360D01*
X127979Y167418D01*
X127937Y167460D01*
X127904Y167493D01*
X127854Y167543D01*
X127837Y167560D01*
X127829D01*
X127779Y167593D01*
X127721Y167610D01*
X127621Y167643D01*
X127571D01*
X127537Y167651D01*
X127504D01*
X127387Y167643D01*
X127279Y167610D01*
X127187Y167576D01*
X127104Y167526D01*
X127046Y167485D01*
X126996Y167443D01*
X126962Y167410D01*
X126954Y167401D01*
X126879Y167301D01*
X126829Y167193D01*
X126788Y167085D01*
X126763Y166985D01*
X126746Y166885D01*
X126737Y166810D01*
Y166760D01*
Y166751D01*
Y166743D01*
X126746Y166593D01*
X126788Y166452D01*
X126838Y166335D01*
X126904Y166227D01*
X126987Y166127D01*
X127079Y166043D01*
X127179Y165977D01*
X127279Y165918D01*
X127379Y165868D01*
X127479Y165827D01*
X127571Y165793D01*
X127654Y165768D01*
X127721Y165752D01*
X127771Y165743D01*
X127812Y165735D01*
X127821D01*
X127712Y164827D01*
X127537Y164852D01*
X127371Y164877D01*
X127221Y164919D01*
X127071Y164960D01*
X126937Y165019D01*
X126812Y165077D01*
X126704Y165135D01*
X126596Y165202D01*
X126496Y165277D01*
X126404Y165352D01*
X126254Y165510D01*
X126121Y165677D01*
X126021Y165843D01*
X125938Y166010D01*
X125879Y166168D01*
X125838Y166318D01*
X125813Y166452D01*
X125796Y166560D01*
X125779Y166643D01*
Y166677D01*
Y166702D01*
Y166710D01*
Y166718D01*
X125788Y166893D01*
X125804Y167051D01*
X125821Y167201D01*
X125854Y167343D01*
X125896Y167468D01*
X125938Y167585D01*
X125979Y167693D01*
X126029Y167785D01*
X126071Y167859D01*
X126113Y167934D01*
X126154Y167993D01*
X126196Y168043D01*
X126229Y168076D01*
X126246Y168101D01*
X126263Y168118D01*
X126271Y168126D01*
X126371Y168209D01*
X126471Y168276D01*
X126571Y168343D01*
X126671Y168393D01*
X126879Y168476D01*
X127079Y168526D01*
X127162Y168543D01*
X127246Y168559D01*
X127321Y168568D01*
X127379Y168576D01*
X127437Y168584D01*
X127504D01*
X127687Y168576D01*
D02*
G37*
G36*
X131503Y163244D02*
X125871D01*
Y164177D01*
X131503D01*
Y163244D01*
D02*
G37*
G36*
Y169043D02*
X130553D01*
Y170417D01*
X125871D01*
Y171350D01*
X130553D01*
Y172717D01*
X131503D01*
Y169043D01*
D02*
G37*
G36*
X126962Y181923D02*
X127079Y181864D01*
X127196Y181806D01*
X127296Y181748D01*
X127387Y181698D01*
X127471Y181648D01*
X127546Y181606D01*
X127671Y181531D01*
X127762Y181473D01*
X127829Y181423D01*
X127871Y181398D01*
X127879Y181389D01*
X127971Y181314D01*
X128062Y181231D01*
X128146Y181148D01*
X128212Y181073D01*
X128270Y181006D01*
X128312Y180948D01*
X128345Y180914D01*
X128354Y180898D01*
X128404Y181106D01*
X128470Y181281D01*
X128554Y181439D01*
X128645Y181564D01*
X128720Y181664D01*
X128787Y181739D01*
X128837Y181781D01*
X128845Y181798D01*
X128854D01*
X129020Y181906D01*
X129195Y181989D01*
X129370Y182048D01*
X129537Y182081D01*
X129687Y182106D01*
X129753Y182114D01*
X129812D01*
X129853Y182122D01*
X129920D01*
X130112Y182114D01*
X130278Y182089D01*
X130436Y182056D01*
X130570Y182023D01*
X130670Y181981D01*
X130753Y181948D01*
X130803Y181923D01*
X130820Y181914D01*
X130953Y181831D01*
X131061Y181739D01*
X131153Y181656D01*
X131220Y181573D01*
X131278Y181498D01*
X131320Y181439D01*
X131336Y181398D01*
X131345Y181381D01*
X131370Y181314D01*
X131395Y181239D01*
X131436Y181073D01*
X131461Y180898D01*
X131486Y180723D01*
X131495Y180565D01*
Y180490D01*
X131503Y180431D01*
Y180381D01*
Y180340D01*
Y180315D01*
Y180306D01*
Y178340D01*
X125871D01*
Y179273D01*
X128220D01*
Y179457D01*
Y179573D01*
X128212Y179665D01*
X128204Y179748D01*
X128187Y179815D01*
X128179Y179865D01*
X128162Y179898D01*
X128154Y179915D01*
Y179923D01*
X128129Y179981D01*
X128087Y180031D01*
X128012Y180115D01*
X127979Y180148D01*
X127945Y180173D01*
X127929Y180190D01*
X127921Y180198D01*
X127887Y180223D01*
X127837Y180256D01*
X127787Y180298D01*
X127729Y180331D01*
X127587Y180415D01*
X127446Y180498D01*
X127312Y180573D01*
X127254Y180606D01*
X127204Y180640D01*
X127162Y180665D01*
X127129Y180681D01*
X127104Y180698D01*
X127096D01*
X125871Y181364D01*
Y182489D01*
X126962Y181923D01*
D02*
G37*
G36*
X128937Y177599D02*
X129178Y177582D01*
X129403Y177549D01*
X129612Y177507D01*
X129803Y177465D01*
X129978Y177407D01*
X130137Y177357D01*
X130287Y177299D01*
X130412Y177241D01*
X130520Y177182D01*
X130620Y177124D01*
X130695Y177082D01*
X130761Y177041D01*
X130803Y177007D01*
X130828Y176991D01*
X130836Y176982D01*
X130970Y176857D01*
X131086Y176732D01*
X131186Y176599D01*
X131278Y176466D01*
X131345Y176332D01*
X131411Y176199D01*
X131461Y176066D01*
X131503Y175941D01*
X131528Y175824D01*
X131553Y175716D01*
X131570Y175616D01*
X131586Y175533D01*
Y175466D01*
X131595Y175408D01*
Y175374D01*
Y175366D01*
X131578Y175116D01*
X131545Y174891D01*
X131495Y174691D01*
X131436Y174516D01*
X131403Y174450D01*
X131370Y174383D01*
X131345Y174324D01*
X131320Y174275D01*
X131303Y174241D01*
X131286Y174216D01*
X131270Y174200D01*
Y174191D01*
X131136Y174025D01*
X130986Y173866D01*
X130828Y173741D01*
X130670Y173625D01*
X130528Y173533D01*
X130462Y173500D01*
X130412Y173475D01*
X130362Y173450D01*
X130328Y173433D01*
X130312Y173416D01*
X130303D01*
X130178Y173367D01*
X130045Y173316D01*
X129770Y173250D01*
X129495Y173200D01*
X129228Y173158D01*
X129112Y173150D01*
X128995Y173141D01*
X128895Y173133D01*
X128812D01*
X128745Y173125D01*
X128645D01*
X128395Y173133D01*
X128154Y173150D01*
X127929Y173183D01*
X127721Y173225D01*
X127529Y173275D01*
X127354Y173333D01*
X127187Y173391D01*
X127037Y173458D01*
X126912Y173516D01*
X126796Y173575D01*
X126696Y173633D01*
X126613Y173683D01*
X126554Y173725D01*
X126504Y173758D01*
X126479Y173775D01*
X126471Y173783D01*
X126346Y173900D01*
X126246Y174016D01*
X126154Y174150D01*
X126071Y174275D01*
X126004Y174408D01*
X125946Y174541D01*
X125904Y174666D01*
X125863Y174791D01*
X125838Y174908D01*
X125813Y175016D01*
X125804Y175116D01*
X125788Y175199D01*
Y175266D01*
X125779Y175324D01*
Y175358D01*
Y175366D01*
X125788Y175549D01*
X125813Y175716D01*
X125846Y175882D01*
X125888Y176032D01*
X125946Y176174D01*
X126004Y176299D01*
X126063Y176416D01*
X126129Y176524D01*
X126196Y176624D01*
X126254Y176707D01*
X126321Y176774D01*
X126371Y176832D01*
X126413Y176882D01*
X126446Y176915D01*
X126471Y176932D01*
X126479Y176940D01*
X126637Y177057D01*
X126804Y177157D01*
X126979Y177249D01*
X127162Y177324D01*
X127346Y177390D01*
X127529Y177449D01*
X127704Y177490D01*
X127879Y177524D01*
X128046Y177549D01*
X128195Y177574D01*
X128337Y177590D01*
X128454Y177599D01*
X128554Y177607D01*
X128687D01*
X128937Y177599D01*
D02*
G37*
G36*
X131503Y160945D02*
X127646Y160112D01*
X131503Y159270D01*
Y157879D01*
X125871D01*
Y158745D01*
X130312D01*
X125871Y159662D01*
Y160553D01*
X130312Y161486D01*
X125871D01*
Y162353D01*
X131503D01*
Y160945D01*
D02*
G37*
G36*
X126962Y156821D02*
X127079Y156762D01*
X127196Y156704D01*
X127296Y156646D01*
X127387Y156596D01*
X127471Y156546D01*
X127546Y156504D01*
X127671Y156429D01*
X127762Y156371D01*
X127829Y156321D01*
X127871Y156296D01*
X127879Y156287D01*
X127971Y156213D01*
X128062Y156129D01*
X128146Y156046D01*
X128212Y155971D01*
X128270Y155904D01*
X128312Y155846D01*
X128345Y155813D01*
X128354Y155796D01*
X128404Y156004D01*
X128470Y156179D01*
X128554Y156337D01*
X128645Y156462D01*
X128720Y156562D01*
X128787Y156637D01*
X128837Y156679D01*
X128845Y156696D01*
X128854D01*
X129020Y156804D01*
X129195Y156887D01*
X129370Y156946D01*
X129537Y156979D01*
X129687Y157004D01*
X129753Y157012D01*
X129812D01*
X129853Y157021D01*
X129920D01*
X130112Y157012D01*
X130278Y156987D01*
X130436Y156954D01*
X130570Y156921D01*
X130670Y156879D01*
X130753Y156846D01*
X130803Y156821D01*
X130820Y156812D01*
X130953Y156729D01*
X131061Y156637D01*
X131153Y156554D01*
X131220Y156471D01*
X131278Y156396D01*
X131320Y156337D01*
X131336Y156296D01*
X131345Y156279D01*
X131370Y156213D01*
X131395Y156138D01*
X131436Y155971D01*
X131461Y155796D01*
X131486Y155621D01*
X131495Y155463D01*
Y155388D01*
X131503Y155329D01*
Y155279D01*
Y155238D01*
Y155213D01*
Y155204D01*
Y153238D01*
X125871D01*
Y154171D01*
X128220D01*
Y154355D01*
Y154471D01*
X128212Y154563D01*
X128204Y154646D01*
X128187Y154713D01*
X128179Y154763D01*
X128162Y154796D01*
X128154Y154813D01*
Y154821D01*
X128129Y154880D01*
X128087Y154930D01*
X128012Y155013D01*
X127979Y155046D01*
X127945Y155071D01*
X127929Y155088D01*
X127921Y155096D01*
X127887Y155121D01*
X127837Y155154D01*
X127787Y155196D01*
X127729Y155229D01*
X127587Y155313D01*
X127446Y155396D01*
X127312Y155471D01*
X127254Y155504D01*
X127204Y155538D01*
X127162Y155563D01*
X127129Y155579D01*
X127104Y155596D01*
X127096D01*
X125871Y156263D01*
Y157387D01*
X126962Y156821D01*
D02*
G37*
G36*
X126821Y149864D02*
X128354D01*
Y152189D01*
X129304D01*
Y149864D01*
X130553D01*
Y152364D01*
X131503D01*
Y148931D01*
X125871D01*
Y152447D01*
X126821D01*
Y149864D01*
D02*
G37*
G36*
X131503Y147031D02*
X129287D01*
Y145207D01*
X131503D01*
Y144274D01*
X125871D01*
Y145207D01*
X128337D01*
Y147031D01*
X125871D01*
Y147965D01*
X131503D01*
Y147031D01*
D02*
G37*
%LPC*%
G36*
X298088Y136238D02*
X298077D01*
X297948Y136214D01*
X297830Y136155D01*
X297736Y136085D01*
X297654Y135991D01*
X297584Y135897D01*
X297537Y135827D01*
X297513Y135768D01*
X297502Y135745D01*
X297467Y135639D01*
X297431Y135510D01*
X297396Y135358D01*
X297373Y135181D01*
X297349Y135005D01*
X297337Y134806D01*
X297302Y134419D01*
Y134231D01*
X297290Y134055D01*
Y133891D01*
X297279Y133750D01*
Y133632D01*
Y133539D01*
Y133480D01*
Y133456D01*
Y133128D01*
X297290Y132835D01*
X297302Y132576D01*
X297314Y132342D01*
X297326Y132130D01*
X297349Y131943D01*
X297373Y131778D01*
X297384Y131637D01*
X297408Y131520D01*
X297431Y131415D01*
X297455Y131332D01*
X297467Y131274D01*
X297478Y131227D01*
X297490Y131192D01*
X297502Y131180D01*
Y131168D01*
X297584Y131004D01*
X297678Y130886D01*
X297772Y130804D01*
X297865Y130746D01*
X297948Y130710D01*
X298018Y130699D01*
X298065Y130687D01*
X298077D01*
X298206Y130710D01*
X298323Y130757D01*
X298429Y130840D01*
X298511Y130933D01*
X298581Y131016D01*
X298628Y131098D01*
X298652Y131145D01*
X298663Y131168D01*
X298699Y131274D01*
X298734Y131403D01*
X298757Y131555D01*
X298781Y131731D01*
X298804Y131907D01*
X298828Y132107D01*
X298851Y132494D01*
Y132682D01*
X298863Y132858D01*
Y133022D01*
X298875Y133163D01*
Y133292D01*
Y133374D01*
Y133433D01*
Y133456D01*
Y133785D01*
X298863Y134078D01*
X298851Y134337D01*
X298839Y134571D01*
X298828Y134782D01*
X298804Y134970D01*
X298792Y135134D01*
X298769Y135275D01*
X298746Y135393D01*
X298734Y135498D01*
X298710Y135580D01*
X298699Y135639D01*
X298687Y135686D01*
X298675Y135721D01*
X298663Y135745D01*
X298581Y135909D01*
X298487Y136026D01*
X298382Y136120D01*
X298288Y136179D01*
X298206Y136214D01*
X298135Y136226D01*
X298088Y136238D01*
D02*
G37*
G36*
X202701Y64949D02*
X202622D01*
X202563Y64942D01*
X202498Y64929D01*
X202446Y64916D01*
X202413Y64910D01*
X202387Y64896D01*
X202380Y64890D01*
X202341Y64864D01*
X202302Y64838D01*
X202204Y64753D01*
X202086Y64661D01*
X201982Y64556D01*
X201870Y64458D01*
X201825Y64413D01*
X201785Y64373D01*
X201753Y64341D01*
X201726Y64315D01*
X201714Y64302D01*
X201707Y64295D01*
X201171Y63759D01*
X202295Y62635D01*
X202864Y63203D01*
X202949Y63288D01*
X203027Y63367D01*
X203093Y63445D01*
X203158Y63510D01*
X203211Y63563D01*
X203256Y63622D01*
X203296Y63661D01*
X203328Y63707D01*
X203374Y63766D01*
X203400Y63805D01*
X203413Y63831D01*
X203420Y63837D01*
X203452Y63909D01*
X203472Y63981D01*
X203479Y64053D01*
X203485Y64112D01*
Y64164D01*
X203479Y64210D01*
X203472Y64230D01*
Y64243D01*
X203446Y64321D01*
X203420Y64400D01*
X203328Y64530D01*
X203283Y64589D01*
X203250Y64635D01*
X203224Y64661D01*
X203217Y64668D01*
X203132Y64740D01*
X203060Y64798D01*
X202982Y64851D01*
X202923Y64883D01*
X202858Y64910D01*
X202818Y64923D01*
X202792Y64936D01*
X202779D01*
X202701Y64949D01*
D02*
G37*
G36*
X197216Y62902D02*
X197098D01*
X196993Y62889D01*
X196889Y62876D01*
X196797Y62850D01*
X196706Y62824D01*
X196542Y62752D01*
X196418Y62680D01*
X196372Y62648D01*
X196327Y62615D01*
X196287Y62589D01*
X196268Y62569D01*
X196255Y62556D01*
X196248Y62550D01*
X196176Y62464D01*
X196117Y62379D01*
X196058Y62295D01*
X196019Y62203D01*
X195954Y62020D01*
X195921Y61843D01*
X195908Y61687D01*
Y61569D01*
X195915Y61523D01*
Y61484D01*
Y61471D01*
Y61458D01*
X195941Y61327D01*
X195980Y61209D01*
X196091Y60954D01*
X196228Y60712D01*
X196379Y60497D01*
X196451Y60399D01*
X196516Y60307D01*
X196581Y60229D01*
X196647Y60163D01*
X196693Y60104D01*
X196732Y60065D01*
X196758Y60039D01*
X196765Y60033D01*
X196908Y59902D01*
X197046Y59777D01*
X197183Y59666D01*
X197314Y59575D01*
X197438Y59490D01*
X197549Y59418D01*
X197660Y59359D01*
X197765Y59307D01*
X197856Y59268D01*
X197941Y59235D01*
X198007Y59209D01*
X198065Y59189D01*
X198118Y59176D01*
X198151Y59170D01*
X198177D01*
X198183Y59163D01*
X198301Y59150D01*
X198419D01*
X198523Y59163D01*
X198634Y59183D01*
X198732Y59202D01*
X198817Y59235D01*
X198981Y59307D01*
X199105Y59379D01*
X199157Y59418D01*
X199203Y59451D01*
X199236Y59470D01*
X199262Y59496D01*
X199275Y59510D01*
X199282Y59516D01*
X199353Y59601D01*
X199425Y59686D01*
X199478Y59777D01*
X199523Y59876D01*
X199589Y60059D01*
X199628Y60229D01*
X199634Y60379D01*
Y60497D01*
Y60549D01*
X199628Y60582D01*
X199634Y60601D01*
X199628Y60608D01*
X199608Y60732D01*
X199569Y60850D01*
X199458Y61105D01*
X199327Y61340D01*
X199177Y61556D01*
X199092Y61654D01*
X199027Y61745D01*
X198961Y61824D01*
X198896Y61889D01*
X198850Y61948D01*
X198811Y61987D01*
X198785Y62013D01*
X198778Y62020D01*
X198634Y62164D01*
X198490Y62281D01*
X198360Y62386D01*
X198222Y62484D01*
X198098Y62569D01*
X197980Y62635D01*
X197869Y62693D01*
X197765Y62746D01*
X197673Y62785D01*
X197588Y62818D01*
X197510Y62844D01*
X197451Y62863D01*
X197399Y62876D01*
X197366Y62883D01*
X197346Y62889D01*
X197333D01*
X197216Y62902D01*
D02*
G37*
G36*
X177354Y41551D02*
X176361Y40557D01*
X178492Y39406D01*
X177354Y41551D01*
D02*
G37*
G36*
X190181Y55868D02*
X190063D01*
X189959Y55855D01*
X189854Y55842D01*
X189763Y55816D01*
X189671Y55790D01*
X189508Y55718D01*
X189384Y55646D01*
X189338Y55613D01*
X189292Y55580D01*
X189253Y55554D01*
X189233Y55535D01*
X189220Y55521D01*
X189214Y55515D01*
X189142Y55430D01*
X189083Y55345D01*
X189024Y55260D01*
X188985Y55168D01*
X188919Y54985D01*
X188887Y54809D01*
X188874Y54652D01*
Y54534D01*
X188880Y54489D01*
Y54449D01*
Y54436D01*
Y54423D01*
X188906Y54292D01*
X188946Y54175D01*
X189057Y53920D01*
X189194Y53678D01*
X189344Y53462D01*
X189416Y53364D01*
X189482Y53273D01*
X189547Y53194D01*
X189612Y53129D01*
X189658Y53070D01*
X189697Y53031D01*
X189723Y53004D01*
X189730Y52998D01*
X189874Y52867D01*
X190011Y52743D01*
X190148Y52632D01*
X190279Y52540D01*
X190403Y52455D01*
X190515Y52383D01*
X190626Y52325D01*
X190730Y52272D01*
X190822Y52233D01*
X190907Y52200D01*
X190972Y52174D01*
X191031Y52155D01*
X191083Y52142D01*
X191116Y52135D01*
X191142D01*
X191149Y52129D01*
X191266Y52115D01*
X191384D01*
X191489Y52129D01*
X191600Y52148D01*
X191698Y52168D01*
X191783Y52200D01*
X191946Y52272D01*
X192071Y52344D01*
X192123Y52383D01*
X192169Y52416D01*
X192201Y52436D01*
X192227Y52462D01*
X192241Y52475D01*
X192247Y52481D01*
X192319Y52566D01*
X192391Y52652D01*
X192443Y52743D01*
X192489Y52841D01*
X192554Y53024D01*
X192593Y53194D01*
X192600Y53344D01*
Y53462D01*
Y53514D01*
X192593Y53547D01*
X192600Y53567D01*
X192593Y53573D01*
X192574Y53698D01*
X192535Y53815D01*
X192423Y54070D01*
X192293Y54306D01*
X192142Y54521D01*
X192057Y54619D01*
X191992Y54711D01*
X191927Y54789D01*
X191861Y54855D01*
X191815Y54914D01*
X191776Y54953D01*
X191750Y54979D01*
X191744Y54985D01*
X191600Y55129D01*
X191456Y55247D01*
X191325Y55352D01*
X191188Y55450D01*
X191064Y55535D01*
X190946Y55600D01*
X190835Y55659D01*
X190730Y55711D01*
X190639Y55750D01*
X190554Y55783D01*
X190475Y55809D01*
X190417Y55829D01*
X190364Y55842D01*
X190331Y55848D01*
X190312Y55855D01*
X190299D01*
X190181Y55868D01*
D02*
G37*
G36*
X129887Y181156D02*
X129845D01*
X129745Y181148D01*
X129662Y181140D01*
X129578Y181123D01*
X129520Y181106D01*
X129462Y181081D01*
X129429Y181064D01*
X129403Y181056D01*
X129395Y181048D01*
X129337Y181006D01*
X129287Y180956D01*
X129254Y180914D01*
X129220Y180865D01*
X129195Y180823D01*
X129178Y180798D01*
X129170Y180773D01*
Y180765D01*
X129162Y180723D01*
X129153Y180681D01*
X129145Y180565D01*
X129129Y180431D01*
Y180298D01*
X129120Y180165D01*
Y180106D01*
Y180056D01*
Y180015D01*
Y179981D01*
Y179965D01*
Y179956D01*
Y179273D01*
X130553D01*
Y179998D01*
Y180106D01*
Y180206D01*
X130545Y180298D01*
Y180381D01*
Y180448D01*
X130536Y180515D01*
Y180565D01*
X130528Y180615D01*
X130520Y180681D01*
X130512Y180723D01*
X130503Y180748D01*
Y180756D01*
X130478Y180823D01*
X130445Y180881D01*
X130403Y180931D01*
X130370Y180973D01*
X130337Y181006D01*
X130303Y181031D01*
X130287Y181040D01*
X130278Y181048D01*
X130212Y181081D01*
X130145Y181115D01*
X130003Y181140D01*
X129937Y181148D01*
X129887Y181156D01*
D02*
G37*
G36*
X128795Y176641D02*
X128520D01*
X128354Y176624D01*
X128204Y176607D01*
X128054Y176582D01*
X127921Y176557D01*
X127804Y176524D01*
X127696Y176491D01*
X127596Y176457D01*
X127512Y176424D01*
X127437Y176391D01*
X127371Y176357D01*
X127321Y176332D01*
X127279Y176307D01*
X127254Y176291D01*
X127237Y176282D01*
X127229Y176274D01*
X127146Y176207D01*
X127071Y176132D01*
X127012Y176057D01*
X126954Y175982D01*
X126912Y175907D01*
X126871Y175833D01*
X126812Y175683D01*
X126779Y175558D01*
X126771Y175508D01*
X126763Y175458D01*
X126754Y175416D01*
Y175391D01*
Y175374D01*
Y175366D01*
X126763Y175266D01*
X126779Y175174D01*
X126796Y175083D01*
X126829Y174999D01*
X126904Y174841D01*
X126996Y174708D01*
X127087Y174599D01*
X127162Y174524D01*
X127196Y174499D01*
X127221Y174475D01*
X127229Y174466D01*
X127237Y174458D01*
X127337Y174391D01*
X127437Y174341D01*
X127671Y174250D01*
X127912Y174183D01*
X128146Y174141D01*
X128254Y174125D01*
X128354Y174108D01*
X128445Y174100D01*
X128529D01*
X128595Y174091D01*
X128687D01*
X128862Y174100D01*
X129029Y174108D01*
X129187Y174125D01*
X129328Y174150D01*
X129462Y174175D01*
X129578Y174200D01*
X129687Y174233D01*
X129787Y174266D01*
X129870Y174300D01*
X129945Y174333D01*
X130003Y174358D01*
X130053Y174383D01*
X130095Y174408D01*
X130120Y174424D01*
X130137Y174441D01*
X130145D01*
X130228Y174508D01*
X130303Y174583D01*
X130362Y174658D01*
X130420Y174741D01*
X130470Y174816D01*
X130503Y174891D01*
X130562Y175041D01*
X130595Y175166D01*
X130603Y175224D01*
X130611Y175274D01*
X130620Y175308D01*
Y175341D01*
Y175358D01*
Y175366D01*
X130611Y175466D01*
X130603Y175566D01*
X130578Y175658D01*
X130545Y175749D01*
X130470Y175907D01*
X130387Y176041D01*
X130295Y176141D01*
X130220Y176216D01*
X130187Y176249D01*
X130162Y176266D01*
X130153Y176282D01*
X130145D01*
X130053Y176349D01*
X129953Y176399D01*
X129720Y176491D01*
X129487Y176557D01*
X129254Y176599D01*
X129137Y176607D01*
X129037Y176624D01*
X128945Y176632D01*
X128862D01*
X128795Y176641D01*
D02*
G37*
G36*
X129887Y156054D02*
X129845D01*
X129745Y156046D01*
X129662Y156038D01*
X129578Y156021D01*
X129520Y156004D01*
X129462Y155979D01*
X129429Y155963D01*
X129403Y155954D01*
X129395Y155946D01*
X129337Y155904D01*
X129287Y155854D01*
X129254Y155813D01*
X129220Y155763D01*
X129195Y155721D01*
X129178Y155696D01*
X129170Y155671D01*
Y155663D01*
X129162Y155621D01*
X129153Y155579D01*
X129145Y155463D01*
X129129Y155329D01*
Y155196D01*
X129120Y155063D01*
Y155005D01*
Y154955D01*
Y154913D01*
Y154880D01*
Y154863D01*
Y154854D01*
Y154171D01*
X130553D01*
Y154896D01*
Y155005D01*
Y155105D01*
X130545Y155196D01*
Y155279D01*
Y155346D01*
X130536Y155413D01*
Y155463D01*
X130528Y155513D01*
X130520Y155579D01*
X130512Y155621D01*
X130503Y155646D01*
Y155654D01*
X130478Y155721D01*
X130445Y155779D01*
X130403Y155829D01*
X130370Y155871D01*
X130337Y155904D01*
X130303Y155929D01*
X130287Y155938D01*
X130278Y155946D01*
X130212Y155979D01*
X130145Y156013D01*
X130003Y156038D01*
X129937Y156046D01*
X129887Y156054D01*
D02*
G37*
%LPD*%
D11*
X55250Y78500D02*
Y84750D01*
Y67250D02*
Y73500D01*
X62750Y78500D02*
Y84750D01*
Y67250D02*
Y73500D01*
X55250Y67250D02*
X62750D01*
X55250Y84750D02*
X62750D01*
X-1538Y54956D02*
Y129956D01*
X47712Y125206D02*
Y129956D01*
Y54956D02*
Y59706D01*
D45*
X164450Y137401D02*
Y148450D01*
X85050Y116450D02*
X96099D01*
X584277Y135901D02*
Y146950D01*
X281151Y160300D02*
X292200D01*
D46*
X84724Y79556D02*
G03*
X84724Y79556I-7000J0D01*
G01*
X229569Y51562D02*
G03*
X229569Y51562I-40339J0D01*
G01*
X178622Y95294D02*
G03*
X201174Y94948I10608J-43732D01*
G01*
X229537Y17148D02*
G03*
X229164Y86409I-40307J34414D01*
G01*
X159987Y86366D02*
G03*
X146215Y65537I-31463J5836D01*
G01*
X443414Y65623D02*
G03*
X443093Y65834I17429J26837D01*
G01*
X153270Y92202D02*
G03*
X153270Y92202I-25000J0D01*
G01*
X95250Y157500D02*
G03*
X95250Y157500I-5000J0D01*
G01*
X109500Y128250D02*
G03*
X109500Y128250I-5000J0D01*
G01*
X486010Y92456D02*
G03*
X486010Y92456I-25000J0D01*
G01*
X546528Y168656D02*
G03*
X546528Y168656I-5000J0D01*
G01*
X558974D02*
G03*
X558974Y168656I-5000J0D01*
G01*
X571928Y168660D02*
G03*
X571928Y168660I-5000J0D01*
G01*
X60516Y152608D02*
Y159608D01*
X44516Y141608D02*
X57516D01*
X44516Y170608D02*
X57516D01*
X44516Y141608D02*
Y150608D01*
Y161608D02*
Y170608D01*
X180524Y152470D02*
Y180170D01*
X152724Y152470D02*
X180524D01*
X152724Y180170D02*
X180524D01*
X152724Y152470D02*
Y180170D01*
X200930Y95262D02*
Y110962D01*
X178630D02*
X200930D01*
X178630Y95262D02*
Y110962D01*
X189230Y51562D02*
X218230D01*
X160230D02*
X189230D01*
Y80562D01*
Y22562D02*
Y51562D01*
X229320Y0D02*
Y17148D01*
X229255Y86106D02*
Y184297D01*
X614172Y0D02*
Y131826D01*
X613918Y150368D02*
Y184658D01*
X33528D02*
X613918D01*
X33274Y0D02*
Y54956D01*
X33528Y129956D02*
Y184658D01*
X33274Y0D02*
X614172D01*
X216592Y152724D02*
Y180424D01*
X188792Y152724D02*
X216592D01*
X188792Y180424D02*
X216592D01*
X188792Y152724D02*
Y180424D01*
D49*
X230250Y156000D02*
X244000D01*
X230250Y178000D02*
X244000D01*
Y177000D02*
Y178000D01*
X230250Y177000D02*
Y178000D01*
X244000Y156000D02*
Y156750D01*
X230250Y156000D02*
Y156750D01*
D89*
X65516Y174608D02*
G03*
X65516Y174608I-1000J0D01*
G01*
D90*
X131967Y9393D02*
G03*
X131867Y9459I5447J8387D01*
G01*
X106567Y9393D02*
G03*
X106467Y9459I5447J8387D01*
G01*
X81167Y9393D02*
G03*
X81067Y9459I5447J8387D01*
G01*
X55767Y9393D02*
G03*
X55667Y9459I5447J8387D01*
G01*
X517811Y158461D02*
G03*
X510303Y158287I-3969J9179D01*
G01*
X493173Y158461D02*
G03*
X485579Y158320I-3969J9179D01*
G01*
X467851Y158033D02*
G03*
X460154Y158291I-3539J9353D01*
G01*
X509157Y8885D02*
G03*
X509057Y8952I5447J8387D01*
G01*
X484011Y8885D02*
G03*
X483911Y8952I5447J8387D01*
G01*
X458866Y8885D02*
G03*
X458765Y8952I5447J8387D01*
G01*
X132898Y145866D02*
G03*
X152372Y145926I9715J7044D01*
G01*
X152493Y179627D02*
G03*
X132898Y179394I-9715J-7044D01*
G01*
X580200Y96050D02*
X591200D01*
Y103450D01*
X580200D02*
X591200D01*
X580200Y96050D02*
Y103450D01*
X460358Y158408D02*
X467758D01*
Y147408D02*
Y158408D01*
X460358Y147408D02*
X467758D01*
X460358D02*
Y158408D01*
X166117Y150870D02*
X199010D01*
X166371Y135376D02*
X199264D01*
X251300Y156050D02*
Y167050D01*
Y156050D02*
X258700D01*
Y167050D01*
X251300D02*
X258700D01*
X239000Y139300D02*
Y146700D01*
X228000Y139300D02*
X239000D01*
X228000D02*
Y146700D01*
X239000D01*
X228000Y146800D02*
Y154200D01*
X239000D01*
Y146800D02*
Y154200D01*
X228000Y146800D02*
X239000D01*
X251300Y178050D02*
X258700D01*
Y167050D02*
Y178050D01*
X251300Y167050D02*
X258700D01*
X251300D02*
Y178050D01*
X152456Y146120D02*
Y179648D01*
X132898Y145866D02*
Y179394D01*
X82630Y118117D02*
Y151010D01*
X98124Y118371D02*
Y151264D01*
X580715Y107791D02*
X610814D01*
Y126078D01*
X610721Y126171D02*
X610814Y126078D01*
X580710Y126171D02*
X610721D01*
X580715Y107791D02*
Y126078D01*
X585945Y149370D02*
X618838D01*
X586199Y133876D02*
X619091D01*
X540854Y93074D02*
X551854D01*
Y100474D01*
X540854D02*
X551854D01*
X540854Y93074D02*
Y100474D01*
Y91584D02*
X551854D01*
X540854Y84184D02*
Y91584D01*
Y84184D02*
X551854D01*
Y91584D01*
X222950Y122300D02*
X233950D01*
Y129700D01*
X222950D02*
X233950D01*
X222950Y122300D02*
Y129700D01*
X222900Y121200D02*
X233900D01*
X222900Y113800D02*
Y121200D01*
Y113800D02*
X233900D01*
Y121200D01*
X294620Y125740D02*
Y158633D01*
X279126Y125486D02*
Y158379D01*
X539108Y130050D02*
Y148846D01*
X539117Y130050D02*
X556138D01*
Y148846D01*
X539166D02*
X556138D01*
X507998Y76574D02*
X526794D01*
Y76582D02*
Y93604D01*
X507998D02*
X526794D01*
X507998Y76632D02*
Y93604D01*
X545086Y51188D02*
X563882D01*
X545086Y34158D02*
Y51179D01*
Y34158D02*
X563882D01*
Y51129D01*
X537354Y118198D02*
Y129198D01*
X529954D02*
X537354D01*
X529954Y118198D02*
Y129198D01*
Y118198D02*
X537354D01*
X562190Y135780D02*
X573190D01*
X562190Y128380D02*
Y135780D01*
Y128380D02*
X573190D01*
Y135780D01*
X511666Y97370D02*
Y108370D01*
Y97370D02*
X519066D01*
Y108370D01*
X511666D02*
X519066D01*
X525360Y133460D02*
X536360D01*
Y140860D01*
X525360D02*
X536360D01*
X525360Y133460D02*
Y140860D01*
X562190Y144924D02*
X573190D01*
X562190Y137524D02*
Y144924D01*
Y137524D02*
X573190D01*
Y144924D01*
X532726Y45102D02*
X543726D01*
X532726Y37702D02*
Y45102D01*
Y37702D02*
X543726D01*
Y45102D01*
X565492Y41004D02*
X576492D01*
Y48404D01*
X565492D02*
X576492D01*
X565492Y41004D02*
Y48404D01*
X494430Y87012D02*
X505430D01*
X494430Y79612D02*
Y87012D01*
Y79612D02*
X505430D01*
Y87012D01*
X518200Y30300D02*
Y41300D01*
X510800D02*
X518200D01*
X510800Y30300D02*
Y41300D01*
Y30300D02*
X518200D01*
X493200D02*
Y41300D01*
X485800D02*
X493200D01*
X485800Y30300D02*
Y41300D01*
Y30300D02*
X493200D01*
X468200D02*
Y41300D01*
X460800D02*
X468200D01*
X460800Y30300D02*
Y41300D01*
Y30300D02*
X468200D01*
X520050Y97250D02*
Y108250D01*
Y97250D02*
X527450D01*
Y108250D01*
X520050D02*
X527450D01*
X485758Y147408D02*
Y158408D01*
Y147408D02*
X493158D01*
Y158408D01*
X485758D02*
X493158D01*
X510396Y147408D02*
Y158408D01*
Y147408D02*
X517796D01*
Y158408D01*
X510396D02*
X517796D01*
X549292Y151218D02*
Y162218D01*
X541892D02*
X549292D01*
X541892Y151218D02*
Y162218D01*
Y151218D02*
X549292D01*
X545956Y118198D02*
Y129198D01*
Y118198D02*
X553356D01*
Y129198D01*
X545956D02*
X553356D01*
X527900Y83676D02*
X538900D01*
Y91076D01*
X527900D02*
X538900D01*
X527900Y83676D02*
Y91076D01*
X249250Y148000D02*
Y152998D01*
X246751D01*
X245918Y152165D01*
Y150499D01*
X246751Y149666D01*
X249250D01*
X247584D02*
X245918Y148000D01*
X244252Y152165D02*
X243419Y152998D01*
X241752D01*
X240919Y152165D01*
Y151332D01*
X241752Y150499D01*
X242586D01*
X241752D01*
X240919Y149666D01*
Y148833D01*
X241752Y148000D01*
X243419D01*
X244252Y148833D01*
X266500Y177500D02*
Y182498D01*
X264001D01*
X263168Y181665D01*
Y179999D01*
X264001Y179166D01*
X266500D01*
X264834D02*
X263168Y177500D01*
X261502D02*
X259835D01*
X260669D01*
Y182498D01*
X261502Y181665D01*
X224168Y178333D02*
Y181665D01*
X225001Y182498D01*
X226667D01*
X227500Y181665D01*
Y178333D01*
X226667Y177500D01*
X225001D01*
X225834Y179166D02*
X224168Y177500D01*
X225001D02*
X224168Y178333D01*
X219169Y182498D02*
X222502D01*
Y179999D01*
X220835Y180832D01*
X220002D01*
X219169Y179999D01*
Y178333D01*
X220002Y177500D01*
X221669D01*
X222502Y178333D01*
X452500Y144500D02*
X457498D01*
Y146999D01*
X456665Y147832D01*
X454999D01*
X454166Y146999D01*
Y144500D01*
Y146166D02*
X452500Y147832D01*
Y152831D02*
Y149498D01*
X455832Y152831D01*
X456665D01*
X457498Y151997D01*
Y150331D01*
X456665Y149498D01*
Y154497D02*
X457498Y155330D01*
Y156996D01*
X456665Y157829D01*
X455832D01*
X454999Y156996D01*
X454166Y157829D01*
X453333D01*
X452500Y156996D01*
Y155330D01*
X453333Y154497D01*
X454166D01*
X454999Y155330D01*
X455832Y154497D01*
X456665D01*
X454999Y155330D02*
Y156996D01*
X198278Y68881D02*
X197445Y68048D01*
X195779D01*
X194946Y68881D01*
Y69714D01*
X195779Y70547D01*
X197445D01*
X198278Y71380D01*
Y72213D01*
X197445Y73046D01*
X195779D01*
X194946Y72213D01*
X199944Y73046D02*
X201611D01*
X200777D01*
Y68048D01*
X199944Y68881D01*
X76415Y170832D02*
X77248Y169999D01*
Y168333D01*
X76415Y167500D01*
X73083D01*
X72250Y168333D01*
Y169999D01*
X73083Y170832D01*
X72250Y172498D02*
Y174165D01*
Y173331D01*
X77248D01*
X76415Y172498D01*
X75915Y138332D02*
X76748Y137499D01*
Y135833D01*
X75915Y135000D01*
X72583D01*
X71750Y135833D01*
Y137499D01*
X72583Y138332D01*
X71750Y143331D02*
Y139998D01*
X75082Y143331D01*
X75915D01*
X76748Y142498D01*
Y140831D01*
X75915Y139998D01*
X82665Y160582D02*
X83498Y159749D01*
Y158083D01*
X82665Y157250D01*
X79333D01*
X78500Y158083D01*
Y159749D01*
X79333Y160582D01*
X82665Y162248D02*
X83498Y163081D01*
Y164748D01*
X82665Y165581D01*
X81832D01*
X80999Y164748D01*
Y163915D01*
Y164748D01*
X80166Y165581D01*
X79333D01*
X78500Y164748D01*
Y163081D01*
X79333Y162248D01*
X60915Y55082D02*
X61748Y54249D01*
Y52583D01*
X60915Y51750D01*
X57583D01*
X56750Y52583D01*
Y54249D01*
X57583Y55082D01*
X56750Y60081D02*
Y56748D01*
X60082Y60081D01*
X60915D01*
X61748Y59248D01*
Y57581D01*
X60915Y56748D01*
Y61747D02*
X61748Y62580D01*
Y64246D01*
X60915Y65079D01*
X57583D01*
X56750Y64246D01*
Y62580D01*
X57583Y61747D01*
X60915D01*
X69915Y61832D02*
X70748Y60999D01*
Y59333D01*
X69915Y58500D01*
X66583D01*
X65750Y59333D01*
Y60999D01*
X66583Y61832D01*
X65750Y66831D02*
Y63498D01*
X69082Y66831D01*
X69915D01*
X70748Y65998D01*
Y64331D01*
X69915Y63498D01*
X65750Y68497D02*
Y70163D01*
Y69330D01*
X70748D01*
X69915Y68497D01*
X549626Y75285D02*
X550459Y76118D01*
X552125D01*
X552958Y75285D01*
Y71953D01*
X552125Y71120D01*
X550459D01*
X549626Y71953D01*
X544627Y71120D02*
X547960D01*
X544627Y74452D01*
Y75285D01*
X545461Y76118D01*
X547127D01*
X547960Y75285D01*
X542961D02*
X542128Y76118D01*
X540462D01*
X539629Y75285D01*
Y74452D01*
X540462Y73619D01*
X539629Y72786D01*
Y71953D01*
X540462Y71120D01*
X542128D01*
X542961Y71953D01*
Y72786D01*
X542128Y73619D01*
X542961Y74452D01*
Y75285D01*
X542128Y73619D02*
X540462D01*
X248168Y111915D02*
X249001Y112748D01*
X250667D01*
X251500Y111915D01*
Y108583D01*
X250667Y107750D01*
X249001D01*
X248168Y108583D01*
X243169Y107750D02*
X246502D01*
X243169Y111082D01*
Y111915D01*
X244002Y112748D01*
X245669D01*
X246502Y111915D01*
X241503Y108583D02*
X240670Y107750D01*
X239004D01*
X238171Y108583D01*
Y111915D01*
X239004Y112748D01*
X240670D01*
X241503Y111915D01*
Y111082D01*
X240670Y110249D01*
X238171D01*
X92498Y106750D02*
X87500D01*
Y109249D01*
X88333Y110082D01*
X91665D01*
X92498Y109249D01*
Y106750D01*
X87500Y111748D02*
Y113414D01*
Y112581D01*
X92498D01*
X91665Y111748D01*
X596499Y156749D02*
Y151750D01*
X594000D01*
X593167Y152583D01*
Y155915D01*
X594000Y156749D01*
X596499D01*
X588169Y151750D02*
X591501D01*
X588169Y155082D01*
Y155915D01*
X589002Y156749D01*
X590668D01*
X591501Y155915D01*
X198250Y132998D02*
Y128000D01*
X195751D01*
X194918Y128833D01*
Y132165D01*
X195751Y132998D01*
X198250D01*
X193252Y132165D02*
X192419Y132998D01*
X190753D01*
X189919Y132165D01*
Y131332D01*
X190753Y130499D01*
X191586D01*
X190753D01*
X189919Y129666D01*
Y128833D01*
X190753Y128000D01*
X192419D01*
X193252Y128833D01*
X271588Y147076D02*
X276586D01*
Y144577D01*
X275753Y143744D01*
X272421D01*
X271588Y144577D01*
Y147076D01*
X276586Y139579D02*
X271588D01*
X274087Y142078D01*
Y138745D01*
X4146Y93442D02*
Y95108D01*
Y94275D01*
X8311D01*
X9144Y95108D01*
Y95941D01*
X8311Y96774D01*
X9144Y88443D02*
Y91776D01*
X5812Y88443D01*
X4979D01*
X4146Y89277D01*
Y90943D01*
X4979Y91776D01*
X155000Y133250D02*
X159998D01*
Y135749D01*
X159165Y136582D01*
X157499D01*
X156666Y135749D01*
Y133250D01*
X155000Y138248D02*
X158332D01*
X159998Y139915D01*
X158332Y141581D01*
X155000D01*
X157499D01*
Y138248D01*
X159998Y143247D02*
X155000D01*
Y145746D01*
X155833Y146579D01*
X159165D01*
X159998Y145746D01*
Y143247D01*
X155000Y148245D02*
Y149911D01*
Y149078D01*
X159998D01*
X159165Y148245D01*
X208500Y132000D02*
X213498D01*
Y134499D01*
X212665Y135332D01*
X210999D01*
X210166Y134499D01*
Y132000D01*
X208500Y136998D02*
X211832D01*
X213498Y138665D01*
X211832Y140331D01*
X208500D01*
X210999D01*
Y136998D01*
X213498Y141997D02*
X208500D01*
Y144496D01*
X209333Y145329D01*
X212665D01*
X213498Y144496D01*
Y141997D01*
X208500Y150327D02*
Y146995D01*
X211832Y150327D01*
X212665D01*
X213498Y149494D01*
Y147828D01*
X212665Y146995D01*
X554960Y151963D02*
Y155295D01*
X555793Y156128D01*
X557459D01*
X558292Y155295D01*
Y151963D01*
X557459Y151130D01*
X555793D01*
X556626Y152796D02*
X554960Y151130D01*
X555793D02*
X554960Y151963D01*
X553294Y151130D02*
X551628D01*
X552461D01*
Y156128D01*
X553294Y155295D01*
X575224Y114465D02*
Y117797D01*
X576057Y118630D01*
X577723D01*
X578556Y117797D01*
Y114465D01*
X577723Y113632D01*
X576057D01*
X576890Y115298D02*
X575224Y113632D01*
X576057D02*
X575224Y114465D01*
X570225Y113632D02*
X573558D01*
X570225Y116964D01*
Y117797D01*
X571058Y118630D01*
X572725D01*
X573558Y117797D01*
X501918Y92333D02*
Y95665D01*
X502751Y96498D01*
X504417D01*
X505250Y95665D01*
Y92333D01*
X504417Y91500D01*
X502751D01*
X503584Y93166D02*
X501918Y91500D01*
X502751D02*
X501918Y92333D01*
X500252Y95665D02*
X499419Y96498D01*
X497752D01*
X496919Y95665D01*
Y94832D01*
X497752Y93999D01*
X498586D01*
X497752D01*
X496919Y93166D01*
Y92333D01*
X497752Y91500D01*
X499419D01*
X500252Y92333D01*
X559918Y28083D02*
Y31415D01*
X560751Y32248D01*
X562417D01*
X563250Y31415D01*
Y28083D01*
X562417Y27250D01*
X560751D01*
X561584Y28916D02*
X559918Y27250D01*
X560751D02*
X559918Y28083D01*
X558252Y31415D02*
X557419Y32248D01*
X555752D01*
X554919Y31415D01*
Y30582D01*
X555752Y29749D01*
X554919Y28916D01*
Y28083D01*
X555752Y27250D01*
X557419D01*
X558252Y28083D01*
Y28916D01*
X557419Y29749D01*
X558252Y30582D01*
Y31415D01*
X557419Y29749D02*
X555752D01*
X257500Y146000D02*
X262498D01*
Y148499D01*
X261665Y149332D01*
X259999D01*
X259166Y148499D01*
Y146000D01*
Y147666D02*
X257500Y149332D01*
X262498Y154331D02*
X261665Y152664D01*
X259999Y150998D01*
X258333D01*
X257500Y151831D01*
Y153497D01*
X258333Y154331D01*
X259166D01*
X259999Y153497D01*
Y150998D01*
X577500Y97250D02*
Y102248D01*
X575001D01*
X574168Y101415D01*
Y99749D01*
X575001Y98916D01*
X577500D01*
X575834D02*
X574168Y97250D01*
X572502Y102248D02*
X569169D01*
Y101415D01*
X572502Y98083D01*
Y97250D01*
X252750Y139750D02*
Y144748D01*
X250251D01*
X249418Y143915D01*
Y142249D01*
X250251Y141416D01*
X252750D01*
X251084D02*
X249418Y139750D01*
X247752D02*
X246085D01*
X246919D01*
Y144748D01*
X247752Y143915D01*
X243586Y144748D02*
X240254D01*
Y143915D01*
X243586Y140583D01*
Y139750D01*
X523500Y117500D02*
X528498D01*
Y119999D01*
X527665Y120832D01*
X525999D01*
X525166Y119999D01*
Y117500D01*
Y119166D02*
X523500Y120832D01*
Y125831D02*
Y122498D01*
X526832Y125831D01*
X527665D01*
X528498Y124998D01*
Y123331D01*
X527665Y122498D01*
Y127497D02*
X528498Y128330D01*
Y129996D01*
X527665Y130829D01*
X524333D01*
X523500Y129996D01*
Y128330D01*
X524333Y127497D01*
X527665D01*
X573532Y121412D02*
Y126410D01*
X571033D01*
X570200Y125577D01*
Y123911D01*
X571033Y123078D01*
X573532D01*
X571866D02*
X570200Y121412D01*
X565201D02*
X568534D01*
X565201Y124744D01*
Y125577D01*
X566035Y126410D01*
X567701D01*
X568534Y125577D01*
X563535Y121412D02*
X561869D01*
X562702D01*
Y126410D01*
X563535Y125577D01*
X512000Y112000D02*
X516998D01*
Y114499D01*
X516165Y115332D01*
X514499D01*
X513666Y114499D01*
Y112000D01*
Y113666D02*
X512000Y115332D01*
Y120331D02*
Y116998D01*
X515332Y120331D01*
X516165D01*
X516998Y119498D01*
Y117831D01*
X516165Y116998D01*
X512000Y125329D02*
Y121997D01*
X515332Y125329D01*
X516165D01*
X516998Y124496D01*
Y122830D01*
X516165Y121997D01*
X522750Y135250D02*
Y140248D01*
X520251D01*
X519418Y139415D01*
Y137749D01*
X520251Y136916D01*
X522750D01*
X521084D02*
X519418Y135250D01*
X514419D02*
X517752D01*
X514419Y138582D01*
Y139415D01*
X515252Y140248D01*
X516919D01*
X517752Y139415D01*
X512753D02*
X511920Y140248D01*
X510254D01*
X509421Y139415D01*
Y138582D01*
X510254Y137749D01*
X511087D01*
X510254D01*
X509421Y136916D01*
Y136083D01*
X510254Y135250D01*
X511920D01*
X512753Y136083D01*
X574802Y147574D02*
Y152572D01*
X572303D01*
X571470Y151739D01*
Y150073D01*
X572303Y149240D01*
X574802D01*
X573136D02*
X571470Y147574D01*
X566471D02*
X569804D01*
X566471Y150906D01*
Y151739D01*
X567304Y152572D01*
X568971D01*
X569804Y151739D01*
X562306Y147574D02*
Y152572D01*
X564805Y150073D01*
X561473D01*
X529250Y99000D02*
X534248D01*
Y101499D01*
X533415Y102332D01*
X531749D01*
X530916Y101499D01*
Y99000D01*
Y100666D02*
X529250Y102332D01*
Y103998D02*
Y105665D01*
Y104831D01*
X534248D01*
X533415Y103998D01*
X530083Y108164D02*
X529250Y108997D01*
Y110663D01*
X530083Y111496D01*
X533415D01*
X534248Y110663D01*
Y108997D01*
X533415Y108164D01*
X532582D01*
X531749Y108997D01*
Y111496D01*
X478250Y144750D02*
X483248D01*
Y147249D01*
X482415Y148082D01*
X480749D01*
X479916Y147249D01*
Y144750D01*
Y146416D02*
X478250Y148082D01*
Y153081D02*
Y149748D01*
X481582Y153081D01*
X482415D01*
X483248Y152247D01*
Y150581D01*
X482415Y149748D01*
X479083Y154747D02*
X478250Y155580D01*
Y157246D01*
X479083Y158079D01*
X482415D01*
X483248Y157246D01*
Y155580D01*
X482415Y154747D01*
X481582D01*
X480749Y155580D01*
Y158079D01*
X503500Y144500D02*
X508498D01*
Y146999D01*
X507665Y147832D01*
X505999D01*
X505166Y146999D01*
Y144500D01*
Y146166D02*
X503500Y147832D01*
X507665Y149498D02*
X508498Y150331D01*
Y151997D01*
X507665Y152831D01*
X506832D01*
X505999Y151997D01*
Y151165D01*
Y151997D01*
X505166Y152831D01*
X504333D01*
X503500Y151997D01*
Y150331D01*
X504333Y149498D01*
X507665Y154497D02*
X508498Y155330D01*
Y156996D01*
X507665Y157829D01*
X504333D01*
X503500Y156996D01*
Y155330D01*
X504333Y154497D01*
X507665D01*
X453250Y30250D02*
X458248D01*
Y32749D01*
X457415Y33582D01*
X455749D01*
X454916Y32749D01*
Y30250D01*
Y31916D02*
X453250Y33582D01*
X457415Y35248D02*
X458248Y36081D01*
Y37747D01*
X457415Y38581D01*
X456582D01*
X455749Y37747D01*
Y36915D01*
Y37747D01*
X454916Y38581D01*
X454083D01*
X453250Y37747D01*
Y36081D01*
X454083Y35248D01*
X453250Y42746D02*
X458248D01*
X455749Y40247D01*
Y43579D01*
X478000Y30250D02*
X482998D01*
Y32749D01*
X482165Y33582D01*
X480499D01*
X479666Y32749D01*
Y30250D01*
Y31916D02*
X478000Y33582D01*
X482165Y35248D02*
X482998Y36081D01*
Y37747D01*
X482165Y38581D01*
X481332D01*
X480499Y37747D01*
Y36915D01*
Y37747D01*
X479666Y38581D01*
X478833D01*
X478000Y37747D01*
Y36081D01*
X478833Y35248D01*
X482998Y43579D02*
Y40247D01*
X480499D01*
X481332Y41913D01*
Y42746D01*
X480499Y43579D01*
X478833D01*
X478000Y42746D01*
Y41080D01*
X478833Y40247D01*
X503500Y30500D02*
X508498D01*
Y32999D01*
X507665Y33832D01*
X505999D01*
X505166Y32999D01*
Y30500D01*
Y32166D02*
X503500Y33832D01*
X507665Y35498D02*
X508498Y36331D01*
Y37998D01*
X507665Y38831D01*
X506832D01*
X505999Y37998D01*
Y37164D01*
Y37998D01*
X505166Y38831D01*
X504333D01*
X503500Y37998D01*
Y36331D01*
X504333Y35498D01*
X508498Y43829D02*
X507665Y42163D01*
X505999Y40497D01*
X504333D01*
X503500Y41330D01*
Y42996D01*
X504333Y43829D01*
X505166D01*
X505999Y42996D01*
Y40497D01*
X539500Y115250D02*
X544498D01*
Y117749D01*
X543665Y118582D01*
X541999D01*
X541166Y117749D01*
Y115250D01*
Y116916D02*
X539500Y118582D01*
X543665Y120248D02*
X544498Y121081D01*
Y122748D01*
X543665Y123581D01*
X542832D01*
X541999Y122748D01*
Y121915D01*
Y122748D01*
X541166Y123581D01*
X540333D01*
X539500Y122748D01*
Y121081D01*
X540333Y120248D01*
X544498Y125247D02*
Y128579D01*
X543665D01*
X540333Y125247D01*
X539500D01*
X532500Y150500D02*
X537498D01*
Y152999D01*
X536665Y153832D01*
X534999D01*
X534166Y152999D01*
Y150500D01*
Y152166D02*
X532500Y153832D01*
X536665Y155498D02*
X537498Y156331D01*
Y157998D01*
X536665Y158831D01*
X535832D01*
X534999Y157998D01*
Y157164D01*
Y157998D01*
X534166Y158831D01*
X533333D01*
X532500Y157998D01*
Y156331D01*
X533333Y155498D01*
X536665Y160497D02*
X537498Y161330D01*
Y162996D01*
X536665Y163829D01*
X535832D01*
X534999Y162996D01*
X534166Y163829D01*
X533333D01*
X532500Y162996D01*
Y161330D01*
X533333Y160497D01*
X534166D01*
X534999Y161330D01*
X535832Y160497D01*
X536665D01*
X534999Y161330D02*
Y162996D01*
X535000Y81250D02*
X530002D01*
Y78751D01*
X530835Y77918D01*
X532501D01*
X533334Y78751D01*
Y81250D01*
Y79584D02*
X535000Y77918D01*
X530835Y76252D02*
X530002Y75419D01*
Y73752D01*
X530835Y72919D01*
X531668D01*
X532501Y73752D01*
Y74585D01*
Y73752D01*
X533334Y72919D01*
X534167D01*
X535000Y73752D01*
Y75419D01*
X534167Y76252D01*
Y71253D02*
X535000Y70420D01*
Y68754D01*
X534167Y67921D01*
X530835D01*
X530002Y68754D01*
Y70420D01*
X530835Y71253D01*
X531668D01*
X532501Y70420D01*
Y67921D01*
X541750Y48500D02*
Y53498D01*
X539251D01*
X538418Y52665D01*
Y50999D01*
X539251Y50166D01*
X541750D01*
X540084D02*
X538418Y48500D01*
X534252D02*
Y53498D01*
X536752Y50999D01*
X533419D01*
X531753Y52665D02*
X530920Y53498D01*
X529254D01*
X528421Y52665D01*
Y49333D01*
X529254Y48500D01*
X530920D01*
X531753Y49333D01*
Y52665D01*
X577476Y50976D02*
Y55974D01*
X574977D01*
X574144Y55141D01*
Y53475D01*
X574977Y52642D01*
X577476D01*
X575810D02*
X574144Y50976D01*
X569978D02*
Y55974D01*
X572478Y53475D01*
X569145D01*
X567479Y50976D02*
X565813D01*
X566646D01*
Y55974D01*
X567479Y55141D01*
X505250Y73000D02*
Y77998D01*
X502751D01*
X501918Y77165D01*
Y75499D01*
X502751Y74666D01*
X505250D01*
X503584D02*
X501918Y73000D01*
X497752D02*
Y77998D01*
X500252Y75499D01*
X496919D01*
X491921Y73000D02*
X495253D01*
X491921Y76332D01*
Y77165D01*
X492754Y77998D01*
X494420D01*
X495253Y77165D01*
X552450Y102870D02*
Y107868D01*
X549951D01*
X549118Y107035D01*
Y105369D01*
X549951Y104536D01*
X552450D01*
X550784D02*
X549118Y102870D01*
X544953D02*
Y107868D01*
X547452Y105369D01*
X544119D01*
X542453Y107035D02*
X541620Y107868D01*
X539954D01*
X539121Y107035D01*
Y106202D01*
X539954Y105369D01*
X540787D01*
X539954D01*
X539121Y104536D01*
Y103703D01*
X539954Y102870D01*
X541620D01*
X542453Y103703D01*
X567182Y85344D02*
Y90342D01*
X564683D01*
X563850Y89509D01*
Y87843D01*
X564683Y87010D01*
X567182D01*
X565516D02*
X563850Y85344D01*
X559684D02*
Y90342D01*
X562184Y87843D01*
X558851D01*
X554686Y85344D02*
Y90342D01*
X557185Y87843D01*
X553853D01*
X251750Y124000D02*
Y128998D01*
X249251D01*
X248418Y128165D01*
Y126499D01*
X249251Y125666D01*
X251750D01*
X250084D02*
X248418Y124000D01*
X244252D02*
Y128998D01*
X246752Y126499D01*
X243419D01*
X238421Y128998D02*
X241753D01*
Y126499D01*
X240087Y127332D01*
X239254D01*
X238421Y126499D01*
Y124833D01*
X239254Y124000D01*
X240920D01*
X241753Y124833D01*
X251750Y116250D02*
Y121248D01*
X249251D01*
X248418Y120415D01*
Y118749D01*
X249251Y117916D01*
X251750D01*
X250084D02*
X248418Y116250D01*
X244252D02*
Y121248D01*
X246752Y118749D01*
X243419D01*
X238421Y121248D02*
X240087Y120415D01*
X241753Y118749D01*
Y117083D01*
X240920Y116250D01*
X239254D01*
X238421Y117083D01*
Y117916D01*
X239254Y118749D01*
X241753D01*
X560250Y180998D02*
X556918D01*
X558584D01*
Y176000D01*
X555252D02*
Y180998D01*
X552752D01*
X551919Y180165D01*
Y178499D01*
X552752Y177666D01*
X555252D01*
X550253Y180165D02*
X549420Y180998D01*
X547754D01*
X546921Y180165D01*
Y179332D01*
X547754Y178499D01*
X546921Y177666D01*
Y176833D01*
X547754Y176000D01*
X549420D01*
X550253Y176833D01*
Y177666D01*
X549420Y178499D01*
X550253Y179332D01*
Y180165D01*
X549420Y178499D02*
X547754D01*
X543750Y180998D02*
X540418D01*
X542084D01*
Y176000D01*
X538752D02*
Y180998D01*
X536252D01*
X535419Y180165D01*
Y178499D01*
X536252Y177666D01*
X538752D01*
X533753Y176833D02*
X532920Y176000D01*
X531254D01*
X530421Y176833D01*
Y180165D01*
X531254Y180998D01*
X532920D01*
X533753Y180165D01*
Y179332D01*
X532920Y178499D01*
X530421D01*
X580000Y180748D02*
X576668D01*
X578334D01*
Y175750D01*
X575002D02*
Y180748D01*
X572503D01*
X571669Y179915D01*
Y178249D01*
X572503Y177416D01*
X575002D01*
X570003Y175750D02*
X568337D01*
X569170D01*
Y180748D01*
X570003Y179915D01*
X565838D02*
X565005Y180748D01*
X563339D01*
X562506Y179915D01*
Y176583D01*
X563339Y175750D01*
X565005D01*
X565838Y176583D01*
Y179915D01*
X105500Y170748D02*
X102168D01*
X103834D01*
Y165750D01*
X100502D02*
Y170748D01*
X98002D01*
X97169Y169915D01*
Y168249D01*
X98002Y167416D01*
X100502D01*
X95503Y165750D02*
X93837D01*
X94670D01*
Y170748D01*
X95503Y169915D01*
X88006Y165750D02*
X91338D01*
X88006Y169082D01*
Y169915D01*
X88839Y170748D01*
X90505D01*
X91338Y169915D01*
X118000Y140998D02*
X114668D01*
X116334D01*
Y136000D01*
X113002D02*
Y140998D01*
X110502D01*
X109669Y140165D01*
Y138499D01*
X110502Y137666D01*
X113002D01*
X108003Y136000D02*
X106337D01*
X107170D01*
Y140998D01*
X108003Y140165D01*
X103838D02*
X103005Y140998D01*
X101339D01*
X100506Y140165D01*
Y139332D01*
X101339Y138499D01*
X102172D01*
X101339D01*
X100506Y137666D01*
Y136833D01*
X101339Y136000D01*
X103005D01*
X103838Y136833D01*
X79000Y94748D02*
X75668D01*
X77334D01*
Y89750D01*
X74002D02*
Y94748D01*
X71502D01*
X70669Y93915D01*
Y92249D01*
X71502Y91416D01*
X74002D01*
X69003Y89750D02*
X67337D01*
X68170D01*
Y94748D01*
X69003Y93915D01*
X62339Y89750D02*
Y94748D01*
X64838Y92249D01*
X61506D01*
X70440Y160528D02*
X74605D01*
X75438Y159695D01*
Y158029D01*
X74605Y157196D01*
X70440D01*
X75438Y152197D02*
Y155530D01*
X72106Y152197D01*
X71273D01*
X70440Y153031D01*
Y154697D01*
X71273Y155530D01*
D92*
X345694Y168910D02*
X347980D01*
X321818D02*
X325628D01*
X432308Y168656D02*
X436118D01*
X414782D02*
X418592D01*
X402590D02*
X405892D01*
X378714D02*
X390144D01*
X352298D02*
X368046D01*
X345186D02*
X348234D01*
X337312D02*
X341376D01*
X321818D02*
X326136D01*
X309880D02*
X311912D01*
X432308Y168402D02*
X436118D01*
X414782D02*
X418592D01*
X402590D02*
X405892D01*
X377444D02*
X390144D01*
X352298D02*
X368046D01*
X345186D02*
X348488D01*
X337312D02*
X341376D01*
X321818D02*
X326136D01*
X309372D02*
X312420D01*
X432054Y168148D02*
X436118D01*
X414782D02*
X418846D01*
X402336D02*
X406146D01*
X376682D02*
X390144D01*
X352298D02*
X368046D01*
X344932D02*
X348488D01*
X337058D02*
X341122D01*
X322072D02*
X326390D01*
X308864D02*
X312928D01*
X432054Y167894D02*
X435864D01*
X415036D02*
X418846D01*
X402336D02*
X406146D01*
X376174D02*
X390144D01*
X352298D02*
X368046D01*
X344932D02*
X348488D01*
X336804D02*
X341122D01*
X322326D02*
X326390D01*
X308610D02*
X313182D01*
X432054Y167640D02*
X435864D01*
X415036D02*
X418846D01*
X402336D02*
X406146D01*
X375666D02*
X390144D01*
X352298D02*
X368046D01*
X344678D02*
X348742D01*
X336804D02*
X340868D01*
X322580D02*
X326644D01*
X308610D02*
X313182D01*
X431800Y167386D02*
X435610D01*
X415036D02*
X418846D01*
X402082D02*
X406400D01*
X375158D02*
X390144D01*
X352298D02*
X368046D01*
X344678D02*
X348742D01*
X336550D02*
X340614D01*
X322580D02*
X326898D01*
X308356D02*
X313436D01*
X431800Y167132D02*
X435610D01*
X415290D02*
X419100D01*
X402082D02*
X406400D01*
X374904D02*
X390144D01*
X352298D02*
X368046D01*
X344678D02*
X348742D01*
X336296D02*
X340614D01*
X322834D02*
X326898D01*
X308102D02*
X313690D01*
X431800Y166878D02*
X435610D01*
X415290D02*
X419100D01*
X402082D02*
X406400D01*
X374396D02*
X390144D01*
X352298D02*
X368046D01*
X344678D02*
X348742D01*
X336296D02*
X340360D01*
X322834D02*
X327152D01*
X308102D02*
X313690D01*
X431800Y166624D02*
X435356D01*
X415290D02*
X419354D01*
X401828D02*
X406654D01*
X374142D02*
X390144D01*
X352298D02*
X368046D01*
X344932D02*
X348488D01*
X336042D02*
X340106D01*
X323088D02*
X327406D01*
X308102D02*
X313944D01*
X431546Y166370D02*
X435356D01*
X415544D02*
X419354D01*
X401828D02*
X406654D01*
X373888D02*
X390144D01*
X352298D02*
X368046D01*
X344932D02*
X348488D01*
X335788D02*
X340106D01*
X323088D02*
X327406D01*
X308102D02*
X313944D01*
X431546Y166116D02*
X435356D01*
X415544D02*
X419354D01*
X401574D02*
X406908D01*
X373634D02*
X390144D01*
X352298D02*
X368046D01*
X344932D02*
X348488D01*
X335788D02*
X339852D01*
X323342D02*
X327660D01*
X307848D02*
X313944D01*
X431292Y165862D02*
X435102D01*
X415798D02*
X419608D01*
X401574D02*
X406908D01*
X386588D02*
X390144D01*
X373380D02*
X379984D01*
X364490D02*
X368046D01*
X345186D02*
X348234D01*
X335534D02*
X339852D01*
X323596D02*
X327660D01*
X307340D02*
X314452D01*
X431292Y165608D02*
X435102D01*
X415798D02*
X419608D01*
X401320D02*
X407162D01*
X386588D02*
X390144D01*
X373380D02*
X378714D01*
X364490D02*
X368046D01*
X345694D02*
X347980D01*
X335534D02*
X339598D01*
X323850D02*
X327914D01*
X306832D02*
X314960D01*
X431292Y165354D02*
X434848D01*
X415798D02*
X419608D01*
X401320D02*
X407162D01*
X386588D02*
X390144D01*
X373126D02*
X378206D01*
X364490D02*
X368046D01*
X346202D02*
X347218D01*
X335280D02*
X339344D01*
X323850D02*
X328168D01*
X306324D02*
X315468D01*
X431038Y165100D02*
X434848D01*
X416052D02*
X419862D01*
X401320D02*
X407162D01*
X386588D02*
X390144D01*
X373126D02*
X377698D01*
X364490D02*
X368046D01*
X335026D02*
X339090D01*
X324104D02*
X328168D01*
X305816D02*
X315976D01*
X431038Y164846D02*
X434848D01*
X416052D02*
X419862D01*
X401320D02*
X407162D01*
X386588D02*
X390144D01*
X372872D02*
X377190D01*
X364490D02*
X368046D01*
X335026D02*
X339090D01*
X324104D02*
X328422D01*
X313944D02*
X316230D01*
X308356D02*
X313690D01*
X305562D02*
X308102D01*
X431038Y164592D02*
X434594D01*
X416306D02*
X419862D01*
X401066D02*
X407416D01*
X386588D02*
X390144D01*
X372618D02*
X376936D01*
X364490D02*
X368046D01*
X334772D02*
X338836D01*
X324358D02*
X328676D01*
X314452D02*
X316738D01*
X308356D02*
X313436D01*
X305054D02*
X307340D01*
X430784Y164338D02*
X434594D01*
X416306D02*
X420116D01*
X401066D02*
X407416D01*
X386588D02*
X390144D01*
X372618D02*
X376682D01*
X364490D02*
X368046D01*
X334518D02*
X338836D01*
X324612D02*
X328676D01*
X314960D02*
X316992D01*
X308610D02*
X313436D01*
X304800D02*
X306832D01*
X430784Y164084D02*
X434594D01*
X416306D02*
X420116D01*
X404368D02*
X407670D01*
X400812D02*
X404114D01*
X386588D02*
X390144D01*
X372364D02*
X376428D01*
X364490D02*
X368046D01*
X334518D02*
X338582D01*
X324612D02*
X328930D01*
X315468D02*
X317246D01*
X308610D02*
X313182D01*
X304546D02*
X306578D01*
X430530Y163830D02*
X434340D01*
X416560D02*
X420116D01*
X404368D02*
X407670D01*
X400812D02*
X404114D01*
X386588D02*
X390144D01*
X372364D02*
X376174D01*
X364490D02*
X368046D01*
X334264D02*
X338328D01*
X324866D02*
X328930D01*
X315722D02*
X317500D01*
X308864D02*
X312928D01*
X304292D02*
X306070D01*
X430530Y163576D02*
X434340D01*
X416560D02*
X420370D01*
X404368D02*
X407924D01*
X400558D02*
X404114D01*
X386588D02*
X390144D01*
X372364D02*
X376174D01*
X364490D02*
X368046D01*
X334010D02*
X338328D01*
X325120D02*
X329184D01*
X315976D02*
X317754D01*
X309118D02*
X312674D01*
X304038D02*
X305816D01*
X430530Y163322D02*
X434086D01*
X416560D02*
X420370D01*
X404622D02*
X407924D01*
X400558D02*
X403860D01*
X386588D02*
X390144D01*
X372364D02*
X375920D01*
X364490D02*
X368046D01*
X334010D02*
X338074D01*
X325120D02*
X329438D01*
X316484D02*
X318008D01*
X309626D02*
X312166D01*
X303784D02*
X305562D01*
X430276Y163068D02*
X434086D01*
X416814D02*
X420370D01*
X404622D02*
X407924D01*
X400558D02*
X403860D01*
X386588D02*
X390144D01*
X372364D02*
X375920D01*
X364490D02*
X368046D01*
X333756D02*
X337820D01*
X325374D02*
X329438D01*
X316738D02*
X318262D01*
X310642D02*
X311404D01*
X303530D02*
X305054D01*
X430276Y162814D02*
X434086D01*
X416814D02*
X420624D01*
X404876D02*
X408178D01*
X400304D02*
X403606D01*
X386588D02*
X390144D01*
X372110D02*
X375920D01*
X364490D02*
X368046D01*
X333502D02*
X337820D01*
X325628D02*
X329692D01*
X316992D02*
X318516D01*
X303530D02*
X304800D01*
X430276Y162560D02*
X433832D01*
X417068D02*
X420624D01*
X404876D02*
X408178D01*
X400304D02*
X403606D01*
X386588D02*
X390144D01*
X372110D02*
X375666D01*
X364490D02*
X368046D01*
X333502D02*
X337566D01*
X325628D02*
X329692D01*
X317246D02*
X318516D01*
X303276D02*
X304800D01*
X430276Y162306D02*
X433832D01*
X417068D02*
X420878D01*
X404876D02*
X408432D01*
X400050D02*
X403606D01*
X386588D02*
X390144D01*
X372110D02*
X375666D01*
X364490D02*
X368046D01*
X344932D02*
X348488D01*
X333248D02*
X337566D01*
X325882D02*
X329692D01*
X317246D02*
X318770D01*
X303022D02*
X304292D01*
X430022Y162052D02*
X433832D01*
X417068D02*
X420878D01*
X405130D02*
X408432D01*
X400050D02*
X403352D01*
X386588D02*
X390144D01*
X372110D02*
X375666D01*
X364490D02*
X368046D01*
X344932D02*
X348488D01*
X333248D02*
X337312D01*
X326136D02*
X329692D01*
X317500D02*
X319024D01*
X302768D02*
X304292D01*
X430022Y161798D02*
X433578D01*
X417322D02*
X420878D01*
X405130D02*
X408432D01*
X400050D02*
X403352D01*
X386588D02*
X390144D01*
X372110D02*
X375666D01*
X364490D02*
X368046D01*
X344932D02*
X348488D01*
X332994D02*
X337058D01*
X326136D02*
X329438D01*
X317754D02*
X319278D01*
X302768D02*
X304038D01*
X429768Y161544D02*
X433578D01*
X417322D02*
X420878D01*
X405130D02*
X408686D01*
X399796D02*
X403352D01*
X386588D02*
X390144D01*
X372110D02*
X375412D01*
X364490D02*
X368046D01*
X344932D02*
X348488D01*
X332740D02*
X336804D01*
X326390D02*
X329438D01*
X318008D02*
X319278D01*
X302514D02*
X303784D01*
X429768Y161290D02*
X433324D01*
X417322D02*
X421132D01*
X405384D02*
X408686D01*
X399796D02*
X403098D01*
X386588D02*
X390144D01*
X372110D02*
X375412D01*
X364490D02*
X368046D01*
X344932D02*
X348488D01*
X332740D02*
X336804D01*
X326644D02*
X329184D01*
X318008D02*
X319532D01*
X302514D02*
X303784D01*
X429768Y161036D02*
X433324D01*
X417576D02*
X421132D01*
X405384D02*
X408686D01*
X399796D02*
X403098D01*
X386588D02*
X390144D01*
X372110D02*
X375412D01*
X364490D02*
X368046D01*
X344932D02*
X348488D01*
X332486D02*
X336550D01*
X326644D02*
X328930D01*
X318262D02*
X319532D01*
X302260D02*
X303530D01*
X429514Y160782D02*
X433324D01*
X417576D02*
X421386D01*
X405638D02*
X408940D01*
X399542D02*
X402844D01*
X386588D02*
X390144D01*
X372110D02*
X375412D01*
X364490D02*
X368046D01*
X344932D02*
X348488D01*
X332232D02*
X336550D01*
X326898D02*
X328930D01*
X318262D02*
X319532D01*
X302260D02*
X303530D01*
X429514Y160528D02*
X433324D01*
X417576D02*
X421386D01*
X405638D02*
X408940D01*
X399542D02*
X402844D01*
X386588D02*
X390144D01*
X372110D02*
X375666D01*
X364490D02*
X368046D01*
X344932D02*
X348488D01*
X332232D02*
X336296D01*
X326898D02*
X328676D01*
X318516D02*
X319786D01*
X302006D02*
X303276D01*
X429514Y160274D02*
X433070D01*
X417830D02*
X421386D01*
X405638D02*
X409194D01*
X399288D02*
X402844D01*
X386588D02*
X390144D01*
X372110D02*
X375666D01*
X364490D02*
X368046D01*
X344932D02*
X348488D01*
X331978D02*
X336042D01*
X327152D02*
X328422D01*
X318516D02*
X319786D01*
X302006D02*
X303276D01*
X429260Y160020D02*
X433070D01*
X417830D02*
X421640D01*
X405638D02*
X409194D01*
X399288D02*
X402590D01*
X386588D02*
X390144D01*
X372110D02*
X375666D01*
X364490D02*
X368046D01*
X344932D02*
X348488D01*
X331724D02*
X336042D01*
X327406D02*
X328422D01*
X318770D02*
X320040D01*
X302006D02*
X303022D01*
X429260Y159766D02*
X432816D01*
X418084D02*
X421640D01*
X405892D02*
X409194D01*
X399288D02*
X402590D01*
X386588D02*
X390144D01*
X372110D02*
X375666D01*
X364490D02*
X368046D01*
X344932D02*
X348488D01*
X331724D02*
X335788D01*
X327406D02*
X328168D01*
X318516D02*
X321056D01*
X300736D02*
X303276D01*
X429260Y159512D02*
X432816D01*
X418084D02*
X421640D01*
X405892D02*
X409194D01*
X399034D02*
X402590D01*
X386588D02*
X390144D01*
X372110D02*
X375666D01*
X364490D02*
X368046D01*
X344932D02*
X348488D01*
X331470D02*
X335534D01*
X327660D02*
X328168D01*
X318262D02*
X321564D01*
X300228D02*
X303784D01*
X429006Y159258D02*
X432562D01*
X418084D02*
X421894D01*
X406146D02*
X409448D01*
X399034D02*
X402336D01*
X386588D02*
X390144D01*
X372110D02*
X375920D01*
X364490D02*
X368046D01*
X344932D02*
X348488D01*
X331216D02*
X335534D01*
X318008D02*
X321818D01*
X299974D02*
X304038D01*
X429006Y159004D02*
X432562D01*
X418338D02*
X421894D01*
X406146D02*
X409448D01*
X399034D02*
X402336D01*
X386588D02*
X390144D01*
X372364D02*
X375920D01*
X364490D02*
X368046D01*
X344932D02*
X348488D01*
X331216D02*
X335280D01*
X317754D02*
X322072D01*
X299720D02*
X304292D01*
X429006Y158750D02*
X432562D01*
X418338D02*
X421894D01*
X406400D02*
X409702D01*
X398780D02*
X402082D01*
X386588D02*
X390144D01*
X372364D02*
X375920D01*
X364490D02*
X368046D01*
X344932D02*
X348488D01*
X330962D02*
X335026D01*
X317246D02*
X322326D01*
X299466D02*
X304292D01*
X428752Y158496D02*
X432562D01*
X418338D02*
X422148D01*
X406400D02*
X409702D01*
X398780D02*
X402082D01*
X386588D02*
X390144D01*
X372364D02*
X376174D01*
X364490D02*
X368046D01*
X344932D02*
X348488D01*
X330962D02*
X335026D01*
X317246D02*
X322326D01*
X299466D02*
X304546D01*
X428752Y158242D02*
X432308D01*
X418592D02*
X422148D01*
X406400D02*
X409956D01*
X398526D02*
X402082D01*
X386588D02*
X390144D01*
X372364D02*
X376428D01*
X353822D02*
X368046D01*
X344932D02*
X348488D01*
X330708D02*
X334772D01*
X317246D02*
X322580D01*
X299212D02*
X304800D01*
X428752Y157988D02*
X432308D01*
X418592D02*
X422402D01*
X406400D02*
X409956D01*
X398526D02*
X402082D01*
X386588D02*
X390144D01*
X372618D02*
X376682D01*
X353822D02*
X368046D01*
X344932D02*
X348488D01*
X330454D02*
X334518D01*
X316992D02*
X322580D01*
X299212D02*
X304800D01*
X428498Y157734D02*
X432054D01*
X418592D02*
X422402D01*
X406654D02*
X409956D01*
X398526D02*
X401828D01*
X386588D02*
X390144D01*
X372618D02*
X376682D01*
X353822D02*
X368046D01*
X344932D02*
X348488D01*
X330454D02*
X334518D01*
X316992D02*
X322580D01*
X299212D02*
X304800D01*
X428498Y157480D02*
X432054D01*
X418846D02*
X422402D01*
X406654D02*
X410210D01*
X398272D02*
X401828D01*
X386588D02*
X390144D01*
X372872D02*
X377190D01*
X353822D02*
X368046D01*
X344932D02*
X348488D01*
X330200D02*
X334264D01*
X316992D02*
X322834D01*
X299212D02*
X305054D01*
X428498Y157226D02*
X431800D01*
X418846D02*
X422402D01*
X406908D02*
X410210D01*
X398272D02*
X401574D01*
X386588D02*
X390144D01*
X372872D02*
X377698D01*
X353822D02*
X368046D01*
X344932D02*
X348488D01*
X329946D02*
X334010D01*
X316992D02*
X322834D01*
X299212D02*
X305054D01*
X428244Y156972D02*
X431800D01*
X419100D02*
X422656D01*
X406908D02*
X410210D01*
X398272D02*
X401574D01*
X386588D02*
X390144D01*
X373126D02*
X377952D01*
X353822D02*
X368046D01*
X344932D02*
X348488D01*
X329946D02*
X334010D01*
X316992D02*
X322834D01*
X299212D02*
X305054D01*
X428244Y156718D02*
X431800D01*
X419100D02*
X422656D01*
X406908D02*
X410464D01*
X398018D02*
X401574D01*
X386588D02*
X390144D01*
X373126D02*
X378968D01*
X353822D02*
X368046D01*
X344932D02*
X348488D01*
X329692D02*
X333756D01*
X316992D02*
X322834D01*
X299212D02*
X305054D01*
X428244Y156464D02*
X431800D01*
X419354D02*
X422910D01*
X407162D02*
X410464D01*
X398018D02*
X401320D01*
X373380D02*
X390144D01*
X353822D02*
X368046D01*
X344932D02*
X348488D01*
X329692D02*
X333756D01*
X316992D02*
X322580D01*
X299212D02*
X304800D01*
X427990Y156210D02*
X431546D01*
X419354D02*
X422910D01*
X407162D02*
X410718D01*
X397764D02*
X401320D01*
X373634D02*
X390144D01*
X353822D02*
X368046D01*
X344932D02*
X348488D01*
X329692D02*
X333756D01*
X316992D02*
X322580D01*
X299212D02*
X304800D01*
X427990Y155956D02*
X431546D01*
X419354D02*
X422910D01*
X407162D02*
X410718D01*
X397764D02*
X401320D01*
X373888D02*
X390144D01*
X353822D02*
X368046D01*
X344932D02*
X348488D01*
X329692D02*
X334010D01*
X317246D02*
X322580D01*
X299212D02*
X304800D01*
X427990Y155702D02*
X431292D01*
X419354D02*
X423164D01*
X407416D02*
X410718D01*
X397764D02*
X401066D01*
X374142D02*
X390144D01*
X353822D02*
X368046D01*
X344932D02*
X348488D01*
X329946D02*
X334264D01*
X317246D02*
X322580D01*
X299466D02*
X304546D01*
X427736Y155448D02*
X431292D01*
X419608D02*
X423164D01*
X407416D02*
X410972D01*
X397510D02*
X401066D01*
X374396D02*
X390144D01*
X353822D02*
X368046D01*
X344932D02*
X348488D01*
X330200D02*
X334264D01*
X317500D02*
X322326D01*
X299466D02*
X304546D01*
X427736Y155194D02*
X431038D01*
X419608D02*
X423164D01*
X407670D02*
X410972D01*
X397510D02*
X400812D01*
X374650D02*
X390144D01*
X364490D02*
X368046D01*
X344932D02*
X348488D01*
X330200D02*
X334518D01*
X317500D02*
X322072D01*
X299720D02*
X304292D01*
X427482Y154940D02*
X431038D01*
X419862D02*
X423164D01*
X407670D02*
X411226D01*
X397256D02*
X400812D01*
X375158D02*
X390144D01*
X364490D02*
X368046D01*
X344932D02*
X348488D01*
X330454D02*
X334772D01*
X317754D02*
X321818D01*
X299974D02*
X304038D01*
X427482Y154686D02*
X431038D01*
X419862D02*
X423418D01*
X407670D02*
X411226D01*
X397256D02*
X400812D01*
X375412D02*
X390144D01*
X364490D02*
X368046D01*
X344932D02*
X348488D01*
X330454D02*
X334772D01*
X318262D02*
X321564D01*
X300228D02*
X303784D01*
X427482Y154432D02*
X431038D01*
X420116D02*
X423418D01*
X407924D02*
X411480D01*
X397256D02*
X400558D01*
X376174D02*
X390144D01*
X364490D02*
X368046D01*
X344932D02*
X348488D01*
X330708D02*
X335026D01*
X318770D02*
X321056D01*
X300736D02*
X303276D01*
X427482Y154178D02*
X430784D01*
X420116D02*
X423672D01*
X407924D02*
X411480D01*
X397002D02*
X400558D01*
X376682D02*
X390144D01*
X364490D02*
X368046D01*
X344932D02*
X348488D01*
X330962D02*
X335280D01*
X318770D02*
X320294D01*
X301752D02*
X303022D01*
X427228Y153924D02*
X430784D01*
X420116D02*
X423672D01*
X407924D02*
X411480D01*
X397002D02*
X400558D01*
X377444D02*
X390144D01*
X364490D02*
X368046D01*
X344932D02*
X348488D01*
X331216D02*
X335280D01*
X318516D02*
X319786D01*
X302006D02*
X303276D01*
X427228Y153670D02*
X430530D01*
X420116D02*
X423672D01*
X408178D02*
X411480D01*
X397002D02*
X400304D01*
X379222D02*
X390144D01*
X364490D02*
X368046D01*
X344932D02*
X348488D01*
X331216D02*
X335534D01*
X318516D02*
X319786D01*
X302006D02*
X303276D01*
X426974Y153416D02*
X430530D01*
X420370D02*
X423926D01*
X408178D02*
X411734D01*
X396748D02*
X400304D01*
X386588D02*
X390144D01*
X364490D02*
X368046D01*
X344932D02*
X348488D01*
X331470D02*
X335534D01*
X327660D02*
X328168D01*
X318516D02*
X319532D01*
X302006D02*
X303530D01*
X426974Y153162D02*
X430276D01*
X420370D02*
X423926D01*
X396748D02*
X411734D01*
X386588D02*
X390144D01*
X364490D02*
X368046D01*
X344932D02*
X348488D01*
X331724D02*
X335788D01*
X327406D02*
X328168D01*
X318262D02*
X319532D01*
X302260D02*
X303530D01*
X426720Y152908D02*
X430276D01*
X420624D02*
X423926D01*
X396494D02*
X411988D01*
X386588D02*
X390144D01*
X364490D02*
X368046D01*
X344932D02*
X348488D01*
X331724D02*
X336042D01*
X327406D02*
X328422D01*
X318008D02*
X319532D01*
X302514D02*
X303784D01*
X426720Y152654D02*
X430276D01*
X420624D02*
X424180D01*
X396494D02*
X411988D01*
X386588D02*
X390144D01*
X364490D02*
X368046D01*
X344932D02*
X348488D01*
X331978D02*
X336296D01*
X327152D02*
X328422D01*
X318008D02*
X319278D01*
X302514D02*
X303784D01*
X426720Y152400D02*
X430276D01*
X420878D02*
X424180D01*
X396240D02*
X411988D01*
X386588D02*
X390144D01*
X364490D02*
X368046D01*
X344932D02*
X348488D01*
X332232D02*
X336296D01*
X326898D02*
X328676D01*
X317754D02*
X319024D01*
X302768D02*
X304038D01*
X426720Y152146D02*
X430022D01*
X420878D02*
X424434D01*
X396240D02*
X412242D01*
X386588D02*
X390144D01*
X364490D02*
X368046D01*
X344932D02*
X348488D01*
X332232D02*
X336550D01*
X326898D02*
X328930D01*
X317500D02*
X319024D01*
X302768D02*
X304292D01*
X426466Y151892D02*
X430022D01*
X420878D02*
X424434D01*
X396240D02*
X412242D01*
X386588D02*
X390144D01*
X364490D02*
X368046D01*
X344932D02*
X348488D01*
X332486D02*
X336550D01*
X326644D02*
X328930D01*
X317500D02*
X318770D01*
X303022D02*
X304292D01*
X426466Y151638D02*
X429768D01*
X420878D02*
X424434D01*
X396240D02*
X412242D01*
X386588D02*
X390144D01*
X364490D02*
X368046D01*
X344932D02*
X348488D01*
X332486D02*
X336804D01*
X326644D02*
X329184D01*
X317246D02*
X318770D01*
X303276D02*
X304546D01*
X426466Y151384D02*
X429768D01*
X421132D02*
X424434D01*
X395986D02*
X412496D01*
X386588D02*
X390144D01*
X364490D02*
X368046D01*
X344932D02*
X348488D01*
X332740D02*
X337058D01*
X326390D02*
X329438D01*
X316992D02*
X318516D01*
X303276D02*
X304800D01*
X426212Y151130D02*
X429768D01*
X421132D02*
X424688D01*
X395986D02*
X412496D01*
X386588D02*
X390144D01*
X364490D02*
X368046D01*
X344932D02*
X348488D01*
X332994D02*
X337058D01*
X326136D02*
X329438D01*
X316738D02*
X318262D01*
X310388D02*
X311404D01*
X303530D02*
X305054D01*
X426212Y150876D02*
X429514D01*
X421386D02*
X424688D01*
X395732D02*
X412750D01*
X386588D02*
X390144D01*
X364490D02*
X368046D01*
X344932D02*
X348488D01*
X333248D02*
X337312D01*
X326136D02*
X329692D01*
X316484D02*
X318008D01*
X309626D02*
X312166D01*
X303784D02*
X305308D01*
X425958Y150622D02*
X429514D01*
X421386D02*
X424688D01*
X395732D02*
X412750D01*
X386588D02*
X390144D01*
X364490D02*
X368046D01*
X344932D02*
X348488D01*
X333248D02*
X337566D01*
X325882D02*
X329692D01*
X316230D02*
X317754D01*
X309372D02*
X312674D01*
X304038D02*
X305816D01*
X425958Y150368D02*
X429514D01*
X421640D02*
X424942D01*
X395732D02*
X412750D01*
X386588D02*
X390144D01*
X364490D02*
X368046D01*
X344932D02*
X348488D01*
X333502D02*
X337566D01*
X325882D02*
X329946D01*
X315722D02*
X317500D01*
X308864D02*
X312928D01*
X304292D02*
X306070D01*
X425958Y150114D02*
X429260D01*
X421640D02*
X424942D01*
X409448D02*
X413004D01*
X395478D02*
X399034D01*
X386588D02*
X390144D01*
X364490D02*
X368046D01*
X344932D02*
X348488D01*
X333502D02*
X337820D01*
X325628D02*
X329692D01*
X315468D02*
X317246D01*
X308610D02*
X313182D01*
X304546D02*
X306324D01*
X425958Y149860D02*
X429260D01*
X421640D02*
X425196D01*
X409448D02*
X413004D01*
X395478D02*
X399034D01*
X386588D02*
X390144D01*
X364490D02*
X368046D01*
X344932D02*
X348488D01*
X333756D02*
X338074D01*
X325374D02*
X329692D01*
X314960D02*
X316992D01*
X308610D02*
X313436D01*
X304800D02*
X306832D01*
X425704Y149606D02*
X429006D01*
X421640D02*
X425196D01*
X409702D02*
X413004D01*
X395478D02*
X398780D01*
X386588D02*
X390144D01*
X364490D02*
X368046D01*
X344932D02*
X348488D01*
X334010D02*
X338074D01*
X325374D02*
X329438D01*
X314452D02*
X316738D01*
X308356D02*
X313436D01*
X305054D02*
X307340D01*
X425704Y149352D02*
X429006D01*
X421894D02*
X425196D01*
X409702D02*
X413258D01*
X395224D02*
X398780D01*
X386588D02*
X390144D01*
X364490D02*
X368046D01*
X344932D02*
X348488D01*
X334010D02*
X338328D01*
X325120D02*
X329184D01*
X313944D02*
X316230D01*
X308356D02*
X313690D01*
X305562D02*
X307848D01*
X425450Y149098D02*
X429006D01*
X421894D02*
X425196D01*
X409702D02*
X413258D01*
X395224D02*
X398780D01*
X386588D02*
X390144D01*
X364490D02*
X368046D01*
X344932D02*
X348488D01*
X334264D02*
X338328D01*
X324866D02*
X329184D01*
X305816D02*
X315976D01*
X422148Y148844D02*
X428752D01*
X409956D02*
X413512D01*
X394970D02*
X398526D01*
X386588D02*
X390144D01*
X364490D02*
X368046D01*
X344932D02*
X348488D01*
X334518D02*
X338582D01*
X324866D02*
X328930D01*
X306324D02*
X315468D01*
X422148Y148590D02*
X428752D01*
X409956D02*
X413512D01*
X394970D02*
X398526D01*
X386588D02*
X390144D01*
X364490D02*
X368046D01*
X344932D02*
X348488D01*
X334518D02*
X338836D01*
X324612D02*
X328930D01*
X306832D02*
X314960D01*
X422402Y148336D02*
X428752D01*
X409956D02*
X413512D01*
X394716D02*
X398526D01*
X386588D02*
X390144D01*
X364490D02*
X368046D01*
X344932D02*
X348488D01*
X334772D02*
X338836D01*
X324612D02*
X328676D01*
X307340D02*
X314452D01*
X422402Y148082D02*
X428498D01*
X410210D02*
X413766D01*
X394716D02*
X398272D01*
X386588D02*
X390144D01*
X364490D02*
X368046D01*
X344932D02*
X348488D01*
X335026D02*
X339090D01*
X324358D02*
X328422D01*
X307848D02*
X313944D01*
X422402Y147828D02*
X428498D01*
X410210D02*
X413766D01*
X394716D02*
X398272D01*
X386588D02*
X390144D01*
X364490D02*
X368046D01*
X344932D02*
X348488D01*
X335026D02*
X339344D01*
X324104D02*
X328422D01*
X307848D02*
X313944D01*
X422402Y147574D02*
X428244D01*
X410464D02*
X414020D01*
X394462D02*
X398272D01*
X386588D02*
X390144D01*
X364490D02*
X368046D01*
X344932D02*
X348488D01*
X335280D02*
X339344D01*
X324104D02*
X328168D01*
X308102D02*
X313944D01*
X422656Y147320D02*
X428244D01*
X410464D02*
X414020D01*
X394462D02*
X398018D01*
X386588D02*
X390144D01*
X364490D02*
X368046D01*
X344932D02*
X348488D01*
X335280D02*
X339598D01*
X323850D02*
X328168D01*
X308102D02*
X313690D01*
X422656Y147066D02*
X428244D01*
X410464D02*
X414274D01*
X394208D02*
X398018D01*
X386588D02*
X390144D01*
X364490D02*
X368046D01*
X344932D02*
X348488D01*
X335534D02*
X339852D01*
X323850D02*
X327914D01*
X308102D02*
X313690D01*
X422910Y146812D02*
X427990D01*
X410718D02*
X414274D01*
X394208D02*
X397764D01*
X386588D02*
X390144D01*
X352298D02*
X368046D01*
X344932D02*
X348488D01*
X335788D02*
X339852D01*
X323596D02*
X327660D01*
X308356D02*
X313436D01*
X422910Y146558D02*
X427990D01*
X410718D02*
X414274D01*
X394208D02*
X397764D01*
X386588D02*
X390144D01*
X352044D02*
X368046D01*
X344932D02*
X348488D01*
X336042D02*
X340106D01*
X323342D02*
X327660D01*
X308610D02*
X313436D01*
X423164Y146304D02*
X427990D01*
X410718D02*
X414528D01*
X393954D02*
X397764D01*
X386588D02*
X390144D01*
X352044D02*
X368046D01*
X344932D02*
X348488D01*
X336042D02*
X340360D01*
X323088D02*
X327406D01*
X308610D02*
X313182D01*
X423164Y146050D02*
X427736D01*
X410972D02*
X414528D01*
X393954D02*
X397510D01*
X386588D02*
X390144D01*
X352044D02*
X368046D01*
X344932D02*
X348488D01*
X336296D02*
X340360D01*
X323088D02*
X327152D01*
X308864D02*
X312928D01*
X423164Y145796D02*
X427736D01*
X410972D02*
X414528D01*
X393954D02*
X397510D01*
X386588D02*
X390144D01*
X352044D02*
X368046D01*
X344932D02*
X348488D01*
X336296D02*
X340614D01*
X322834D02*
X327152D01*
X309372D02*
X312420D01*
X423164Y145542D02*
X427482D01*
X410972D02*
X414782D01*
X393700D02*
X397510D01*
X386588D02*
X390144D01*
X352044D02*
X368046D01*
X344932D02*
X348488D01*
X336550D02*
X340614D01*
X322834D02*
X326898D01*
X309626D02*
X312166D01*
X423418Y145288D02*
X427482D01*
X411226D02*
X414782D01*
X393700D02*
X397256D01*
X386588D02*
X390144D01*
X352044D02*
X368046D01*
X344932D02*
X348488D01*
X336804D02*
X340868D01*
X322580D02*
X326898D01*
X310388D02*
X311404D01*
X423418Y145034D02*
X427482D01*
X411226D02*
X415036D01*
X393446D02*
X397256D01*
X386588D02*
X390144D01*
X352044D02*
X368046D01*
X344932D02*
X348488D01*
X336804D02*
X341122D01*
X322326D02*
X326644D01*
X423672Y144780D02*
X427228D01*
X411480D02*
X415036D01*
X393446D02*
X397002D01*
X386588D02*
X390144D01*
X352044D02*
X368046D01*
X344932D02*
X348488D01*
X337058D02*
X341122D01*
X322326D02*
X326390D01*
X423672Y144526D02*
X427228D01*
X411480D02*
X415036D01*
X393446D02*
X397002D01*
X386588D02*
X390144D01*
X352044D02*
X368046D01*
X344932D02*
X348488D01*
X337058D02*
X341376D01*
X322072D02*
X326390D01*
X423672Y144272D02*
X427228D01*
X411480D02*
X415290D01*
X393192D02*
X397002D01*
X386588D02*
X390144D01*
X352044D02*
X368046D01*
X344932D02*
X348488D01*
X337312D02*
X341630D01*
X321818D02*
X326136D01*
X423672Y144018D02*
X426974D01*
X411480D02*
X415290D01*
X393192D02*
X396748D01*
X386588D02*
X390144D01*
X352044D02*
X368046D01*
X344932D02*
X348488D01*
X337566D02*
X341630D01*
X321818D02*
X325882D01*
X321564Y143764D02*
X325882D01*
X321564Y143510D02*
X325628D01*
X321310Y143256D02*
X325628D01*
X321056Y143002D02*
X325374D01*
X321056Y142748D02*
X325120D01*
X320802Y142494D02*
X325120D01*
X390144Y142240D02*
X391414D01*
X320802D02*
X324866D01*
X400558Y141986D02*
X405892D01*
X389128D02*
X392430D01*
X383032D02*
X384556D01*
X376428D02*
X377444D01*
X369570D02*
X370840D01*
X359918D02*
X367792D01*
X352552D02*
X357886D01*
X338836D02*
X346710D01*
X332232D02*
X336804D01*
X320548D02*
X324612D01*
X399542Y141732D02*
X405892D01*
X388366D02*
X392938D01*
X383032D02*
X384302D01*
X376174D02*
X377698D01*
X369570D02*
X370840D01*
X359918D02*
X367792D01*
X351536D02*
X357886D01*
X338836D02*
X346710D01*
X331216D02*
X336804D01*
X320294D02*
X324612D01*
X399034Y141478D02*
X405892D01*
X388112D02*
X393446D01*
X383032D02*
X384302D01*
X376174D02*
X377698D01*
X369570D02*
X371094D01*
X359918D02*
X367792D01*
X351028D02*
X357886D01*
X338836D02*
X346710D01*
X330708D02*
X336804D01*
X320294D02*
X324358D01*
X398526Y141224D02*
X405892D01*
X387604D02*
X393700D01*
X382778D02*
X384302D01*
X376174D02*
X377698D01*
X369570D02*
X371094D01*
X359918D02*
X367792D01*
X350774D02*
X357886D01*
X338836D02*
X346710D01*
X330200D02*
X336804D01*
X320040D02*
X324358D01*
X398272Y140970D02*
X405892D01*
X391414D02*
X393954D01*
X387350D02*
X390144D01*
X382778D02*
X384302D01*
X375920D02*
X377952D01*
X369824D02*
X371094D01*
X359918D02*
X367792D01*
X350266D02*
X357886D01*
X338836D02*
X346710D01*
X329692D02*
X336804D01*
X319786D02*
X324104D01*
X404622Y140716D02*
X405892D01*
X398018D02*
X400304D01*
X392176D02*
X394208D01*
X387096D02*
X389128D01*
X382778D02*
X384048D01*
X375920D02*
X377952D01*
X369824D02*
X371094D01*
X366522D02*
X367792D01*
X356616D02*
X357886D01*
X350012D02*
X352298D01*
X345440D02*
X346710D01*
X335534D02*
X336804D01*
X329438D02*
X331724D01*
X319786D02*
X323850D01*
X404622Y140462D02*
X405892D01*
X398018D02*
X399796D01*
X392684D02*
X394462D01*
X386842D02*
X388874D01*
X382778D02*
X384048D01*
X375920D02*
X377952D01*
X369824D02*
X371094D01*
X366522D02*
X367792D01*
X356362D02*
X357886D01*
X350012D02*
X351790D01*
X345440D02*
X346710D01*
X335534D02*
X336804D01*
X329184D02*
X331216D01*
X319532D02*
X323850D01*
X404622Y140208D02*
X405892D01*
X397764D02*
X399542D01*
X392938D02*
X394716D01*
X386842D02*
X388366D01*
X382524D02*
X384048D01*
X375920D02*
X378206D01*
X370078D02*
X371348D01*
X366522D02*
X367792D01*
X356362D02*
X357886D01*
X349758D02*
X351536D01*
X345440D02*
X346710D01*
X335534D02*
X336804D01*
X328930D02*
X330962D01*
X319532D02*
X323596D01*
X404622Y139954D02*
X405892D01*
X397510D02*
X399288D01*
X393192D02*
X394970D01*
X386588D02*
X388112D01*
X382524D02*
X384048D01*
X375666D02*
X378206D01*
X370078D02*
X371348D01*
X366522D02*
X367792D01*
X356362D02*
X357886D01*
X349758D02*
X351282D01*
X345440D02*
X346710D01*
X335534D02*
X336804D01*
X328930D02*
X330454D01*
X319278D02*
X323596D01*
X404622Y139700D02*
X405892D01*
X397510D02*
X399034D01*
X393446D02*
X394970D01*
X386588D02*
X388112D01*
X382524D02*
X384048D01*
X375666D02*
X378206D01*
X370078D02*
X371348D01*
X366522D02*
X367792D01*
X356362D02*
X357886D01*
X349504D02*
X351028D01*
X345440D02*
X346710D01*
X335534D02*
X336804D01*
X328676D02*
X330200D01*
X319024D02*
X323342D01*
X404622Y139446D02*
X405892D01*
X397510D02*
X398780D01*
X393700D02*
X395224D01*
X386334D02*
X387858D01*
X382524D02*
X383794D01*
X375666D02*
X378206D01*
X370078D02*
X371602D01*
X366522D02*
X367792D01*
X356362D02*
X357886D01*
X349504D02*
X350774D01*
X345440D02*
X346710D01*
X335534D02*
X336804D01*
X328422D02*
X329946D01*
X319024D02*
X323088D01*
X404622Y139192D02*
X405892D01*
X397256D02*
X398780D01*
X393700D02*
X395224D01*
X386080D02*
X387604D01*
X382270D02*
X383794D01*
X377190D02*
X378460D01*
X375412D02*
X376682D01*
X370078D02*
X371602D01*
X366522D02*
X367792D01*
X356362D02*
X357886D01*
X349504D02*
X350774D01*
X345440D02*
X346710D01*
X335534D02*
X336804D01*
X328422D02*
X329946D01*
X318770D02*
X323088D01*
X404622Y138938D02*
X405892D01*
X397256D02*
X398780D01*
X393954D02*
X395224D01*
X386080D02*
X387604D01*
X382270D02*
X383794D01*
X377190D02*
X378460D01*
X375412D02*
X376682D01*
X370332D02*
X371602D01*
X366522D02*
X367792D01*
X356362D02*
X357886D01*
X349250D02*
X350774D01*
X345440D02*
X346710D01*
X335534D02*
X336804D01*
X328168D02*
X329692D01*
X318770D02*
X322834D01*
X404622Y138684D02*
X405892D01*
X397256D02*
X398526D01*
X393954D02*
X395478D01*
X386080D02*
X387604D01*
X382270D02*
X383540D01*
X377190D02*
X378460D01*
X375412D02*
X376682D01*
X370332D02*
X371602D01*
X366522D02*
X367792D01*
X356362D02*
X357886D01*
X349250D02*
X350774D01*
X345440D02*
X346710D01*
X335534D02*
X336804D01*
X328168D02*
X329692D01*
X318516D02*
X322580D01*
X404622Y138430D02*
X405892D01*
X397256D02*
X398526D01*
X393954D02*
X395478D01*
X386080D02*
X387350D01*
X382270D02*
X383540D01*
X377444D02*
X378714D01*
X375158D02*
X376682D01*
X370332D02*
X371856D01*
X366522D02*
X367792D01*
X356362D02*
X357886D01*
X349250D02*
X350774D01*
X345440D02*
X346710D01*
X335534D02*
X336804D01*
X328168D02*
X329438D01*
X318262D02*
X322580D01*
X404622Y138176D02*
X405892D01*
X397256D02*
X398526D01*
X394208D02*
X395478D01*
X386080D02*
X387350D01*
X382016D02*
X383540D01*
X377444D02*
X378714D01*
X375158D02*
X376428D01*
X370332D02*
X371856D01*
X366522D02*
X367792D01*
X356362D02*
X357886D01*
X349250D02*
X350774D01*
X345440D02*
X346710D01*
X335534D02*
X336804D01*
X327914D02*
X329438D01*
X318262D02*
X322326D01*
X404622Y137922D02*
X405892D01*
X397256D02*
X398526D01*
X394208D02*
X395732D01*
X385826D02*
X387350D01*
X382016D02*
X383286D01*
X377444D02*
X378714D01*
X375158D02*
X376428D01*
X370586D02*
X371856D01*
X366522D02*
X367792D01*
X356362D02*
X357886D01*
X349250D02*
X350774D01*
X345440D02*
X346710D01*
X335534D02*
X336804D01*
X327914D02*
X329184D01*
X318008D02*
X322326D01*
X404622Y137668D02*
X405892D01*
X397256D02*
X398526D01*
X394208D02*
X395732D01*
X385826D02*
X387096D01*
X382016D02*
X383286D01*
X377444D02*
X378968D01*
X375158D02*
X376428D01*
X370586D02*
X371856D01*
X366522D02*
X367792D01*
X356362D02*
X357886D01*
X349250D02*
X350774D01*
X345440D02*
X346710D01*
X335534D02*
X336804D01*
X327914D02*
X329184D01*
X317754D02*
X322072D01*
X404622Y137414D02*
X405892D01*
X397256D02*
X398780D01*
X394208D02*
X395732D01*
X385826D02*
X387096D01*
X382016D02*
X383286D01*
X377698D02*
X378968D01*
X374904D02*
X376174D01*
X370586D02*
X371856D01*
X366522D02*
X367792D01*
X356362D02*
X357886D01*
X349504D02*
X350774D01*
X345440D02*
X346710D01*
X335534D02*
X336804D01*
X327914D02*
X329184D01*
X317754D02*
X321818D01*
X404622Y137160D02*
X405892D01*
X397510D02*
X398780D01*
X394208D02*
X395732D01*
X385826D02*
X387096D01*
X381762D02*
X383286D01*
X377698D02*
X378968D01*
X374904D02*
X376174D01*
X370840D02*
X372110D01*
X366522D02*
X367792D01*
X356362D02*
X357886D01*
X349504D02*
X351028D01*
X345440D02*
X346710D01*
X335534D02*
X336804D01*
X327914D02*
X329184D01*
X317500D02*
X321818D01*
X404622Y136906D02*
X405892D01*
X397510D02*
X399034D01*
X394462D02*
X395732D01*
X385826D02*
X387096D01*
X381762D02*
X383286D01*
X377698D02*
X378968D01*
X374904D02*
X376174D01*
X370840D02*
X372110D01*
X366522D02*
X367792D01*
X356362D02*
X357886D01*
X349504D02*
X351028D01*
X345440D02*
X346710D01*
X335534D02*
X336804D01*
X327660D02*
X329184D01*
X317246D02*
X321564D01*
X404622Y136652D02*
X405892D01*
X397510D02*
X399034D01*
X394462D02*
X395732D01*
X385826D02*
X387096D01*
X381762D02*
X383032D01*
X377952D02*
X379222D01*
X374650D02*
X376174D01*
X370840D02*
X372110D01*
X366522D02*
X367792D01*
X356362D02*
X357886D01*
X349758D02*
X351282D01*
X345440D02*
X346710D01*
X335534D02*
X336804D01*
X327660D02*
X329184D01*
X317246D02*
X321564D01*
X404622Y136398D02*
X405892D01*
X397764D02*
X399288D01*
X394462D02*
X395732D01*
X385826D02*
X387096D01*
X381762D02*
X383032D01*
X377952D02*
X379222D01*
X374650D02*
X375920D01*
X370840D02*
X372364D01*
X360680D02*
X367792D01*
X356362D02*
X357886D01*
X349758D02*
X351536D01*
X339598D02*
X346710D01*
X335534D02*
X336804D01*
X327660D02*
X329184D01*
X316992D02*
X321310D01*
X404622Y136144D02*
X405892D01*
X397764D02*
X399542D01*
X394462D02*
X395732D01*
X385826D02*
X387096D01*
X381508D02*
X383032D01*
X377952D02*
X379222D01*
X374650D02*
X375920D01*
X370840D02*
X372364D01*
X360680D02*
X367792D01*
X356362D02*
X357886D01*
X350012D02*
X351790D01*
X339598D02*
X346710D01*
X335534D02*
X336804D01*
X327660D02*
X329184D01*
X316992D02*
X321056D01*
X404622Y135890D02*
X405892D01*
X398018D02*
X400304D01*
X394462D02*
X395732D01*
X385826D02*
X387096D01*
X381508D02*
X382778D01*
X377952D02*
X379476D01*
X374396D02*
X375920D01*
X371094D02*
X372364D01*
X360680D02*
X367792D01*
X356616D02*
X357886D01*
X350266D02*
X352552D01*
X339598D02*
X346710D01*
X335534D02*
X336804D01*
X327660D02*
X329184D01*
X316738D02*
X321056D01*
X398272Y135636D02*
X405892D01*
X394462D02*
X395732D01*
X385826D02*
X387096D01*
X381508D02*
X382778D01*
X378206D02*
X379476D01*
X374396D02*
X375666D01*
X371094D02*
X372364D01*
X360680D02*
X367792D01*
X350520D02*
X357886D01*
X339598D02*
X346710D01*
X335534D02*
X336804D01*
X327660D02*
X329184D01*
X316484D02*
X320802D01*
X398526Y135382D02*
X405892D01*
X394462D02*
X395732D01*
X385826D02*
X387096D01*
X381508D02*
X382778D01*
X378206D02*
X379476D01*
X374396D02*
X375666D01*
X371094D02*
X372618D01*
X360680D02*
X367792D01*
X350774D02*
X357886D01*
X339598D02*
X346710D01*
X335534D02*
X336804D01*
X327660D02*
X329184D01*
X316484D02*
X320802D01*
X398780Y135128D02*
X405892D01*
X394462D02*
X395732D01*
X385826D02*
X387096D01*
X381254D02*
X382778D01*
X378206D02*
X379730D01*
X374396D02*
X375666D01*
X371348D02*
X372618D01*
X366522D02*
X367792D01*
X351282D02*
X357886D01*
X345440D02*
X346710D01*
X335534D02*
X336804D01*
X327660D02*
X329184D01*
X316230D02*
X320548D01*
X399288Y134874D02*
X405892D01*
X394462D02*
X395732D01*
X385826D02*
X387096D01*
X381254D02*
X382524D01*
X378460D02*
X379730D01*
X374142D02*
X375412D01*
X371348D02*
X372618D01*
X366522D02*
X367792D01*
X351790D02*
X357886D01*
X345440D02*
X346710D01*
X335534D02*
X336804D01*
X327660D02*
X329184D01*
X315976D02*
X320294D01*
X400050Y134620D02*
X405892D01*
X394462D02*
X395732D01*
X385826D02*
X387096D01*
X381254D02*
X382524D01*
X378460D02*
X379730D01*
X374142D02*
X375412D01*
X371348D02*
X372618D01*
X366522D02*
X367792D01*
X351790D02*
X357886D01*
X345440D02*
X346710D01*
X335534D02*
X336804D01*
X327914D02*
X329184D01*
X315976D02*
X320040D01*
X404622Y134366D02*
X405892D01*
X394208D02*
X395732D01*
X385826D02*
X387096D01*
X381254D02*
X382524D01*
X378460D02*
X379730D01*
X374142D02*
X375412D01*
X371348D02*
X372618D01*
X366522D02*
X367792D01*
X356616D02*
X357886D01*
X351536D02*
X353060D01*
X345440D02*
X346710D01*
X335534D02*
X336804D01*
X327914D02*
X329184D01*
X315722D02*
X320040D01*
X404622Y134112D02*
X405892D01*
X394208D02*
X395732D01*
X385826D02*
X387096D01*
X381000D02*
X382524D01*
X378714D02*
X379984D01*
X373888D02*
X375412D01*
X371602D02*
X372872D01*
X366522D02*
X367792D01*
X356362D02*
X357886D01*
X351282D02*
X352806D01*
X345440D02*
X346710D01*
X335534D02*
X336804D01*
X327914D02*
X329184D01*
X315722D02*
X319786D01*
X404622Y133858D02*
X405892D01*
X394208D02*
X395732D01*
X385826D02*
X387096D01*
X381000D02*
X382524D01*
X378714D02*
X379984D01*
X373888D02*
X375158D01*
X371602D02*
X372872D01*
X366522D02*
X367792D01*
X356362D02*
X357886D01*
X351282D02*
X352806D01*
X345440D02*
X346710D01*
X335534D02*
X336804D01*
X327914D02*
X329184D01*
X315468D02*
X319786D01*
X404622Y133604D02*
X405892D01*
X394208D02*
X395732D01*
X385826D02*
X387350D01*
X381000D02*
X382270D01*
X378714D02*
X379984D01*
X373888D02*
X375158D01*
X371602D02*
X372872D01*
X366522D02*
X367792D01*
X356362D02*
X357886D01*
X351028D02*
X352552D01*
X345440D02*
X346710D01*
X335534D02*
X336804D01*
X327914D02*
X329438D01*
X315214D02*
X319532D01*
X404622Y133350D02*
X405892D01*
X394208D02*
X395478D01*
X386080D02*
X387350D01*
X381000D02*
X382270D01*
X378714D02*
X380238D01*
X373888D02*
X375158D01*
X371602D02*
X373126D01*
X366522D02*
X367792D01*
X356362D02*
X357886D01*
X350774D02*
X352552D01*
X345440D02*
X346710D01*
X335534D02*
X336804D01*
X327914D02*
X329438D01*
X315214D02*
X319532D01*
X404622Y133096D02*
X405892D01*
X393954D02*
X395478D01*
X386080D02*
X387350D01*
X381000D02*
X382270D01*
X378968D02*
X380238D01*
X373634D02*
X374904D01*
X371602D02*
X373126D01*
X366522D02*
X367792D01*
X356362D02*
X357886D01*
X350774D02*
X352298D01*
X345440D02*
X346710D01*
X335534D02*
X336804D01*
X328168D02*
X329438D01*
X314960D02*
X319278D01*
X404622Y132842D02*
X405892D01*
X393954D02*
X395478D01*
X386080D02*
X387604D01*
X380746D02*
X382016D01*
X378968D02*
X380238D01*
X373634D02*
X374904D01*
X371856D02*
X373126D01*
X366522D02*
X367792D01*
X356362D02*
X357886D01*
X350520D02*
X352044D01*
X345440D02*
X346710D01*
X335534D02*
X336804D01*
X328168D02*
X329692D01*
X314706D02*
X319024D01*
X404622Y132588D02*
X405892D01*
X393954D02*
X395224D01*
X386080D02*
X387604D01*
X380746D02*
X382016D01*
X378968D02*
X380492D01*
X373634D02*
X374904D01*
X371856D02*
X373126D01*
X366522D02*
X367792D01*
X356362D02*
X357886D01*
X350520D02*
X352044D01*
X345440D02*
X346710D01*
X335534D02*
X336804D01*
X328168D02*
X329692D01*
X314706D02*
X318770D01*
X404622Y132334D02*
X405892D01*
X393700D02*
X395224D01*
X386080D02*
X387604D01*
X380746D02*
X382016D01*
X379222D02*
X380492D01*
X373634D02*
X374650D01*
X371856D02*
X373126D01*
X366522D02*
X367792D01*
X356362D02*
X357886D01*
X350266D02*
X351790D01*
X345440D02*
X346710D01*
X335534D02*
X336804D01*
X328422D02*
X329946D01*
X314452D02*
X318770D01*
X404622Y132080D02*
X405892D01*
X393700D02*
X395224D01*
X386334D02*
X387858D01*
X380746D02*
X382016D01*
X379222D02*
X380492D01*
X373380D02*
X374650D01*
X372110D02*
X373126D01*
X366522D02*
X367792D01*
X356362D02*
X357886D01*
X350012D02*
X351790D01*
X345440D02*
X346710D01*
X335534D02*
X336804D01*
X328422D02*
X330200D01*
X314452D02*
X318516D01*
X404622Y131826D02*
X405892D01*
X393446D02*
X394970D01*
X386334D02*
X387858D01*
X379222D02*
X382016D01*
X372110D02*
X374650D01*
X366522D02*
X367792D01*
X356362D02*
X357886D01*
X350012D02*
X351536D01*
X345440D02*
X346710D01*
X335534D02*
X336804D01*
X328676D02*
X330200D01*
X314198D02*
X318516D01*
X404622Y131572D02*
X405892D01*
X393192D02*
X394716D01*
X386588D02*
X388112D01*
X379476D02*
X381762D01*
X372110D02*
X374650D01*
X366522D02*
X367792D01*
X356362D02*
X357886D01*
X349758D02*
X351282D01*
X345440D02*
X346710D01*
X335534D02*
X336804D01*
X328930D02*
X330454D01*
X313944D02*
X318262D01*
X404622Y131318D02*
X405892D01*
X392938D02*
X394716D01*
X386842D02*
X388366D01*
X379476D02*
X381762D01*
X372110D02*
X374396D01*
X366522D02*
X367792D01*
X356362D02*
X357886D01*
X349758D02*
X351282D01*
X345440D02*
X346710D01*
X335534D02*
X336804D01*
X328930D02*
X330962D01*
X313944D02*
X318008D01*
X404622Y131064D02*
X405892D01*
X392684D02*
X394462D01*
X386842D02*
X388620D01*
X379476D02*
X381762D01*
X372364D02*
X374396D01*
X366522D02*
X367792D01*
X356362D02*
X357886D01*
X349504D02*
X351028D01*
X345440D02*
X346710D01*
X335534D02*
X336804D01*
X329184D02*
X331216D01*
X313690D02*
X318008D01*
X404622Y130810D02*
X405892D01*
X392176D02*
X394208D01*
X387096D02*
X389382D01*
X379476D02*
X381508D01*
X372364D02*
X374396D01*
X366522D02*
X367792D01*
X356362D02*
X357886D01*
X349250D02*
X351028D01*
X345440D02*
X346710D01*
X335534D02*
X336804D01*
X329438D02*
X332232D01*
X313690D02*
X317754D01*
X404622Y130556D02*
X405892D01*
X391414D02*
X393954D01*
X387350D02*
X389890D01*
X379730D02*
X381508D01*
X372364D02*
X374142D01*
X359664D02*
X367792D01*
X356362D02*
X357886D01*
X349250D02*
X350774D01*
X338836D02*
X346710D01*
X329946D02*
X336804D01*
X313436D02*
X317754D01*
X404622Y130302D02*
X405892D01*
X387604D02*
X393700D01*
X379730D02*
X381508D01*
X372364D02*
X374142D01*
X359664D02*
X367792D01*
X356362D02*
X357886D01*
X348996D02*
X350520D01*
X338836D02*
X346710D01*
X330200D02*
X336804D01*
X313182D02*
X317500D01*
X404622Y130048D02*
X405892D01*
X388112D02*
X393446D01*
X379730D02*
X381508D01*
X372618D02*
X374142D01*
X359664D02*
X367792D01*
X356362D02*
X357886D01*
X348996D02*
X350520D01*
X338836D02*
X346710D01*
X330454D02*
X336804D01*
X313182D02*
X317246D01*
X404622Y129794D02*
X405892D01*
X388620D02*
X392938D01*
X379984D02*
X381254D01*
X372618D02*
X373888D01*
X359664D02*
X367792D01*
X356362D02*
X357886D01*
X348742D02*
X350266D01*
X338836D02*
X346710D01*
X331216D02*
X336804D01*
X312928D02*
X317246D01*
X404622Y129540D02*
X405892D01*
X389128D02*
X392430D01*
X379984D02*
X381254D01*
X372618D02*
X373888D01*
X359664D02*
X367792D01*
X356362D02*
X357886D01*
X348742D02*
X350266D01*
X338836D02*
X346710D01*
X331978D02*
X336804D01*
X312928D02*
X316992D01*
D190*
X-1538Y129956D02*
X9212D01*
X-1538Y54956D02*
X9212D01*
X27462D02*
X47712D01*
X27462Y129956D02*
X47712D01*
D191*
X212Y92456D02*
D03*
D192*
X194730Y103162D02*
D03*
X185230D02*
D03*
M02*
