G04 Layer_Color=8421504*
%FSLAX44Y44*%
%MOMM*%
G71*
G01*
G75*
%ADD40R,0.8000X1.6000*%
%ADD94R,0.2819X0.4320*%
%ADD95R,0.2220X0.4020*%
%ADD96R,0.5020X0.5020*%
%ADD97R,0.3520X0.2519*%
%ADD98R,0.2519X0.3520*%
%ADD99R,0.6020X0.5520*%
%ADD100R,0.9520X0.8520*%
%ADD101R,0.4520X1.0020*%
%ADD102R,0.3520X0.3520*%
%ADD103R,4.7020X4.7020*%
%ADD104O,0.6520X0.2020*%
%ADD105O,0.2020X0.6520*%
%ADD106R,1.5020X1.0020*%
%ADD107R,2.5020X1.3020*%
%ADD108R,0.8020X0.3520*%
%ADD109R,2.6020X0.6020*%
%ADD110R,1.0020X1.8020*%
%ADD111O,1.7020X0.3020*%
%ADD112R,1.4020X2.7520*%
%ADD113R,1.0020X0.9470*%
%ADD114R,1.0020X0.9490*%
%ADD115R,0.7020X0.3020*%
%ADD116R,0.9020X0.7020*%
%ADD117R,0.7520X0.8020*%
%ADD118R,0.8020X2.2020*%
%ADD119R,1.0020X0.8020*%
%ADD120R,0.4320X0.2819*%
%ADD121R,1.1020X1.8020*%
%ADD122R,0.8020X0.8020*%
%ADD123R,0.5520X0.6020*%
D40*
X263000Y12500D02*
D03*
X297000D02*
D03*
D94*
X605050Y108250D02*
D03*
X599950D02*
D03*
X77250Y144500D02*
D03*
X82350D02*
D03*
X577450Y98500D02*
D03*
X582550D02*
D03*
X588850Y70000D02*
D03*
X583750D02*
D03*
X577332Y51308D02*
D03*
X582432D02*
D03*
D95*
X585318Y89678D02*
D03*
X589376D02*
D03*
X581326Y78778D02*
D03*
X577282D02*
D03*
D96*
X587550Y82299D02*
D03*
X579250Y86456D02*
D03*
D97*
X315750Y116500D02*
D03*
Y111501D02*
D03*
X364000Y57249D02*
D03*
Y52251D02*
D03*
X67000Y131000D02*
D03*
Y135999D02*
D03*
X152250Y141251D02*
D03*
Y146250D02*
D03*
X73352Y111547D02*
D03*
Y116545D02*
D03*
X73406Y65065D02*
D03*
Y70063D02*
D03*
D98*
X377251Y132250D02*
D03*
X382250D02*
D03*
X389001Y64750D02*
D03*
X394000D02*
D03*
X361251Y171518D02*
D03*
X366249D02*
D03*
X378749Y171500D02*
D03*
X373750D02*
D03*
X389001Y59500D02*
D03*
X394000D02*
D03*
X371501Y32200D02*
D03*
X376499D02*
D03*
X395999Y124000D02*
D03*
X391000D02*
D03*
X393000Y104194D02*
D03*
X397999D02*
D03*
X337751Y32200D02*
D03*
X342750D02*
D03*
X325999D02*
D03*
X321000D02*
D03*
X349500Y52500D02*
D03*
X344501D02*
D03*
X358999D02*
D03*
X354000D02*
D03*
X404001Y104250D02*
D03*
X409000D02*
D03*
D99*
X392500Y132000D02*
D03*
X402500D02*
D03*
D100*
X389500Y51750D02*
D03*
Y40250D02*
D03*
X375000D02*
D03*
Y51750D02*
D03*
D101*
X328750Y42400D02*
D03*
X346250Y42500D02*
D03*
D102*
X337500Y45700D02*
D03*
Y39200D02*
D03*
D103*
X354000Y94500D02*
D03*
D104*
X384250Y116500D02*
D03*
Y112500D02*
D03*
Y108500D02*
D03*
Y104500D02*
D03*
Y100500D02*
D03*
Y96500D02*
D03*
Y92500D02*
D03*
Y88500D02*
D03*
Y84500D02*
D03*
X384250Y80500D02*
D03*
X384250Y76500D02*
D03*
X384250Y72500D02*
D03*
X323750D02*
D03*
X323750Y76500D02*
D03*
X323750Y80500D02*
D03*
X323750Y84500D02*
D03*
X323750Y88500D02*
D03*
Y92500D02*
D03*
Y96500D02*
D03*
Y100500D02*
D03*
X323750Y104500D02*
D03*
Y108500D02*
D03*
Y112500D02*
D03*
Y116500D02*
D03*
D105*
X376000Y64250D02*
D03*
X372000Y64250D02*
D03*
X368000Y64250D02*
D03*
X364000Y64250D02*
D03*
X360000Y64250D02*
D03*
X356000D02*
D03*
X352000D02*
D03*
X348000D02*
D03*
X344000D02*
D03*
X340000Y64250D02*
D03*
X336000D02*
D03*
X332000D02*
D03*
X332000Y124750D02*
D03*
X336000Y124750D02*
D03*
X340000Y124750D02*
D03*
X344000Y124750D02*
D03*
X348000D02*
D03*
X352000D02*
D03*
X356000Y124750D02*
D03*
X360000Y124750D02*
D03*
X364000D02*
D03*
X368000Y124750D02*
D03*
X372000Y124750D02*
D03*
X376000Y124750D02*
D03*
D106*
X61750Y148250D02*
D03*
Y168250D02*
D03*
D107*
X45600Y82492D02*
D03*
X45510Y100092D02*
D03*
D108*
X67510Y81412D02*
D03*
Y101412D02*
D03*
Y96412D02*
D03*
Y91412D02*
D03*
Y86412D02*
D03*
D109*
X44510Y115492D02*
D03*
Y67332D02*
D03*
D110*
X357500Y159000D02*
D03*
X382500D02*
D03*
D111*
X95250Y146000D02*
D03*
Y141000D02*
D03*
Y136000D02*
D03*
Y131000D02*
D03*
Y126000D02*
D03*
X136250Y146000D02*
D03*
Y141000D02*
D03*
Y136000D02*
D03*
Y131000D02*
D03*
Y126000D02*
D03*
D112*
X504002Y126968D02*
D03*
X544002D02*
D03*
X504002Y59468D02*
D03*
X544002D02*
D03*
X171770Y125698D02*
D03*
X211770D02*
D03*
X171770Y58198D02*
D03*
X211770D02*
D03*
D113*
X94460Y158037D02*
D03*
D114*
X94460Y170997D02*
D03*
D115*
X81500Y174227D02*
D03*
Y167750D02*
D03*
Y154773D02*
D03*
Y161273D02*
D03*
X99915D02*
D03*
Y154773D02*
D03*
Y167750D02*
D03*
Y174227D02*
D03*
D116*
X538212Y17702D02*
D03*
Y27686D02*
D03*
X553212Y17702D02*
D03*
Y27686D02*
D03*
X537958Y158672D02*
D03*
Y168656D02*
D03*
X552958Y158672D02*
D03*
Y168656D02*
D03*
D117*
X408750Y114612D02*
D03*
X395250D02*
D03*
D118*
X338550Y15000D02*
D03*
X366950D02*
D03*
D119*
X352750Y30800D02*
D03*
D120*
X406000Y75850D02*
D03*
Y70750D02*
D03*
X152250Y130900D02*
D03*
Y136000D02*
D03*
Y124000D02*
D03*
Y118900D02*
D03*
X584250Y143360D02*
D03*
Y138260D02*
D03*
X592640D02*
D03*
Y143360D02*
D03*
D121*
X42688Y151538D02*
D03*
D122*
Y133538D02*
D03*
D123*
X110000Y169000D02*
D03*
Y159000D02*
D03*
M02*
