G04 Layer_Physical_Order=6*
G04 Layer_Color=16711680*
%FSLAX44Y44*%
%MOMM*%
G71*
G01*
G75*
%ADD12R,0.2799X0.4300*%
%ADD13C,0.8000*%
%ADD14R,0.2200X0.4000*%
%ADD15R,0.5000X0.5000*%
%ADD16R,0.3500X0.2499*%
%ADD17R,0.2499X0.3500*%
%ADD41R,0.4300X0.2799*%
%ADD42R,1.1000X1.8000*%
%ADD43R,0.8000X0.8000*%
%ADD44R,0.5500X0.6000*%
%ADD45C,0.2540*%
%ADD46C,0.1500*%
%ADD47C,0.3810*%
%ADD48C,0.2032*%
%ADD49C,0.2000*%
%ADD50C,0.3000*%
%ADD52C,0.5000*%
%ADD53O,1.6000X0.9000*%
%ADD54C,4.5000*%
%ADD55R,1.2000X1.2000*%
%ADD56C,1.2000*%
%ADD57O,2.5000X3.0000*%
%ADD58C,1.5240*%
%ADD59C,1.5000*%
%ADD60C,0.5000*%
%ADD61C,0.4000*%
%ADD62C,0.6600*%
%ADD63C,0.7000*%
%ADD64C,1.0160*%
%ADD71R,1.8000X1.1000*%
%ADD72R,0.8000X0.8000*%
%ADD73R,0.6000X0.4200*%
%ADD74C,1.0000*%
%ADD75R,1.0160X0.7620*%
%ADD76R,2.5000X2.5000*%
%ADD77R,1.4000X1.6000*%
%ADD78R,1.5500X1.9000*%
%ADD79R,1.3500X0.4000*%
%ADD80R,0.9450X1.0000*%
%ADD81R,0.9470X1.0000*%
%ADD82R,0.3000X0.7000*%
%ADD83R,0.4000X0.2200*%
%ADD84R,0.5000X0.5000*%
%ADD85C,0.5080*%
%ADD86C,0.7620*%
%ADD87C,0.4000*%
%ADD88R,1.5494X0.9906*%
G36*
X647380Y1082D02*
X316500D01*
Y17056D01*
X316500Y64943D01*
X229000Y64943D01*
Y61806D01*
X227750Y61138D01*
X227215Y61495D01*
X225849Y61767D01*
X224484Y61495D01*
X223326Y60722D01*
X222553Y59564D01*
X222281Y58198D01*
X222553Y56832D01*
X223326Y55675D01*
X224484Y54901D01*
X225849Y54630D01*
X227215Y54901D01*
X227750Y55259D01*
X229000Y54590D01*
X229000Y1082D01*
X1082D01*
Y183576D01*
X647380D01*
Y1082D01*
D02*
G37*
%LPC*%
G36*
X594529Y85573D02*
X593163Y85301D01*
X592006Y84527D01*
X591232Y83370D01*
X590960Y82004D01*
X591232Y80638D01*
X592006Y79481D01*
X593163Y78707D01*
X594529Y78435D01*
X595895Y78707D01*
X597052Y79481D01*
X597826Y80638D01*
X598098Y82004D01*
X597826Y83370D01*
X597052Y84527D01*
X595895Y85301D01*
X594529Y85573D01*
D02*
G37*
G36*
X400000Y84819D02*
X398634Y84547D01*
X397477Y83773D01*
X396703Y82616D01*
X396431Y81250D01*
X396703Y79884D01*
X397477Y78727D01*
Y78273D01*
X396703Y77116D01*
X396431Y75750D01*
X396703Y74384D01*
X397477Y73227D01*
X398634Y72453D01*
X400000Y72182D01*
X401366Y72453D01*
X402523Y73227D01*
X403297Y74384D01*
X403569Y75750D01*
X403297Y77116D01*
X402523Y78273D01*
Y78727D01*
X403297Y79884D01*
X403569Y81250D01*
X403297Y82616D01*
X402523Y83773D01*
X401366Y84547D01*
X400000Y84819D01*
D02*
G37*
G36*
X27712Y79186D02*
X19732D01*
Y69456D01*
X27712D01*
Y79186D01*
D02*
G37*
G36*
X281750Y91319D02*
X280384Y91047D01*
X279227Y90273D01*
X278453Y89116D01*
X278181Y87750D01*
X278453Y86384D01*
X279227Y85227D01*
X280384Y84453D01*
X281750Y84181D01*
X283116Y84453D01*
X284273Y85227D01*
X285047Y86384D01*
X285319Y87750D01*
X285047Y89116D01*
X284273Y90273D01*
X283116Y91047D01*
X281750Y91319D01*
D02*
G37*
G36*
X27712Y91456D02*
X19732D01*
Y81726D01*
X27712D01*
Y91456D01*
D02*
G37*
G36*
X17192D02*
X9212D01*
Y81726D01*
X17192D01*
Y91456D01*
D02*
G37*
G36*
Y79186D02*
X9212D01*
Y69456D01*
X17192D01*
Y79186D01*
D02*
G37*
G36*
X57730Y69730D02*
X54750D01*
Y66500D01*
X57730D01*
Y69730D01*
D02*
G37*
G36*
X406000Y69569D02*
X404634Y69297D01*
X403477Y68523D01*
X402703Y67366D01*
X402431Y66000D01*
X402703Y64634D01*
X403477Y63477D01*
X404634Y62703D01*
X406000Y62431D01*
X407366Y62703D01*
X408523Y63477D01*
X409297Y64634D01*
X409569Y66000D01*
X409297Y67366D01*
X408523Y68523D01*
X407366Y69297D01*
X406000Y69569D01*
D02*
G37*
G36*
X51462Y69956D02*
X44232D01*
Y61726D01*
X51462D01*
Y69956D01*
D02*
G37*
G36*
X461010Y116466D02*
X456305Y116003D01*
X451781Y114630D01*
X447612Y112402D01*
X443957Y109403D01*
X440958Y105748D01*
X438730Y101579D01*
X437357Y97055D01*
X436894Y92350D01*
X437357Y87645D01*
X438730Y83121D01*
X440958Y78952D01*
X443957Y75297D01*
X447612Y72298D01*
X451781Y70070D01*
X456305Y68697D01*
X461010Y68234D01*
X465715Y68697D01*
X470239Y70070D01*
X474408Y72298D01*
X478063Y75297D01*
X481062Y78952D01*
X483290Y83121D01*
X484663Y87645D01*
X485126Y92350D01*
X484663Y97055D01*
X483290Y101579D01*
X481062Y105748D01*
X478063Y109403D01*
X474408Y112402D01*
X470239Y114630D01*
X465715Y116003D01*
X461010Y116466D01*
D02*
G37*
G36*
X128270D02*
X123565Y116003D01*
X119041Y114630D01*
X114872Y112402D01*
X111217Y109403D01*
X108218Y105748D01*
X105990Y101579D01*
X104617Y97055D01*
X104154Y92350D01*
X104617Y87645D01*
X105990Y83121D01*
X108218Y78952D01*
X111217Y75297D01*
X114872Y72298D01*
X119041Y70070D01*
X123565Y68697D01*
X128270Y68234D01*
X132975Y68697D01*
X137499Y70070D01*
X141668Y72298D01*
X145323Y75297D01*
X148322Y78952D01*
X150550Y83121D01*
X151923Y87645D01*
X152386Y92350D01*
X151923Y97055D01*
X150550Y101579D01*
X148322Y105748D01*
X145323Y109403D01*
X141668Y112402D01*
X137499Y114630D01*
X132975Y116003D01*
X128270Y116466D01*
D02*
G37*
G36*
X391750Y74069D02*
X390384Y73797D01*
X389227Y73023D01*
X388453Y71866D01*
X388181Y70500D01*
X388453Y69134D01*
X389227Y67977D01*
X390384Y67203D01*
X391750Y66931D01*
X393116Y67203D01*
X394273Y67977D01*
X395047Y69134D01*
X395319Y70500D01*
X395047Y71866D01*
X394273Y73023D01*
X393116Y73797D01*
X391750Y74069D01*
D02*
G37*
G36*
X224731Y108480D02*
X223252D01*
Y106500D01*
X224731D01*
Y108480D01*
D02*
G37*
G36*
X27712Y115456D02*
X19732D01*
Y105726D01*
X27712D01*
Y115456D01*
D02*
G37*
G36*
X17192D02*
X9212D01*
Y105726D01*
X17192D01*
Y115456D01*
D02*
G37*
G36*
X41692Y123186D02*
X34462D01*
Y114956D01*
X41692D01*
Y123186D01*
D02*
G37*
G36*
X584250Y153429D02*
X582884Y153157D01*
X581727Y152383D01*
X580953Y151226D01*
X580681Y149860D01*
X580953Y148494D01*
X581727Y147337D01*
X582884Y146563D01*
X584250Y146291D01*
X584611Y146363D01*
X585578Y145570D01*
Y134750D01*
X588238D01*
X589081Y133500D01*
X588931Y132750D01*
X588990Y132455D01*
X588285Y131205D01*
X583026D01*
Y121205D01*
X583065D01*
Y114249D01*
X595515D01*
X595515Y114249D01*
X595553Y114249D01*
X596765Y114250D01*
X597202D01*
X597500Y114126D01*
X603613D01*
X603629Y114102D01*
X602985Y112817D01*
X602480Y112790D01*
X602003D01*
X602003Y112790D01*
X596003D01*
X596003Y112790D01*
X595526Y112790D01*
X594302Y112852D01*
X594251Y112874D01*
X594250Y112873D01*
X594250Y112874D01*
X590741Y112874D01*
X590250Y112874D01*
X590197Y112868D01*
X589026Y112790D01*
X589026Y112790D01*
X583026D01*
Y107020D01*
X581153Y105147D01*
X580540Y104230D01*
X580375Y103400D01*
X580250D01*
Y97720D01*
X578747Y96217D01*
X577913Y96051D01*
X576755Y95278D01*
X575981Y94120D01*
X575710Y92754D01*
X575981Y91389D01*
X576755Y90231D01*
X577913Y89458D01*
X579278Y89186D01*
X580644Y89458D01*
X581802Y90231D01*
X582575Y91389D01*
X582741Y92223D01*
X585147Y94629D01*
X585147Y94629D01*
X585759Y95545D01*
X585869Y96100D01*
X587626D01*
Y94750D01*
X588102Y93602D01*
X593352Y88352D01*
X594500Y87876D01*
X605838Y87876D01*
X606986Y88352D01*
X609648Y91014D01*
X610124Y92162D01*
Y92447D01*
X611278Y92926D01*
X614352Y89852D01*
X615500Y89376D01*
X617269D01*
X617430Y88903D01*
X617581Y88126D01*
X616217Y86348D01*
X615310Y84159D01*
X615000Y81809D01*
X615310Y79460D01*
X616217Y77270D01*
X617659Y75391D01*
X619539Y73948D01*
X621729Y73041D01*
X624078Y72732D01*
X626427Y73041D01*
X628617Y73948D01*
X630497Y75391D01*
X631940Y77270D01*
X632846Y79460D01*
X633156Y81809D01*
X632846Y84159D01*
X631940Y86348D01*
X630575Y88126D01*
X630726Y88903D01*
X630887Y89376D01*
X637250D01*
X638398Y89852D01*
X640148Y91602D01*
X640624Y92750D01*
Y109750D01*
X640148Y110898D01*
X637398Y113648D01*
X636250Y114124D01*
X630790D01*
X630388Y115307D01*
X630497Y115390D01*
X631940Y117270D01*
X632846Y119460D01*
X632988Y120539D01*
X624078D01*
Y121809D01*
X622808D01*
Y130720D01*
X621729Y130578D01*
X619539Y129671D01*
X617874Y128393D01*
X616624Y128744D01*
Y130183D01*
X616393Y130739D01*
X616178Y131300D01*
X612575Y135102D01*
X612808Y135642D01*
Y141750D01*
Y147250D01*
X608577D01*
Y141124D01*
X607469Y140666D01*
X606624Y141385D01*
X606624Y147250D01*
X606577Y147361D01*
Y148750D01*
X605298D01*
X605000Y148874D01*
X592250D01*
X591952Y148750D01*
X588583D01*
X587790Y149716D01*
X587819Y149860D01*
X587547Y151226D01*
X586773Y152383D01*
X585616Y153157D01*
X584250Y153429D01*
D02*
G37*
G36*
X43942Y108956D02*
X36962D01*
Y106726D01*
X43942D01*
Y108956D01*
D02*
G37*
G36*
X419750Y102819D02*
X418384Y102547D01*
X417227Y101773D01*
X416453Y100616D01*
X416181Y99250D01*
X416453Y97884D01*
X417227Y96727D01*
X418384Y95953D01*
X419750Y95681D01*
X421116Y95953D01*
X422273Y96727D01*
X423047Y97884D01*
X423319Y99250D01*
X423047Y100616D01*
X422273Y101773D01*
X421116Y102547D01*
X419750Y102819D01*
D02*
G37*
G36*
X76569Y110590D02*
X55000D01*
X53852Y110114D01*
X53376Y108966D01*
Y108956D01*
X46482D01*
Y105456D01*
X45212D01*
Y104186D01*
X36962D01*
Y101956D01*
Y95456D01*
Y88956D01*
Y82456D01*
Y75956D01*
X44867D01*
X45212Y75887D01*
X53660D01*
X54750Y75500D01*
Y72270D01*
X59000D01*
Y71000D01*
X60270D01*
Y66500D01*
X63250D01*
Y70910D01*
X64730D01*
Y73660D01*
X67270D01*
Y70910D01*
X68524D01*
X68702Y70480D01*
X69850Y70004D01*
X85344D01*
X86492Y70480D01*
X86968Y71628D01*
Y81534D01*
X86492Y82682D01*
X85996Y82888D01*
X85825Y83125D01*
X85723Y84558D01*
X86049Y85046D01*
X86321Y86412D01*
X86049Y87778D01*
X85275Y88935D01*
X84118Y89709D01*
X82752Y89981D01*
X81386Y89709D01*
X80874Y89366D01*
X79624Y90034D01*
Y92413D01*
X80815Y93110D01*
X80874Y93105D01*
X82188Y92843D01*
X83554Y93115D01*
X84711Y93889D01*
X85485Y95046D01*
X85757Y96412D01*
X85485Y97778D01*
X84711Y98935D01*
X83554Y99709D01*
X82188Y99981D01*
X80874Y99719D01*
X80815Y99714D01*
X79624Y100411D01*
Y107535D01*
X79148Y108683D01*
X77717Y110114D01*
X76569Y110590D01*
D02*
G37*
G36*
X526450Y93912D02*
X524220D01*
Y92583D01*
X526450D01*
Y93912D01*
D02*
G37*
G36*
X393000Y95919D02*
X391634Y95647D01*
X390477Y94873D01*
X389703Y93716D01*
X389431Y92350D01*
X389703Y90984D01*
X390477Y89827D01*
X391634Y89053D01*
X393000Y88781D01*
X394366Y89053D01*
X395523Y89827D01*
X396297Y90984D01*
X396569Y92350D01*
X396297Y93716D01*
X395523Y94873D01*
X394366Y95647D01*
X393000Y95919D01*
D02*
G37*
G36*
X559500Y102069D02*
X558134Y101797D01*
X556977Y101023D01*
X556203Y99866D01*
X555931Y98500D01*
X556203Y97134D01*
X556977Y95977D01*
X558134Y95203D01*
X559500Y94931D01*
X560866Y95203D01*
X562023Y95977D01*
X562797Y97134D01*
X563069Y98500D01*
X562797Y99866D01*
X562023Y101023D01*
X560866Y101797D01*
X559500Y102069D01*
D02*
G37*
G36*
X27712Y103186D02*
X19732D01*
Y93456D01*
X27712D01*
Y103186D01*
D02*
G37*
G36*
X17192D02*
X9212D01*
Y93456D01*
X17192D01*
Y103186D01*
D02*
G37*
G36*
X41692Y69956D02*
X34462D01*
Y61726D01*
X41692D01*
Y69956D01*
D02*
G37*
G36*
X563000Y20819D02*
X561634Y20547D01*
X560477Y19773D01*
X559703Y18616D01*
X559431Y17250D01*
X559703Y15884D01*
X560477Y14727D01*
X561634Y13953D01*
X563000Y13681D01*
X564366Y13953D01*
X565523Y14727D01*
X566297Y15884D01*
X566569Y17250D01*
X566297Y18616D01*
X565523Y19773D01*
X564366Y20547D01*
X563000Y20819D01*
D02*
G37*
G36*
X578612Y29144D02*
X576263Y28834D01*
X574073Y27927D01*
X572193Y26485D01*
X570751Y24605D01*
X569844Y22415D01*
X569534Y20066D01*
X569844Y17716D01*
X570751Y15527D01*
X572193Y13647D01*
X574073Y12205D01*
X576263Y11298D01*
X578612Y10988D01*
X580961Y11298D01*
X583151Y12205D01*
X585031Y13647D01*
X586474Y15527D01*
X587380Y17716D01*
X587690Y20066D01*
X587380Y22415D01*
X586474Y24605D01*
X585031Y26485D01*
X583151Y27927D01*
X580961Y28834D01*
X578612Y29144D01*
D02*
G37*
G36*
X70245Y16510D02*
X62484D01*
Y8748D01*
X63595Y8895D01*
X65813Y9814D01*
X67719Y11276D01*
X69180Y13181D01*
X70099Y15399D01*
X70245Y16510D01*
D02*
G37*
G36*
X62484Y26811D02*
Y19050D01*
X70245D01*
X70099Y20161D01*
X69180Y22379D01*
X67719Y24285D01*
X65813Y25746D01*
X63595Y26665D01*
X62484Y26811D01*
D02*
G37*
G36*
X59944D02*
X58833Y26665D01*
X56615Y25746D01*
X54710Y24285D01*
X53248Y22379D01*
X52329Y20161D01*
X52182Y19050D01*
X59944D01*
Y26811D01*
D02*
G37*
G36*
X530202Y21271D02*
X528836Y20999D01*
X527679Y20225D01*
X526905Y19068D01*
X526633Y17702D01*
X526905Y16336D01*
X527679Y15179D01*
X528836Y14405D01*
X530202Y14133D01*
X531568Y14405D01*
X532725Y15179D01*
X533499Y16336D01*
X533771Y17702D01*
X533499Y19068D01*
X532725Y20225D01*
X531568Y20999D01*
X530202Y21271D01*
D02*
G37*
G36*
X59944Y16510D02*
X52182D01*
X52329Y15399D01*
X53248Y13181D01*
X54710Y11276D01*
X56615Y9814D01*
X58833Y8895D01*
X59944Y8748D01*
Y16510D01*
D02*
G37*
G36*
X33321Y19200D02*
X20470D01*
Y4016D01*
X22855Y4330D01*
X26260Y5741D01*
X29185Y7985D01*
X31429Y10910D01*
X32840Y14315D01*
X33321Y17970D01*
Y19200D01*
D02*
G37*
G36*
X17930D02*
X5079D01*
Y17970D01*
X5560Y14315D01*
X6971Y10910D01*
X9215Y7985D01*
X12140Y5741D01*
X15545Y4330D01*
X17930Y4016D01*
Y19200D01*
D02*
G37*
G36*
X629158Y36621D02*
X625503Y36140D01*
X622098Y34729D01*
X619173Y32485D01*
X616929Y29560D01*
X615518Y26155D01*
X615037Y22500D01*
Y17500D01*
X615518Y13845D01*
X616929Y10440D01*
X619173Y7515D01*
X622098Y5271D01*
X625503Y3860D01*
X629158Y3379D01*
X632813Y3860D01*
X636218Y5271D01*
X639143Y7515D01*
X641387Y10440D01*
X642798Y13845D01*
X643279Y17500D01*
Y22500D01*
X642798Y26155D01*
X641387Y29560D01*
X639143Y32485D01*
X636218Y34729D01*
X632813Y36140D01*
X629158Y36621D01*
D02*
G37*
G36*
X137414Y26979D02*
X135033Y26665D01*
X132815Y25746D01*
X130910Y24285D01*
X129448Y22379D01*
X128529Y20161D01*
X128215Y17780D01*
X128529Y15399D01*
X129448Y13181D01*
X130910Y11276D01*
X132815Y9814D01*
X135033Y8895D01*
X137414Y8581D01*
X139795Y8895D01*
X142013Y9814D01*
X143919Y11276D01*
X145380Y13181D01*
X146299Y15399D01*
X146613Y17780D01*
X146299Y20161D01*
X145380Y22379D01*
X143919Y24285D01*
X142013Y25746D01*
X139795Y26665D01*
X137414Y26979D01*
D02*
G37*
G36*
X112014D02*
X109633Y26665D01*
X107415Y25746D01*
X105510Y24285D01*
X104048Y22379D01*
X103129Y20161D01*
X102815Y17780D01*
X103129Y15399D01*
X104048Y13181D01*
X105510Y11276D01*
X107415Y9814D01*
X109633Y8895D01*
X112014Y8581D01*
X114395Y8895D01*
X116613Y9814D01*
X118518Y11276D01*
X119980Y13181D01*
X120899Y15399D01*
X121213Y17780D01*
X120899Y20161D01*
X119980Y22379D01*
X118518Y24285D01*
X116613Y25746D01*
X114395Y26665D01*
X112014Y26979D01*
D02*
G37*
G36*
X86614D02*
X84233Y26665D01*
X82015Y25746D01*
X80110Y24285D01*
X78648Y22379D01*
X77729Y20161D01*
X77415Y17780D01*
X77729Y15399D01*
X78648Y13181D01*
X80110Y11276D01*
X82015Y9814D01*
X84233Y8895D01*
X86614Y8581D01*
X88995Y8895D01*
X91213Y9814D01*
X93118Y11276D01*
X94580Y13181D01*
X95499Y15399D01*
X95813Y17780D01*
X95499Y20161D01*
X94580Y22379D01*
X93118Y24285D01*
X91213Y25746D01*
X88995Y26665D01*
X86614Y26979D01*
D02*
G37*
G36*
X322750Y63819D02*
X321384Y63547D01*
X320227Y62773D01*
X319453Y61616D01*
X319181Y60250D01*
X319453Y58884D01*
X320227Y57727D01*
X321384Y56953D01*
X322750Y56681D01*
X324116Y56953D01*
X325273Y57727D01*
X326047Y58884D01*
X326319Y60250D01*
X326047Y61616D01*
X325273Y62773D01*
X324116Y63547D01*
X322750Y63819D01*
D02*
G37*
G36*
X27827Y58186D02*
X19732D01*
Y53338D01*
X21962D01*
X24303Y53804D01*
X26288Y55130D01*
X27614Y57115D01*
X27827Y58186D01*
D02*
G37*
G36*
X17192D02*
X9097D01*
X9310Y57115D01*
X10636Y55130D01*
X12621Y53804D01*
X14962Y53338D01*
X17192D01*
Y58186D01*
D02*
G37*
G36*
X562500Y75819D02*
X561134Y75547D01*
X559977Y74773D01*
X559203Y73616D01*
X558931Y72250D01*
X559203Y70884D01*
X559977Y69727D01*
X561134Y68953D01*
X561581Y68864D01*
X561768Y67552D01*
X560977Y67023D01*
X560203Y65866D01*
X559931Y64500D01*
X560203Y63134D01*
X560977Y61977D01*
X562134Y61203D01*
X563500Y60931D01*
X564866Y61203D01*
X566023Y61977D01*
X566797Y63134D01*
X567069Y64500D01*
X566797Y65866D01*
X566023Y67023D01*
X564866Y67797D01*
X564419Y67886D01*
X564231Y69198D01*
X565023Y69727D01*
X565797Y70884D01*
X566069Y72250D01*
X565797Y73616D01*
X565023Y74773D01*
X563866Y75547D01*
X562500Y75819D01*
D02*
G37*
G36*
X21962Y65574D02*
X19732D01*
Y60726D01*
X27827D01*
X27614Y61797D01*
X26288Y63782D01*
X24303Y65108D01*
X21962Y65574D01*
D02*
G37*
G36*
X17192D02*
X14962D01*
X12621Y65108D01*
X10636Y63782D01*
X9310Y61797D01*
X9097Y60726D01*
X17192D01*
Y65574D01*
D02*
G37*
G36*
X624078Y70887D02*
X621729Y70578D01*
X619539Y69671D01*
X617659Y68228D01*
X616217Y66348D01*
X615310Y64159D01*
X615000Y61809D01*
X615310Y59460D01*
X616217Y57270D01*
X617659Y55391D01*
X619539Y53948D01*
X621729Y53041D01*
X624078Y52732D01*
X626427Y53041D01*
X628617Y53948D01*
X630497Y55391D01*
X631940Y57270D01*
X632846Y59460D01*
X633156Y61809D01*
X632846Y64159D01*
X631940Y66348D01*
X630497Y68228D01*
X628617Y69671D01*
X626427Y70578D01*
X624078Y70887D01*
D02*
G37*
G36*
X558560Y51144D02*
X556330D01*
X556151Y50576D01*
X548151D01*
Y49400D01*
X497726D01*
X496645Y49185D01*
X495728Y48573D01*
X495728Y48573D01*
X488405Y41250D01*
X485850D01*
Y30350D01*
X486676D01*
Y25861D01*
X484919Y25134D01*
X483039Y23691D01*
X481596Y21811D01*
X480690Y19621D01*
X480380Y17272D01*
X480690Y14922D01*
X481596Y12733D01*
X483039Y10853D01*
X484919Y9410D01*
X487108Y8504D01*
X489458Y8194D01*
X491808Y8504D01*
X493997Y9410D01*
X495877Y10853D01*
X497319Y12733D01*
X498226Y14922D01*
X498536Y17272D01*
X498226Y19621D01*
X497319Y21811D01*
X495877Y23691D01*
X493997Y25134D01*
X492324Y25826D01*
Y30350D01*
X493150D01*
Y38006D01*
X498895Y43752D01*
X526578D01*
X527256Y42502D01*
X527214Y42291D01*
X526511Y41304D01*
X525815Y41175D01*
X518150D01*
Y41250D01*
X510850D01*
Y30350D01*
X511676D01*
Y25799D01*
X510065Y25131D01*
X508185Y23689D01*
X506743Y21809D01*
X505836Y19619D01*
X505526Y17270D01*
X505836Y14921D01*
X506743Y12731D01*
X508185Y10851D01*
X510065Y9409D01*
X512254Y8502D01*
X514604Y8192D01*
X516954Y8502D01*
X519143Y9409D01*
X519902Y9991D01*
X520404Y10091D01*
X521230Y10644D01*
X521783Y11471D01*
X521883Y11972D01*
X522466Y12731D01*
X523372Y14921D01*
X523682Y17270D01*
X523372Y19619D01*
X522466Y21809D01*
X521023Y23689D01*
X519143Y25131D01*
X517324Y25885D01*
Y30350D01*
X518150D01*
Y35526D01*
X525249D01*
X526273Y34502D01*
X525880Y33127D01*
X524977Y32523D01*
X524203Y31366D01*
X523931Y30000D01*
X524203Y28634D01*
X524977Y27477D01*
X526134Y26703D01*
X527500Y26431D01*
X528866Y26703D01*
X530023Y27477D01*
X530627Y28380D01*
X532002Y28773D01*
X532792Y27983D01*
X533708Y27371D01*
X534789Y27156D01*
X534789Y27156D01*
X552230D01*
X552230Y27156D01*
X553311Y27371D01*
X554227Y27983D01*
X558305Y32061D01*
X558305Y32061D01*
X558917Y32977D01*
X559132Y34058D01*
X560308Y34276D01*
Y41899D01*
X563330D01*
Y42206D01*
X565542D01*
Y41054D01*
X569483D01*
X570183Y39804D01*
X569974Y38750D01*
X570245Y37384D01*
X571019Y36227D01*
X572177Y35453D01*
X573542Y35181D01*
X574908Y35453D01*
X576065Y36227D01*
X576839Y37384D01*
X577111Y38750D01*
X576839Y40116D01*
X576442Y41054D01*
X576442Y41054D01*
X576442Y41054D01*
Y48354D01*
X565542D01*
Y46794D01*
X563330D01*
Y47274D01*
X559830D01*
Y48544D01*
X558560D01*
Y51144D01*
D02*
G37*
G36*
X20470Y36924D02*
Y21740D01*
X33321D01*
Y22970D01*
X32840Y26625D01*
X31429Y30030D01*
X29185Y32955D01*
X26260Y35199D01*
X22855Y36610D01*
X20470Y36924D01*
D02*
G37*
G36*
X17930D02*
X15545Y36610D01*
X12140Y35199D01*
X9215Y32955D01*
X6971Y30030D01*
X5560Y26625D01*
X5079Y22970D01*
Y21740D01*
X17930D01*
Y36924D01*
D02*
G37*
G36*
X51462Y59186D02*
X44232D01*
Y50956D01*
X51462D01*
Y59186D01*
D02*
G37*
G36*
X41692D02*
X34462D01*
Y50956D01*
X41692D01*
Y59186D01*
D02*
G37*
G36*
X563330Y51144D02*
X561100D01*
Y49814D01*
X563330D01*
Y51144D01*
D02*
G37*
G36*
X51462Y123186D02*
X44232D01*
Y114956D01*
X51462D01*
Y123186D01*
D02*
G37*
G36*
X253730Y178000D02*
X251350D01*
Y177100D01*
X248520D01*
Y173500D01*
X247250D01*
Y172230D01*
X242750D01*
Y169900D01*
Y161323D01*
X242248Y160572D01*
X241836Y158500D01*
Y145566D01*
X241836Y145566D01*
X242248Y143494D01*
X243422Y141738D01*
X260983Y124177D01*
X260803Y122814D01*
X261117Y120433D01*
X262036Y118215D01*
X263498Y116309D01*
X265403Y114848D01*
X267621Y113929D01*
X270002Y113615D01*
X272383Y113929D01*
X274601Y114848D01*
X276507Y116309D01*
X277968Y118215D01*
X278887Y120433D01*
X278968Y121046D01*
X282922Y125000D01*
X292500D01*
Y136000D01*
X281500D01*
X281500Y136000D01*
X280765Y135914D01*
X280323Y135826D01*
X280322Y135826D01*
X280274Y135816D01*
X278693Y135502D01*
X276937Y134328D01*
X276937Y134328D01*
X273744Y131136D01*
X272383Y131699D01*
X270002Y132013D01*
X268639Y131833D01*
X253324Y147149D01*
X253422Y147837D01*
X254725Y148736D01*
X255000Y148681D01*
X256366Y148953D01*
X257523Y149727D01*
X258297Y150884D01*
X258568Y152250D01*
X258297Y153616D01*
X257523Y154773D01*
X258047Y155901D01*
X258231Y156101D01*
X258650D01*
Y167000D01*
X258650D01*
Y167101D01*
X258650D01*
Y172201D01*
Y173831D01*
X255000D01*
Y175100D01*
X253730D01*
Y178000D01*
D02*
G37*
G36*
X19200Y181791D02*
X15545Y181310D01*
X12140Y179899D01*
X9215Y177655D01*
X6971Y174730D01*
X5560Y171325D01*
X5079Y167670D01*
Y162670D01*
X5560Y159015D01*
X6971Y155610D01*
X9215Y152685D01*
X12140Y150441D01*
X15545Y149030D01*
X19200Y148549D01*
X22855Y149030D01*
X26260Y150441D01*
X29185Y152685D01*
X31429Y155610D01*
X32840Y159015D01*
X33321Y162670D01*
Y167670D01*
X32840Y171325D01*
X31429Y174730D01*
X29185Y177655D01*
X26260Y179899D01*
X22855Y181310D01*
X19200Y181791D01*
D02*
G37*
G36*
X643279Y163430D02*
X630428D01*
Y148246D01*
X632813Y148560D01*
X636218Y149971D01*
X639143Y152215D01*
X641387Y155140D01*
X642798Y158545D01*
X643279Y162200D01*
Y163430D01*
D02*
G37*
G36*
X50096Y154838D02*
X44786D01*
Y150798D01*
X50096D01*
Y154838D01*
D02*
G37*
G36*
X42246D02*
X36936D01*
Y150798D01*
X42246D01*
Y154838D01*
D02*
G37*
G36*
X90250Y163108D02*
X88104Y162681D01*
X86285Y161465D01*
X85069Y159646D01*
X84642Y157500D01*
X85069Y155354D01*
X86131Y153765D01*
Y151750D01*
X84750D01*
Y150686D01*
X82750D01*
Y151480D01*
X79500D01*
Y152750D01*
X78230D01*
Y155500D01*
X77250D01*
Y156731D01*
X74000D01*
X70750D01*
Y151918D01*
X57936D01*
Y141896D01*
X57936Y141298D01*
X57040Y140443D01*
X56884Y140412D01*
X55875Y139738D01*
X54866Y140412D01*
X53500Y140684D01*
X52134Y140412D01*
X50977Y139639D01*
X50203Y138481D01*
X49931Y137115D01*
X50203Y135750D01*
X50640Y135096D01*
X49960Y133956D01*
X44232D01*
Y125726D01*
X51462D01*
Y128097D01*
X52712Y128922D01*
X53500Y128765D01*
X54866Y129037D01*
X55875Y129712D01*
X56884Y129037D01*
X58250Y128765D01*
X59616Y129037D01*
X60773Y129811D01*
X61547Y130968D01*
X61819Y132334D01*
X61547Y133700D01*
X60862Y134725D01*
X61547Y135750D01*
X61819Y137115D01*
X61547Y138481D01*
X60773Y139639D01*
X60161Y140048D01*
X60540Y141298D01*
X71096D01*
Y142530D01*
X84750D01*
Y140750D01*
X95750D01*
Y151750D01*
X94369D01*
Y153765D01*
X95431Y155354D01*
X95858Y157500D01*
X95431Y159646D01*
X94215Y161465D01*
X92396Y162681D01*
X90250Y163108D01*
D02*
G37*
G36*
X630428Y181154D02*
Y165970D01*
X643279D01*
Y167200D01*
X642798Y170855D01*
X641387Y174260D01*
X639143Y177185D01*
X636218Y179429D01*
X632813Y180840D01*
X630428Y181154D01*
D02*
G37*
G36*
X216692Y180624D02*
X188692D01*
Y152624D01*
X188836D01*
Y148750D01*
X188750D01*
Y137750D01*
X199750D01*
Y148750D01*
X199664D01*
Y152624D01*
X216692D01*
Y169381D01*
X223750D01*
Y161770D01*
X228250D01*
Y160500D01*
X229520D01*
Y156900D01*
X232750D01*
X233176Y155827D01*
Y154150D01*
X232220D01*
Y150500D01*
X230950D01*
Y149230D01*
X228050D01*
Y146850D01*
X228050D01*
Y146650D01*
X228050D01*
Y145294D01*
X226639D01*
X225877Y145804D01*
X224511Y146075D01*
X223145Y145804D01*
X221988Y145030D01*
X221214Y143873D01*
X220942Y142507D01*
X221214Y141141D01*
X221988Y139984D01*
X223145Y139210D01*
X224066Y139027D01*
X224114Y138901D01*
X224198Y137726D01*
X223326Y137143D01*
X222553Y135986D01*
X222281Y134620D01*
X222553Y133254D01*
X223075Y132472D01*
Y129650D01*
X223000D01*
Y122350D01*
X223000Y122350D01*
X222950Y121150D01*
X222950D01*
X222950Y121121D01*
Y114125D01*
X222950Y113850D01*
X222950D01*
X223251Y113000D01*
X223252Y113000D01*
Y111020D01*
X226001D01*
Y109750D01*
X227271D01*
Y106500D01*
X233750D01*
Y107456D01*
X249550D01*
X256128Y100878D01*
X256872Y100381D01*
X257750Y100206D01*
X271323D01*
X271477Y99977D01*
X272634Y99203D01*
X274000Y98931D01*
X275366Y99203D01*
X276523Y99977D01*
X277220Y101018D01*
X277552Y101224D01*
X278496Y101510D01*
X290882Y89123D01*
X290828Y88853D01*
X291100Y87487D01*
X291874Y86330D01*
X293031Y85556D01*
X294397Y85284D01*
X295763Y85556D01*
X296920Y86330D01*
X297694Y87487D01*
X297966Y88853D01*
X297694Y90219D01*
X296920Y91376D01*
X295763Y92150D01*
X294397Y92422D01*
X294126Y92368D01*
X278122Y108372D01*
X277378Y108869D01*
X276500Y109044D01*
X263540D01*
X234484Y138100D01*
X235002Y139350D01*
X238950D01*
Y145600D01*
X238950Y146650D01*
X238950D01*
Y146850D01*
X238950D01*
Y154150D01*
X238824D01*
Y164608D01*
X238824Y164608D01*
X238609Y165689D01*
X237997Y166605D01*
X237997Y166605D01*
X235605Y168997D01*
X234689Y169609D01*
X233608Y169824D01*
X232750Y170640D01*
Y177100D01*
X230134D01*
X229826Y177306D01*
X228250Y177619D01*
X216692D01*
Y180624D01*
D02*
G37*
G36*
X619577Y147250D02*
X615348D01*
Y143020D01*
X619577D01*
Y147250D01*
D02*
G37*
G36*
X627888Y163430D02*
X615037D01*
Y162200D01*
X615518Y158545D01*
X616929Y155140D01*
X619173Y152215D01*
X622098Y149971D01*
X625503Y148560D01*
X627888Y148246D01*
Y163430D01*
D02*
G37*
G36*
Y181154D02*
X625503Y180840D01*
X622098Y179429D01*
X619173Y177185D01*
X616929Y174260D01*
X615518Y170855D01*
X615037Y167200D01*
Y165970D01*
X627888D01*
Y181154D01*
D02*
G37*
G36*
X440000Y153429D02*
X438634Y153157D01*
X437477Y152383D01*
X436703Y151226D01*
X436431Y149860D01*
X436703Y148494D01*
X437477Y147337D01*
X438634Y146563D01*
X440000Y146291D01*
X441366Y146563D01*
X442523Y147337D01*
X443297Y148494D01*
X443569Y149860D01*
X443297Y151226D01*
X442523Y152383D01*
X441366Y153157D01*
X440000Y153429D01*
D02*
G37*
G36*
X42246Y161418D02*
X36936D01*
Y157378D01*
X42246D01*
Y161418D01*
D02*
G37*
G36*
X226980Y159230D02*
X223750D01*
Y156900D01*
X226980D01*
Y159230D01*
D02*
G37*
G36*
X595376Y173924D02*
X593027Y173614D01*
X590837Y172708D01*
X588957Y171265D01*
X587514Y169385D01*
X586608Y167195D01*
X586298Y164846D01*
X586608Y162496D01*
X587514Y160307D01*
X588957Y158427D01*
X590837Y156985D01*
X593027Y156078D01*
X595376Y155768D01*
X597725Y156078D01*
X599915Y156985D01*
X601795Y158427D01*
X603237Y160307D01*
X604144Y162496D01*
X604454Y164846D01*
X604144Y167195D01*
X603237Y169385D01*
X601795Y171265D01*
X599915Y172708D01*
X597725Y173614D01*
X595376Y173924D01*
D02*
G37*
G36*
X127000Y179124D02*
X77750D01*
X76602Y178648D01*
X68995Y171042D01*
X67750D01*
X67452Y170918D01*
X57936D01*
Y160298D01*
X67336D01*
X67750Y160126D01*
X70750D01*
Y159271D01*
X74000D01*
X77250D01*
Y160126D01*
X79000D01*
X80148Y160602D01*
X83923Y164376D01*
X127000Y164376D01*
X128148Y164852D01*
X130398Y167102D01*
X130874Y168250D01*
X130874Y175250D01*
X130398Y176398D01*
X128148Y178648D01*
X127000Y179124D01*
D02*
G37*
G36*
X513842Y176718D02*
X511493Y176408D01*
X509303Y175501D01*
X507423Y174059D01*
X505980Y172179D01*
X505074Y169989D01*
X504764Y167640D01*
X505074Y165291D01*
X505980Y163101D01*
X507423Y161221D01*
X509303Y159778D01*
X510081Y159457D01*
X510446Y158358D01*
X510446D01*
Y147458D01*
X517746D01*
Y148064D01*
X524373D01*
X524527Y147835D01*
X525684Y147061D01*
X525817Y147035D01*
X525962Y146885D01*
X526363Y145652D01*
X526190Y145394D01*
X526016Y144516D01*
Y140810D01*
X525410D01*
Y133510D01*
X531360D01*
Y129148D01*
X530004D01*
Y128542D01*
X521205D01*
X521196Y128544D01*
X510450D01*
X492786Y146208D01*
X493108Y147458D01*
X493108D01*
Y158358D01*
X493108D01*
X493219Y159562D01*
X493743Y159778D01*
X495623Y161221D01*
X497066Y163101D01*
X497972Y165291D01*
X498282Y167640D01*
X497972Y169989D01*
X497066Y172179D01*
X495623Y174059D01*
X493743Y175501D01*
X491553Y176408D01*
X489204Y176718D01*
X486855Y176408D01*
X484665Y175501D01*
X482785Y174059D01*
X481343Y172179D01*
X480436Y169989D01*
X480126Y167640D01*
X480436Y165291D01*
X481343Y163101D01*
X482785Y161221D01*
X484665Y159778D01*
X485443Y159457D01*
X485808Y158358D01*
X485808D01*
Y147458D01*
X487164D01*
Y146292D01*
X487313Y145544D01*
X487261Y145299D01*
X486584Y144294D01*
X468968D01*
X467054Y146208D01*
X467572Y147458D01*
X467708D01*
Y158358D01*
X468380Y159330D01*
X468851Y159524D01*
X470731Y160967D01*
X472174Y162847D01*
X473080Y165037D01*
X473390Y167386D01*
X473080Y169736D01*
X472174Y171925D01*
X470731Y173805D01*
X468851Y175247D01*
X466661Y176154D01*
X464312Y176464D01*
X461963Y176154D01*
X459773Y175247D01*
X457893Y173805D01*
X456451Y171925D01*
X455544Y169736D01*
X455234Y167386D01*
X455544Y165037D01*
X456451Y162847D01*
X457893Y160967D01*
X459773Y159524D01*
X459990Y159435D01*
X460408Y158358D01*
X460408D01*
Y147458D01*
X461764D01*
Y145960D01*
X461939Y145082D01*
X462436Y144338D01*
X465308Y141466D01*
X464790Y140216D01*
X419162D01*
X405006Y154372D01*
X404262Y154869D01*
X403384Y155044D01*
X340748D01*
X340499Y155386D01*
X340194Y156294D01*
X340797Y157196D01*
X341069Y158562D01*
X340797Y159928D01*
X340023Y161085D01*
X338866Y161859D01*
X337500Y162131D01*
X337105Y162052D01*
X336042Y163115D01*
X336069Y163250D01*
X335797Y164616D01*
X335023Y165773D01*
X333866Y166547D01*
X332500Y166819D01*
X331758Y167945D01*
X331547Y169006D01*
X330773Y170163D01*
X329616Y170937D01*
X328250Y171209D01*
X326884Y170937D01*
X325727Y170163D01*
X324953Y169006D01*
X324681Y167640D01*
X324953Y166274D01*
X325727Y165117D01*
X326884Y164343D01*
X328250Y164071D01*
X328992Y162945D01*
X329203Y161884D01*
X329977Y160727D01*
X331134Y159953D01*
X332500Y159681D01*
X332895Y159760D01*
X333958Y158697D01*
X333931Y158562D01*
X334203Y157196D01*
X334806Y156294D01*
X334501Y155386D01*
X334252Y155044D01*
X326927D01*
X326773Y155273D01*
X325616Y156047D01*
X324250Y156319D01*
X322884Y156047D01*
X321727Y155273D01*
X320953Y154116D01*
X320681Y152750D01*
X320953Y151384D01*
X321727Y150227D01*
X322884Y149453D01*
X324250Y149181D01*
X325616Y149453D01*
X326773Y150227D01*
X326927Y150456D01*
X402434D01*
X416590Y136300D01*
X416590Y136300D01*
X417334Y135803D01*
X418212Y135628D01*
X418212Y135628D01*
X485968D01*
X494956Y126640D01*
Y86962D01*
X494480D01*
Y79662D01*
X505380D01*
Y80259D01*
X508550D01*
Y76618D01*
X510780D01*
Y79218D01*
X513320D01*
Y76618D01*
X515550D01*
X515550Y76618D01*
Y76618D01*
X516036Y75543D01*
X516138Y75154D01*
X513659Y72674D01*
X481100D01*
X480019Y72459D01*
X479103Y71847D01*
X479103Y71847D01*
X462503Y55247D01*
X461891Y54331D01*
X461676Y53250D01*
X461676Y53250D01*
Y41250D01*
X460850D01*
Y30350D01*
X461676D01*
Y25921D01*
X459773Y25134D01*
X457893Y23691D01*
X456451Y21811D01*
X455544Y19621D01*
X455234Y17272D01*
X455544Y14922D01*
X456451Y12733D01*
X457893Y10853D01*
X459773Y9410D01*
X461963Y8504D01*
X464312Y8194D01*
X466661Y8504D01*
X468851Y9410D01*
X470731Y10853D01*
X472174Y12733D01*
X473080Y14922D01*
X473390Y17272D01*
X473080Y19621D01*
X472174Y21811D01*
X470731Y23691D01*
X468851Y25134D01*
X467324Y25766D01*
Y30350D01*
X468150D01*
Y41250D01*
X467324D01*
Y52080D01*
X482270Y67026D01*
X514828D01*
X514829Y67026D01*
X515909Y67241D01*
X516826Y67853D01*
X520896Y71923D01*
X520899Y71924D01*
X521892Y72587D01*
X522555Y73580D01*
X522787Y74750D01*
Y77186D01*
X523729D01*
Y84655D01*
X526450D01*
Y84960D01*
X527950D01*
Y83726D01*
X535540D01*
X536019Y82571D01*
X529878Y76430D01*
X529381Y75686D01*
X529206Y74808D01*
Y73177D01*
X528977Y73023D01*
X528203Y71866D01*
X527931Y70500D01*
X528203Y69134D01*
X528977Y67977D01*
X530134Y67203D01*
X531500Y66931D01*
X532866Y67203D01*
X534023Y67977D01*
X534797Y69134D01*
X535069Y70500D01*
X534797Y71866D01*
X534023Y73023D01*
X534208Y74272D01*
X539950Y80014D01*
X541105Y79535D01*
Y76760D01*
X542585D01*
Y80010D01*
X545125D01*
Y76760D01*
X551603D01*
Y83260D01*
X551603D01*
X551804Y84234D01*
X553054Y84473D01*
X553847Y84315D01*
X555212Y84587D01*
X556370Y85361D01*
X557143Y86518D01*
X557415Y87884D01*
X557143Y89250D01*
X556370Y90407D01*
X555212Y91181D01*
X553847Y91453D01*
X553054Y91295D01*
X551804Y91534D01*
Y91534D01*
X551804Y91534D01*
X546098D01*
Y93124D01*
X551804D01*
Y95974D01*
X551963Y96774D01*
Y100716D01*
X552150Y100996D01*
X552422Y102362D01*
X552150Y103728D01*
X551377Y104885D01*
X550219Y105659D01*
X548853Y105931D01*
X547488Y105659D01*
X546330Y104885D01*
X545748Y104014D01*
X544360Y103634D01*
X536515Y111480D01*
X536569Y111750D01*
X536297Y113116D01*
X535523Y114273D01*
X534366Y115047D01*
X533000Y115319D01*
X531634Y115047D01*
X530477Y114273D01*
X529703Y113116D01*
X529431Y111750D01*
X529703Y110384D01*
X530477Y109227D01*
X531634Y108453D01*
X533000Y108181D01*
X533270Y108235D01*
X540179Y101327D01*
X540904Y100424D01*
X540904D01*
X540904Y100424D01*
Y93124D01*
X541510D01*
Y91534D01*
X540904D01*
Y87457D01*
X540005Y86557D01*
X538850Y87035D01*
Y91026D01*
X538850Y91026D01*
X538850D01*
X538850Y91026D01*
X539109Y92169D01*
X539237Y92360D01*
X539509Y93726D01*
X539237Y95092D01*
X538463Y96249D01*
X537306Y97023D01*
X535940Y97295D01*
X534574Y97023D01*
X533417Y96249D01*
X532643Y95092D01*
X532371Y93726D01*
X532643Y92360D01*
X532699Y92276D01*
X532031Y91026D01*
X527950D01*
Y89549D01*
X526450D01*
Y90042D01*
X522950D01*
Y91313D01*
X521680D01*
Y93912D01*
X519450D01*
Y93486D01*
X517866D01*
Y97179D01*
X518683Y97350D01*
X519116Y97409D01*
X520100Y97300D01*
Y97300D01*
X520216Y97300D01*
X527400D01*
Y108200D01*
X524467D01*
X521423Y111244D01*
X521475Y111506D01*
X521203Y112872D01*
X520429Y114029D01*
X519272Y114803D01*
X517906Y115075D01*
X516540Y114803D01*
X515383Y114029D01*
X514609Y112872D01*
X514337Y111506D01*
X514596Y110205D01*
X514589Y110189D01*
X514377Y109891D01*
X513735Y109199D01*
X513258Y109294D01*
X510677D01*
X510523Y109523D01*
X509366Y110297D01*
X508000Y110569D01*
X506634Y110297D01*
X505477Y109523D01*
X504703Y108366D01*
X504431Y107000D01*
X504703Y105634D01*
X505477Y104477D01*
X506634Y103703D01*
X508000Y103431D01*
X509366Y103703D01*
X510466Y104438D01*
X510793Y104371D01*
X511716Y104011D01*
Y97420D01*
X513278D01*
Y93486D01*
X511572D01*
Y91780D01*
X506078D01*
X502544Y95314D01*
Y128194D01*
X503794Y128712D01*
X507878Y124628D01*
X508622Y124131D01*
X509500Y123956D01*
X518345D01*
X519013Y122706D01*
X518953Y122616D01*
X518681Y121250D01*
X518953Y119884D01*
X519727Y118727D01*
X520884Y117953D01*
X522250Y117681D01*
X523616Y117953D01*
X524773Y118727D01*
X524927Y118956D01*
X530004D01*
Y118248D01*
X537304D01*
Y129148D01*
X535948D01*
Y133510D01*
X536310D01*
Y134866D01*
X539720D01*
Y133115D01*
X547188D01*
Y130394D01*
X547188D01*
X547179Y129148D01*
X546006D01*
Y118248D01*
X553306D01*
X553306Y118248D01*
X554477Y118056D01*
X555148Y117607D01*
X556514Y117335D01*
X557880Y117607D01*
X559037Y118381D01*
X559811Y119538D01*
X560083Y120904D01*
X559811Y122270D01*
X559037Y123427D01*
X557880Y124201D01*
X556514Y124473D01*
X555148Y124201D01*
X554556Y123805D01*
X553306Y124473D01*
Y129148D01*
X553306D01*
X553316Y130394D01*
X556446D01*
Y132624D01*
X553847D01*
Y135164D01*
X556446D01*
Y136969D01*
X556656Y137253D01*
X557480Y137917D01*
X558556Y137703D01*
X559922Y137975D01*
X560990Y138689D01*
X561447Y138586D01*
X562240Y138236D01*
Y137574D01*
X562846D01*
Y135730D01*
X562240D01*
Y128430D01*
X573140D01*
X573140Y128430D01*
X574390Y128745D01*
X575564Y128511D01*
X576930Y128783D01*
X578087Y129557D01*
X578861Y130714D01*
X579133Y132080D01*
X578861Y133446D01*
X578087Y134603D01*
X576930Y135377D01*
X575564Y135649D01*
X574390Y135415D01*
X573140Y135730D01*
Y135730D01*
X567434D01*
Y137574D01*
X573140D01*
X573140Y137574D01*
X574390Y137838D01*
X575310Y137655D01*
X576676Y137927D01*
X577833Y138701D01*
X578607Y139858D01*
X578879Y141224D01*
X578607Y142590D01*
X577833Y143747D01*
X576676Y144521D01*
X575310Y144793D01*
X574390Y144609D01*
X573140Y144874D01*
Y144874D01*
X562539D01*
X561730Y145913D01*
X562097Y146462D01*
X562369Y147828D01*
X562097Y149194D01*
X561323Y150351D01*
X561094Y150505D01*
Y155194D01*
X561094Y155194D01*
X560919Y156072D01*
X560422Y156816D01*
X560422Y156816D01*
X556268Y160970D01*
Y163574D01*
X557939Y164691D01*
X559155Y166510D01*
X559582Y168656D01*
X559155Y170802D01*
X557939Y172621D01*
X556120Y173837D01*
X553974Y174264D01*
X551828Y173837D01*
X550009Y172621D01*
X548793Y170802D01*
X548366Y168656D01*
X548793Y166510D01*
X550009Y164691D01*
X551680Y163574D01*
Y160020D01*
X551855Y159142D01*
X552352Y158398D01*
X556506Y154244D01*
Y150505D01*
X556277Y150351D01*
X555503Y149194D01*
X555231Y147828D01*
X555491Y146522D01*
X555496Y146450D01*
X554795Y145272D01*
X548396D01*
Y148294D01*
X548091D01*
Y151268D01*
X549242D01*
Y162168D01*
X545937D01*
X544943Y163161D01*
X545066Y164405D01*
X545493Y164691D01*
X546709Y166510D01*
X547136Y168656D01*
X546709Y170802D01*
X545493Y172621D01*
X543674Y173837D01*
X541528Y174264D01*
X539382Y173837D01*
X537563Y172621D01*
X536347Y170802D01*
X535920Y168656D01*
X536312Y166685D01*
X534990Y165362D01*
X533039D01*
X532434Y166612D01*
X532887Y167290D01*
X533159Y168656D01*
X532887Y170022D01*
X532113Y171179D01*
X530956Y171953D01*
X529590Y172225D01*
X528224Y171953D01*
X527067Y171179D01*
X526293Y170022D01*
X526021Y168656D01*
X526293Y167290D01*
X527003Y166228D01*
X526051Y165591D01*
X525277Y164434D01*
X525005Y163068D01*
X525277Y161702D01*
X526051Y160545D01*
X527208Y159771D01*
X528574Y159499D01*
X529940Y159771D01*
X531097Y160545D01*
X531251Y160774D01*
X533556D01*
X534507Y159524D01*
X534403Y159004D01*
X534457Y158734D01*
X532540Y156816D01*
X532043Y156072D01*
X531868Y155194D01*
Y152444D01*
X531458Y152140D01*
X531435Y152131D01*
X529845Y152474D01*
X529573Y152881D01*
X528416Y153655D01*
X527050Y153926D01*
X525684Y153655D01*
X524527Y152881D01*
X524373Y152652D01*
X517746D01*
Y158358D01*
X517746D01*
X517857Y159562D01*
X518381Y159778D01*
X520261Y161221D01*
X521703Y163101D01*
X522610Y165291D01*
X522920Y167640D01*
X522610Y169989D01*
X521703Y172179D01*
X520261Y174059D01*
X518381Y175501D01*
X516191Y176408D01*
X513842Y176718D01*
D02*
G37*
G36*
X50096Y161418D02*
X44786D01*
Y157378D01*
X50096D01*
Y161418D01*
D02*
G37*
G36*
X229680Y154150D02*
X228050D01*
Y151770D01*
X229680D01*
Y154150D01*
D02*
G37*
G36*
X502158Y158255D02*
X500792Y157983D01*
X499635Y157209D01*
X498861Y156052D01*
X498589Y154686D01*
X498861Y153320D01*
X499635Y152163D01*
X500792Y151389D01*
X502158Y151117D01*
X503524Y151389D01*
X504681Y152163D01*
X505455Y153320D01*
X505727Y154686D01*
X505455Y156052D01*
X504681Y157209D01*
X503524Y157983D01*
X502158Y158255D01*
D02*
G37*
G36*
X447500D02*
X446134Y157983D01*
X444977Y157209D01*
X444203Y156052D01*
X443931Y154686D01*
X444203Y153320D01*
X444977Y152163D01*
X446134Y151389D01*
X447500Y151117D01*
X448866Y151389D01*
X450023Y152163D01*
X450797Y153320D01*
X451069Y154686D01*
X450797Y156052D01*
X450023Y157209D01*
X448866Y157983D01*
X447500Y158255D01*
D02*
G37*
G36*
X294750Y169069D02*
X293384Y168797D01*
X292227Y168023D01*
X291453Y166866D01*
X291181Y165500D01*
X291453Y164134D01*
X292227Y162977D01*
X293384Y162203D01*
X294750Y161931D01*
X296116Y162203D01*
X297273Y162977D01*
X298047Y164134D01*
X298319Y165500D01*
X298047Y166866D01*
X297273Y168023D01*
X296116Y168797D01*
X294750Y169069D01*
D02*
G37*
G36*
X566928Y174268D02*
X564782Y173841D01*
X562963Y172625D01*
X561747Y170806D01*
X561320Y168660D01*
X561747Y166514D01*
X562963Y164695D01*
X564782Y163479D01*
X566928Y163052D01*
X569074Y163479D01*
X570893Y164695D01*
X572109Y166514D01*
X572536Y168660D01*
X572109Y170806D01*
X570893Y172625D01*
X569074Y173841D01*
X566928Y174268D01*
D02*
G37*
G36*
X82750Y155500D02*
X80770D01*
Y154020D01*
X82750D01*
Y155500D01*
D02*
G37*
G36*
X625348Y130720D02*
Y123079D01*
X632988D01*
X632846Y124159D01*
X631940Y126348D01*
X630497Y128228D01*
X628617Y129671D01*
X626427Y130578D01*
X625348Y130720D01*
D02*
G37*
G36*
X143480Y181147D02*
X142792Y181057D01*
X140968Y180301D01*
X139401Y179099D01*
X138199Y177532D01*
X137443Y175708D01*
X137353Y175020D01*
X143480D01*
Y181147D01*
D02*
G37*
G36*
X97250Y138750D02*
X83250D01*
Y138739D01*
X82865D01*
X81717Y138264D01*
X77828Y134374D01*
X73250D01*
X72102Y133898D01*
X67852Y129648D01*
X67376Y128500D01*
Y122750D01*
X67852Y121602D01*
X72485Y116969D01*
X73633Y116493D01*
X94617D01*
X95765Y116969D01*
X96546Y117750D01*
X97250D01*
Y118952D01*
X97374Y119250D01*
Y124131D01*
X100765D01*
X102354Y123069D01*
X104500Y122642D01*
X106646Y123069D01*
X108465Y124285D01*
X109681Y126104D01*
X110108Y128250D01*
X109871Y129440D01*
X110922Y130241D01*
X112288Y129969D01*
X113654Y130241D01*
X114404Y130743D01*
X115534Y130018D01*
X115431Y129500D01*
X115703Y128134D01*
X116477Y126977D01*
X117634Y126203D01*
X118943Y125943D01*
X119203Y124634D01*
X119977Y123477D01*
X121134Y122703D01*
X122500Y122431D01*
X123866Y122703D01*
X125023Y123477D01*
X125797Y124634D01*
X126069Y126000D01*
X125797Y127366D01*
X125023Y128523D01*
X123866Y129297D01*
X122557Y129557D01*
X122297Y130866D01*
X121523Y132023D01*
X120366Y132797D01*
X119000Y133069D01*
X117634Y132797D01*
X116884Y132296D01*
X115753Y133020D01*
X115857Y133538D01*
X115585Y134904D01*
X114811Y136061D01*
X113654Y136835D01*
X112288Y137107D01*
X110922Y136835D01*
X109765Y136061D01*
X108991Y134904D01*
X108719Y133538D01*
X107592Y132799D01*
X106646Y133431D01*
X104500Y133858D01*
X102354Y133431D01*
X100765Y132369D01*
X97374D01*
Y137115D01*
X97250Y137414D01*
Y138750D01*
D02*
G37*
G36*
X21962Y131573D02*
X19732D01*
Y126726D01*
X27827D01*
X27614Y127797D01*
X26288Y129782D01*
X24303Y131108D01*
X21962Y131573D01*
D02*
G37*
G36*
X17192D02*
X14962D01*
X12621Y131108D01*
X10636Y129782D01*
X9310Y127797D01*
X9097Y126726D01*
X17192D01*
Y131573D01*
D02*
G37*
G36*
X41692Y133956D02*
X34462D01*
Y125726D01*
X41692D01*
Y133956D01*
D02*
G37*
G36*
X258650Y178000D02*
X256270D01*
Y176371D01*
X258650D01*
Y178000D01*
D02*
G37*
G36*
X315750Y124819D02*
X314384Y124547D01*
X313227Y123773D01*
X312453Y122616D01*
X312181Y121250D01*
X312453Y119884D01*
X313227Y118727D01*
X314384Y117953D01*
X315750Y117681D01*
X317116Y117953D01*
X318273Y118727D01*
X319047Y119884D01*
X319319Y121250D01*
X319047Y122616D01*
X318273Y123773D01*
X317116Y124547D01*
X315750Y124819D01*
D02*
G37*
G36*
X159311D02*
X157945Y124547D01*
X156787Y123773D01*
X156014Y122616D01*
X155742Y121250D01*
X156014Y119884D01*
X156787Y118727D01*
X157945Y117953D01*
X159311Y117681D01*
X160676Y117953D01*
X161834Y118727D01*
X162608Y119884D01*
X162879Y121250D01*
X162608Y122616D01*
X161834Y123773D01*
X160676Y124547D01*
X159311Y124819D01*
D02*
G37*
G36*
X27827Y124186D02*
X19732D01*
Y119339D01*
X21962D01*
X24303Y119804D01*
X26288Y121130D01*
X27614Y123115D01*
X27827Y124186D01*
D02*
G37*
G36*
X17192D02*
X9097D01*
X9310Y123115D01*
X10636Y121130D01*
X12621Y119804D01*
X14962Y119339D01*
X17192D01*
Y124186D01*
D02*
G37*
G36*
X197702Y126069D02*
X196336Y125797D01*
X195178Y125023D01*
X194405Y123866D01*
X194133Y122500D01*
X194405Y121134D01*
X195178Y119977D01*
X196336Y119203D01*
X197702Y118931D01*
X199067Y119203D01*
X200225Y119977D01*
X200999Y121134D01*
X201270Y122500D01*
X200999Y123866D01*
X200225Y125023D01*
X199067Y125797D01*
X197702Y126069D01*
D02*
G37*
G36*
X392684Y144031D02*
X391318Y143759D01*
X390161Y142985D01*
X389387Y141828D01*
X389115Y140462D01*
X389387Y139096D01*
X390161Y137939D01*
X391318Y137165D01*
X392684Y136893D01*
X394050Y137165D01*
X395207Y137939D01*
X395981Y139096D01*
X396253Y140462D01*
X395981Y141828D01*
X395207Y142985D01*
X394050Y143759D01*
X392684Y144031D01*
D02*
G37*
G36*
X342000Y176819D02*
X340634Y176547D01*
X339477Y175773D01*
X338703Y174616D01*
X338431Y173250D01*
X338703Y171884D01*
X339477Y170727D01*
X340634Y169953D01*
X342000Y169681D01*
X343366Y169953D01*
X344523Y170727D01*
X345297Y171884D01*
X345569Y173250D01*
X345297Y174616D01*
X344523Y175773D01*
X343366Y176547D01*
X342000Y176819D01*
D02*
G37*
G36*
X619577Y140480D02*
X615348D01*
Y136250D01*
X619577D01*
Y140480D01*
D02*
G37*
G36*
X429000Y149111D02*
X427634Y148839D01*
X426477Y148065D01*
X425703Y146908D01*
X425431Y145542D01*
X425703Y144176D01*
X426477Y143019D01*
X427634Y142245D01*
X429000Y141973D01*
X430366Y142245D01*
X431523Y143019D01*
X432297Y144176D01*
X432569Y145542D01*
X432297Y146908D01*
X431523Y148065D01*
X430366Y148839D01*
X429000Y149111D01*
D02*
G37*
G36*
X299000Y153569D02*
X297634Y153297D01*
X296477Y152523D01*
X295703Y151366D01*
X295431Y150000D01*
X295703Y148634D01*
X296477Y147477D01*
X297634Y146703D01*
X299000Y146431D01*
X300366Y146703D01*
X301435Y147418D01*
X302227Y146523D01*
X301453Y145366D01*
X301181Y144000D01*
X301453Y142634D01*
X302227Y141477D01*
X303384Y140703D01*
X304750Y140431D01*
X306116Y140703D01*
X307273Y141477D01*
X308047Y142634D01*
X308319Y144000D01*
X308047Y145366D01*
X307273Y146523D01*
X306116Y147297D01*
X304750Y147569D01*
X303384Y147297D01*
X302315Y146582D01*
X301523Y147477D01*
X302297Y148634D01*
X302569Y150000D01*
X302297Y151366D01*
X301523Y152523D01*
X300366Y153297D01*
X299000Y153569D01*
D02*
G37*
G36*
X270002Y172013D02*
X267621Y171699D01*
X265403Y170780D01*
X263498Y169319D01*
X262036Y167413D01*
X261117Y165195D01*
X260803Y162814D01*
X261117Y160433D01*
X262036Y158215D01*
X263498Y156309D01*
X265403Y154848D01*
X267621Y153929D01*
X270002Y153615D01*
X272383Y153929D01*
X273466Y154377D01*
X280000Y147843D01*
Y138000D01*
X294000D01*
Y159000D01*
X284157D01*
X279028Y164129D01*
X278887Y165195D01*
X277968Y167413D01*
X276507Y169319D01*
X274601Y170780D01*
X272383Y171699D01*
X270002Y172013D01*
D02*
G37*
G36*
X158770Y134698D02*
X157404Y134427D01*
X156247Y133653D01*
X155473Y132495D01*
X155201Y131130D01*
X155473Y129764D01*
X156247Y128607D01*
X157404Y127833D01*
X158770Y127561D01*
X160135Y127833D01*
X161293Y128607D01*
X162067Y129764D01*
X162338Y131130D01*
X162067Y132495D01*
X161293Y133653D01*
X160135Y134427D01*
X158770Y134698D01*
D02*
G37*
G36*
X47750Y177796D02*
X46384Y177524D01*
X45227Y176750D01*
X44453Y175593D01*
X44181Y174227D01*
X44453Y172861D01*
X45227Y171704D01*
X46384Y170930D01*
X47750Y170658D01*
X49116Y170930D01*
X50273Y171704D01*
X51047Y172861D01*
X51319Y174227D01*
X51047Y175593D01*
X50273Y176750D01*
X49116Y177524D01*
X47750Y177796D01*
D02*
G37*
G36*
X245980Y177100D02*
X242750D01*
Y174770D01*
X245980D01*
Y177100D01*
D02*
G37*
G36*
X146020Y181147D02*
Y173750D01*
X144750D01*
Y172480D01*
X137353D01*
X137443Y171792D01*
X138199Y169968D01*
X139401Y168401D01*
X140968Y167199D01*
X142413Y166600D01*
X142165Y165350D01*
X137250D01*
Y150350D01*
X152250D01*
Y151275D01*
X152624Y152370D01*
X153500Y152370D01*
X168876D01*
Y150250D01*
X165750D01*
Y136250D01*
X186750D01*
Y148452D01*
X186874Y148750D01*
Y177500D01*
X186398Y178648D01*
X185148Y179898D01*
X184000Y180374D01*
X170500D01*
X170491Y180370D01*
X152624D01*
Y177605D01*
X151374Y177357D01*
X151301Y177532D01*
X150099Y179099D01*
X148532Y180301D01*
X146708Y181057D01*
X146020Y181147D01*
D02*
G37*
G36*
X331250Y142819D02*
X329884Y142547D01*
X328727Y141773D01*
X327953Y140616D01*
X327681Y139250D01*
X327953Y137884D01*
X326998Y137064D01*
X325977Y136381D01*
X325203Y135224D01*
X324931Y133858D01*
X325203Y132492D01*
X325977Y131335D01*
X327134Y130561D01*
X328500Y130289D01*
X329866Y130561D01*
X331023Y131335D01*
X331797Y132492D01*
X332069Y133858D01*
X331797Y135224D01*
X332752Y136044D01*
X333773Y136727D01*
X334547Y137884D01*
X334819Y139250D01*
X334547Y140616D01*
X333773Y141773D01*
X332616Y142547D01*
X331250Y142819D01*
D02*
G37*
G36*
X346517Y135325D02*
X345151Y135053D01*
X343993Y134280D01*
X343220Y133122D01*
X342948Y131756D01*
X343220Y130391D01*
X343993Y129233D01*
X345151Y128460D01*
X346517Y128188D01*
X347882Y128460D01*
X349040Y129233D01*
X349814Y130391D01*
X350085Y131756D01*
X349814Y133122D01*
X349040Y134280D01*
X347882Y135053D01*
X346517Y135325D01*
D02*
G37*
%LPD*%
G36*
X605000Y140734D02*
X615000Y130183D01*
X615000Y117750D01*
X620250Y112500D01*
X636250D01*
X639000Y109750D01*
Y92750D01*
X637250Y91000D01*
X615500D01*
X610250Y96250D01*
Y111000D01*
X605500Y115750D01*
X597500D01*
X597250Y116000D01*
X597250Y133000D01*
X592250Y138000D01*
X592250Y147250D01*
X605000D01*
X605000Y140734D01*
D02*
G37*
G36*
X594250Y111250D02*
X595500Y110000D01*
Y100250D01*
X597500Y98250D01*
X600750Y98250D01*
X602750Y100250D01*
Y110250D01*
X603750Y111250D01*
X607000D01*
X608500Y109750D01*
X608500Y92162D01*
X605838Y89500D01*
X594500Y89500D01*
X589250Y94750D01*
X589250Y110250D01*
X590250Y111250D01*
X594250Y111250D01*
D02*
G37*
G36*
X78000Y107535D02*
X78000Y85836D01*
X85000Y78836D01*
X85000Y78000D01*
X55000D01*
Y108966D01*
X76569D01*
X78000Y107535D01*
D02*
G37*
G36*
X544964Y37720D02*
X548930D01*
Y35180D01*
X545430D01*
Y33850D01*
X544935Y32804D01*
X535959D01*
X531897Y36866D01*
X532779Y37752D01*
X543676D01*
Y37752D01*
X544576Y38092D01*
X544964Y37720D01*
D02*
G37*
G36*
X259561Y106534D02*
X259114Y105214D01*
X258379Y105116D01*
X252122Y111372D01*
X251378Y111869D01*
X250500Y112044D01*
X234538D01*
X233784Y113294D01*
X233849Y113850D01*
X233849D01*
X233849Y114209D01*
Y121150D01*
X233849D01*
X233900Y122350D01*
X235149Y122551D01*
X235750Y122431D01*
X237116Y122703D01*
X238273Y123477D01*
X239047Y124634D01*
X239154Y125173D01*
X240511Y125585D01*
X259561Y106534D01*
D02*
G37*
G36*
X129250Y175250D02*
X129250Y168250D01*
X127000Y166000D01*
X83250Y166000D01*
X79000Y161750D01*
X67750D01*
Y169418D01*
X69668D01*
X77750Y177500D01*
X127000D01*
X129250Y175250D01*
D02*
G37*
G36*
X541942Y156396D02*
Y151268D01*
X543502D01*
Y148294D01*
X543022D01*
Y144794D01*
X541752D01*
Y143524D01*
X539152D01*
Y141294D01*
X539720Y141115D01*
Y139454D01*
X536310D01*
Y140810D01*
X530604D01*
Y143566D01*
X535784Y148746D01*
X536281Y149490D01*
X536456Y150368D01*
Y154244D01*
X537701Y155489D01*
X537972Y155435D01*
X539338Y155707D01*
X540495Y156481D01*
X540692Y156775D01*
X541942Y156396D01*
D02*
G37*
%LPC*%
G36*
X540482Y148294D02*
X539152D01*
Y146064D01*
X540482D01*
Y148294D01*
D02*
G37*
%LPD*%
G36*
X95750Y119250D02*
X94617Y118117D01*
X73633D01*
X69000Y122750D01*
Y128500D01*
X73250Y132750D01*
X78500D01*
X82865Y137115D01*
X95750D01*
Y119250D01*
D02*
G37*
G36*
X185250Y177500D02*
Y148750D01*
X184500Y148000D01*
X170500D01*
Y178750D01*
X184000D01*
X185250Y177500D01*
D02*
G37*
D12*
X588250Y99750D02*
D03*
X583150D02*
D03*
X236050Y143000D02*
D03*
X230950D02*
D03*
Y150500D02*
D03*
X236050D02*
D03*
X548904Y96774D02*
D03*
X543804D02*
D03*
Y87884D02*
D03*
X548904D02*
D03*
X231000Y126000D02*
D03*
X225900D02*
D03*
X225849Y117500D02*
D03*
X230950D02*
D03*
X565140Y132080D02*
D03*
X570240D02*
D03*
X533410Y137160D02*
D03*
X528310D02*
D03*
X565140Y141224D02*
D03*
X570240D02*
D03*
X535676Y41402D02*
D03*
X540776D02*
D03*
X573542Y44704D02*
D03*
X568442D02*
D03*
X497380Y83312D02*
D03*
X502480D02*
D03*
X535950Y87376D02*
D03*
X530850D02*
D03*
D13*
X90250Y157500D02*
D03*
X104500Y128250D02*
D03*
X541528Y168656D02*
D03*
X553974D02*
D03*
X566928Y168660D02*
D03*
D14*
X549789Y133894D02*
D03*
X553847D02*
D03*
X545797Y144794D02*
D03*
X541752D02*
D03*
D15*
X552020Y141272D02*
D03*
X543720Y137115D02*
D03*
D16*
X66000Y78659D02*
D03*
Y73660D02*
D03*
X74000Y158001D02*
D03*
Y162999D02*
D03*
Y152750D02*
D03*
Y147751D02*
D03*
X79500Y147751D02*
D03*
Y152750D02*
D03*
D17*
X548853Y80010D02*
D03*
X543855D02*
D03*
X231000Y109750D02*
D03*
X226001D02*
D03*
D41*
X464058Y155458D02*
D03*
Y150358D02*
D03*
X255000Y159000D02*
D03*
Y164100D02*
D03*
Y175100D02*
D03*
Y170000D02*
D03*
X533654Y126248D02*
D03*
Y121148D02*
D03*
X515366Y100320D02*
D03*
Y105420D02*
D03*
X514500Y38350D02*
D03*
Y33250D02*
D03*
X489500Y38350D02*
D03*
Y33250D02*
D03*
X464500Y38350D02*
D03*
Y33250D02*
D03*
X523750Y100200D02*
D03*
Y105300D02*
D03*
X489458Y150358D02*
D03*
Y155458D02*
D03*
X514096Y150358D02*
D03*
Y155458D02*
D03*
X545592Y159268D02*
D03*
Y154168D02*
D03*
X549656Y121148D02*
D03*
Y126248D02*
D03*
D42*
X90250Y128250D02*
D03*
X287000Y148500D02*
D03*
D43*
X90250Y146250D02*
D03*
X287000Y130500D02*
D03*
D44*
X59000Y71000D02*
D03*
Y81000D02*
D03*
D45*
X74000Y152750D02*
Y158001D01*
X74000Y152750D02*
X79500D01*
X481100Y69850D02*
X514829D01*
X464500Y53250D02*
X481100Y69850D01*
X464500Y38350D02*
Y53250D01*
X579278Y92754D02*
X583150Y96626D01*
Y99750D01*
X586026Y106026D02*
Y107790D01*
X583150Y103150D02*
X586026Y106026D01*
X583150Y99750D02*
Y103150D01*
X539500Y76750D02*
X540000D01*
X543260Y80010D02*
X543855D01*
X540000Y76750D02*
X543260Y80010D01*
X526419Y38350D02*
X534789Y29980D01*
X552230D01*
X514500Y38350D02*
X526419D01*
X552230Y29980D02*
X556308Y34058D01*
Y38276D01*
X489500Y38350D02*
X497726Y46576D01*
X552151D01*
X514829Y69850D02*
X519729Y74750D01*
X514500Y17374D02*
X514604Y17270D01*
X514500Y17374D02*
Y33250D01*
X489458Y17272D02*
X489500Y17314D01*
Y33250D01*
X464312Y17272D02*
X464500Y17460D01*
Y33250D01*
X225849Y134620D02*
X225900Y134570D01*
Y126000D02*
Y134570D01*
X464058Y167132D02*
X464312Y167386D01*
X464058Y155458D02*
Y167132D01*
X225849Y117500D02*
X225900Y117550D01*
Y126000D01*
X236000Y143050D02*
Y164608D01*
Y143050D02*
X236050Y143000D01*
X233608Y167000D02*
X236000Y164608D01*
X228250Y167000D02*
X233608D01*
X255000Y170000D02*
X255000Y170000D01*
X255000Y167000D02*
Y170000D01*
Y164100D02*
X255000Y164100D01*
X255000Y164100D02*
Y167000D01*
X247250D02*
X255000D01*
D46*
X533000Y111750D02*
X543804Y100946D01*
Y96774D02*
Y100946D01*
X535950Y87376D02*
Y93736D01*
X513258Y107000D02*
X515102Y105156D01*
X508000Y107000D02*
X513258D01*
X522250Y121250D02*
X533552D01*
X533654Y121148D01*
X599003Y101750D02*
Y107790D01*
X573542Y38750D02*
Y42554D01*
X529082Y94082D02*
Y94742D01*
X526312Y91313D02*
X529082Y94082D01*
X522950Y91313D02*
X526312D01*
X531500Y74808D02*
X543804Y87112D01*
X548904Y87884D02*
X553847D01*
X507968Y79218D02*
X512050D01*
X505500Y76750D02*
X507968Y79218D01*
X531500Y70500D02*
Y74808D01*
X517916Y111506D02*
X524002Y105420D01*
X521196Y126250D02*
X521198Y126248D01*
X509500Y126250D02*
X521196D01*
X489458Y146292D02*
X509500Y126250D01*
X489458Y146292D02*
Y150358D01*
X515572Y100114D02*
X523796D01*
X488000Y142000D02*
X500250Y129750D01*
Y94364D02*
Y129750D01*
Y94364D02*
X505128Y89486D01*
X468018Y142000D02*
X488000D01*
X464058Y145960D02*
X468018Y142000D01*
X464058Y145960D02*
Y150358D01*
X497250Y83892D02*
X497830Y83312D01*
X486918Y137922D02*
X497250Y127590D01*
Y83892D02*
Y127590D01*
X324250Y152750D02*
X403384D01*
X418212Y137922D01*
X486918D01*
X544700Y36449D02*
X548930D01*
X543000Y34750D02*
X544700Y36449D01*
X255000Y152250D02*
Y159000D01*
X257750Y102500D02*
X274000D01*
X250500Y109750D02*
X257750Y102500D01*
X276500Y106750D02*
X294397Y88853D01*
X262590Y106750D02*
X276500D01*
X230950Y138390D02*
X262590Y106750D01*
X230950Y138390D02*
Y143000D01*
X231000Y109750D02*
X250500D01*
X230950Y117500D02*
X231000Y117450D01*
Y109750D02*
Y117450D01*
X225004Y143000D02*
X230950D01*
X224511Y142507D02*
X225004Y143000D01*
X489458Y17272D02*
Y20066D01*
X549656Y126248D02*
Y133761D01*
X549900Y120904D02*
X556514D01*
X549656Y121148D02*
X549900Y120904D01*
X521198Y126248D02*
X533654D01*
X528574Y163068D02*
X535940D01*
X541528Y168656D01*
X505128Y89486D02*
X515572D01*
X515102Y105156D02*
X515366Y105420D01*
X543804Y87112D02*
Y87884D01*
X558800Y147828D02*
Y155194D01*
X553974Y160020D02*
X558800Y155194D01*
X553974Y160020D02*
Y168656D01*
X533654Y126248D02*
Y136916D01*
X534162Y155194D02*
X537972Y159004D01*
X534162Y150368D02*
Y155194D01*
X528310Y144516D02*
X534162Y150368D01*
X528310Y137160D02*
Y144516D01*
X558556Y141272D02*
X565092D01*
X552020D02*
X558556D01*
X514096Y150358D02*
X527050D01*
X568237Y44500D02*
X568442Y44704D01*
X559830Y44500D02*
X568237D01*
X548808Y40386D02*
X548930Y40507D01*
X544576Y40386D02*
X548808D01*
X543560Y41402D02*
X544576Y40386D01*
X540776Y41402D02*
X543560D01*
X517906Y111506D02*
X517916D01*
X541528Y163332D02*
X545592Y159268D01*
X530728Y87254D02*
X530850Y87376D01*
X522950Y87254D02*
X530728D01*
X570240Y141224D02*
X575310D01*
X548904Y80061D02*
Y87884D01*
X543804D02*
Y96774D01*
X515572Y89486D02*
Y100114D01*
X553847Y133894D02*
X558256D01*
X533410Y137160D02*
X543675D01*
X541528Y163332D02*
Y168656D01*
X545797Y144794D02*
Y153963D01*
X565140Y132080D02*
Y141224D01*
D47*
X592500Y132750D02*
X592526Y132724D01*
Y126205D02*
Y132724D01*
D48*
X69812Y153000D02*
X73250D01*
X570240Y132080D02*
X575564D01*
D49*
X559830Y48544D02*
Y52846D01*
X514604Y17270D02*
X519428Y12446D01*
X538480Y150114D02*
X541752Y146842D01*
Y144794D02*
Y146842D01*
D50*
X519729Y74750D02*
Y81186D01*
X502930Y83318D02*
X512050D01*
X502930Y83312D02*
Y83318D01*
X231000Y126000D02*
X235750D01*
X530606Y41402D02*
X535676D01*
X548904Y96774D02*
Y102311D01*
X489458Y155458D02*
Y167386D01*
X514096Y155458D02*
Y167386D01*
X42962Y113756D02*
Y124456D01*
Y113756D02*
X45212Y111506D01*
Y105456D02*
Y111506D01*
D52*
X64516Y146608D02*
X90250D01*
D53*
X18462Y59456D02*
D03*
Y125456D02*
D03*
D54*
X128270Y92350D02*
D03*
X461010D02*
D03*
D55*
X144750Y157850D02*
D03*
D56*
Y173750D02*
D03*
D57*
X629158Y20000D02*
D03*
Y164700D02*
D03*
X19200Y165170D02*
D03*
Y20470D02*
D03*
D58*
X112014Y17780D02*
D03*
X137414D02*
D03*
X86614D02*
D03*
X61214D02*
D03*
X270002Y162814D02*
D03*
Y122814D02*
D03*
D59*
X513842Y167640D02*
D03*
X624078Y61809D02*
D03*
Y81809D02*
D03*
Y121809D02*
D03*
Y101809D02*
D03*
X595376Y164846D02*
D03*
X578612Y20066D02*
D03*
X464312Y167386D02*
D03*
X489204Y167640D02*
D03*
X464312Y17272D02*
D03*
X514604Y17270D02*
D03*
X489458Y17272D02*
D03*
D60*
X461772Y109982D02*
D03*
X473964Y104648D02*
D03*
X478790Y92456D02*
D03*
X473964Y79756D02*
D03*
X461518Y74930D02*
D03*
X448818Y79756D02*
D03*
X443484Y92456D02*
D03*
X449072Y105664D02*
D03*
X116078D02*
D03*
X110490Y92456D02*
D03*
X115824Y79756D02*
D03*
X128524Y74930D02*
D03*
X140970Y79756D02*
D03*
X145796Y92456D02*
D03*
X140970Y104648D02*
D03*
X128778Y109982D02*
D03*
D61*
X640250Y133000D02*
D03*
X643250Y126750D02*
D03*
Y119500D02*
D03*
X635750Y120000D02*
D03*
X622000Y147250D02*
D03*
X622001Y38000D02*
D03*
X592001Y58000D02*
D03*
X452001Y18000D02*
D03*
X442001Y118000D02*
D03*
X432001Y98000D02*
D03*
Y18000D02*
D03*
X422001Y118000D02*
D03*
X412001Y98000D02*
D03*
Y58000D02*
D03*
X422001Y38000D02*
D03*
X412001Y18000D02*
D03*
X392001D02*
D03*
X322000Y158000D02*
D03*
X302000D02*
D03*
X282000Y118000D02*
D03*
X242000D02*
D03*
X212000Y18000D02*
D03*
X192000Y98000D02*
D03*
Y58000D02*
D03*
X202000Y38000D02*
D03*
X192000Y18000D02*
D03*
X172000Y98000D02*
D03*
X182000Y38000D02*
D03*
X172000Y18000D02*
D03*
X152000Y58000D02*
D03*
X162000Y38000D02*
D03*
X152000Y18000D02*
D03*
X142000Y38000D02*
D03*
X112000Y58000D02*
D03*
X102000Y78000D02*
D03*
X92000Y58000D02*
D03*
X102000Y38000D02*
D03*
X82000D02*
D03*
X62000D02*
D03*
X32000Y138000D02*
D03*
Y58000D02*
D03*
X42000Y38000D02*
D03*
X12000Y138000D02*
D03*
X209750Y4750D02*
D03*
X217500D02*
D03*
X222250Y8500D02*
D03*
Y15000D02*
D03*
Y21750D02*
D03*
Y28750D02*
D03*
Y36000D02*
D03*
Y42500D02*
D03*
X222500Y48768D02*
D03*
X226500Y4750D02*
D03*
Y12000D02*
D03*
Y19000D02*
D03*
Y26000D02*
D03*
Y33000D02*
D03*
Y40000D02*
D03*
Y46000D02*
D03*
Y51750D02*
D03*
X594529Y82004D02*
D03*
X595500Y91750D02*
D03*
X515500Y118000D02*
D03*
X489204Y125000D02*
D03*
X576000Y74250D02*
D03*
X573542Y80500D02*
D03*
X600750Y60250D02*
D03*
X609250Y69000D02*
D03*
X610500Y82000D02*
D03*
X603250Y82250D02*
D03*
X508000Y107000D02*
D03*
X522250Y121250D02*
D03*
X533000Y111750D02*
D03*
X548853Y102362D02*
D03*
X559500Y98500D02*
D03*
X562500Y72250D02*
D03*
X599250Y95750D02*
D03*
X602500Y91662D02*
D03*
X613250Y98956D02*
D03*
X605480Y101412D02*
D03*
Y95750D02*
D03*
X613250Y104250D02*
D03*
X592250Y96412D02*
D03*
X579278Y92754D02*
D03*
X584250Y133250D02*
D03*
X579000Y136500D02*
D03*
X584250Y149860D02*
D03*
X592500Y132750D02*
D03*
X617000Y110000D02*
D03*
X592250Y101412D02*
D03*
X631000Y94250D02*
D03*
X635750D02*
D03*
X636000Y109250D02*
D03*
X631000D02*
D03*
X613000Y113665D02*
D03*
X611250Y119500D02*
D03*
Y125250D02*
D03*
Y130500D02*
D03*
X635750Y98956D02*
D03*
Y104250D02*
D03*
X607500Y153250D02*
D03*
X626750Y144000D02*
D03*
X632250Y133000D02*
D03*
X631500Y139500D02*
D03*
X613750Y153500D02*
D03*
X635250Y126750D02*
D03*
X599003Y101750D02*
D03*
X563500Y64500D02*
D03*
X573542Y38750D02*
D03*
X529082Y94742D02*
D03*
X535940Y93726D02*
D03*
X539500Y76750D02*
D03*
X400000Y75750D02*
D03*
X419750Y99250D02*
D03*
X553847Y87884D02*
D03*
X505500Y76750D02*
D03*
X531500Y70500D02*
D03*
X527500Y30000D02*
D03*
X530202Y17702D02*
D03*
X563000Y17250D02*
D03*
X304750Y144000D02*
D03*
X447500Y154686D02*
D03*
X440000Y149860D02*
D03*
X429000Y145542D02*
D03*
X294750Y165500D02*
D03*
X299000Y150000D02*
D03*
X324250Y152750D02*
D03*
X328250Y167640D02*
D03*
X337500Y158562D02*
D03*
X332500Y163250D02*
D03*
X342000Y173250D02*
D03*
X385826Y145542D02*
D03*
X392684Y140462D02*
D03*
X346517Y131756D02*
D03*
X331250Y139250D02*
D03*
X328500Y133858D02*
D03*
X543000Y34750D02*
D03*
X183000Y155000D02*
D03*
Y162500D02*
D03*
X197702Y122500D02*
D03*
X183000Y176500D02*
D03*
Y170000D02*
D03*
X126500Y169250D02*
D03*
X225849Y134620D02*
D03*
X82188Y96412D02*
D03*
X82752Y86412D02*
D03*
X393000Y92350D02*
D03*
X406000Y66000D02*
D03*
X400000Y81250D02*
D03*
X374000Y176750D02*
D03*
X366250D02*
D03*
X385826Y137414D02*
D03*
X410000Y131500D02*
D03*
X401250Y124000D02*
D03*
X399000Y58750D02*
D03*
Y64500D02*
D03*
X391750Y70500D02*
D03*
X310500Y111500D02*
D03*
X315750Y121250D02*
D03*
X235750Y126000D02*
D03*
X55500Y125698D02*
D03*
X62250Y119000D02*
D03*
X71750Y125698D02*
D03*
X74500Y129750D02*
D03*
Y121500D02*
D03*
X80000Y120750D02*
D03*
Y125250D02*
D03*
Y129750D02*
D03*
X159311Y121250D02*
D03*
X305250Y72750D02*
D03*
X297500D02*
D03*
X288750D02*
D03*
X281500D02*
D03*
X274000D02*
D03*
X266500D02*
D03*
X258750D02*
D03*
X251500D02*
D03*
X243750D02*
D03*
X236250D02*
D03*
X318750Y56250D02*
D03*
X310750Y67332D02*
D03*
X302000Y67250D02*
D03*
X292500Y67332D02*
D03*
X285000D02*
D03*
X277500D02*
D03*
X270002D02*
D03*
X262500Y67500D02*
D03*
X255000D02*
D03*
X247250Y67332D02*
D03*
X239750D02*
D03*
X232500D02*
D03*
X281750Y87750D02*
D03*
X255000Y152250D02*
D03*
X274000Y102500D02*
D03*
X294397Y88853D02*
D03*
X358000Y21500D02*
D03*
X358250Y14500D02*
D03*
Y7000D02*
D03*
X348000D02*
D03*
Y14500D02*
D03*
X348250Y21500D02*
D03*
X376250Y6500D02*
D03*
X332250Y51500D02*
D03*
X357750Y57750D02*
D03*
X326750Y51500D02*
D03*
X321250D02*
D03*
Y45250D02*
D03*
Y38500D02*
D03*
X398750Y36500D02*
D03*
Y42500D02*
D03*
X390500Y32200D02*
D03*
X382000D02*
D03*
X376250Y12750D02*
D03*
Y19500D02*
D03*
Y25500D02*
D03*
X327250Y6000D02*
D03*
X330750Y10250D02*
D03*
X331750Y19000D02*
D03*
X328000Y15000D02*
D03*
X323750Y10750D02*
D03*
X319000Y7000D02*
D03*
X318500Y22750D02*
D03*
X321000Y26750D02*
D03*
X366750Y29500D02*
D03*
Y34750D02*
D03*
X364000Y40000D02*
D03*
X363750Y47000D02*
D03*
X358750D02*
D03*
X361750Y29500D02*
D03*
Y34750D02*
D03*
X358250Y40000D02*
D03*
X352750Y40250D02*
D03*
Y46750D02*
D03*
X322750Y60250D02*
D03*
X225849Y58198D02*
D03*
X224511Y142507D02*
D03*
X224250Y154250D02*
D03*
X221250Y160250D02*
D03*
X247372Y179250D02*
D03*
X239750Y173500D02*
D03*
X262250Y175000D02*
D03*
X158770Y131130D02*
D03*
X122500Y126000D02*
D03*
X119000Y129500D02*
D03*
X121500Y169250D02*
D03*
X79000Y65065D02*
D03*
X78500Y113665D02*
D03*
X68000Y116750D02*
D03*
X65250Y126000D02*
D03*
X49750Y165750D02*
D03*
X44250D02*
D03*
X38750D02*
D03*
X53000Y158000D02*
D03*
X58000D02*
D03*
X63500D02*
D03*
X68500D02*
D03*
X111750Y152250D02*
D03*
X116750Y159750D02*
D03*
X47750Y174227D02*
D03*
X112288Y133538D02*
D03*
X157750Y146000D02*
D03*
X77250Y139250D02*
D03*
X126500Y174227D02*
D03*
X121500D02*
D03*
X116500D02*
D03*
Y169250D02*
D03*
X58250Y132334D02*
D03*
Y137115D02*
D03*
X53500D02*
D03*
Y132334D02*
D03*
X32000Y151538D02*
D03*
X54000Y48768D02*
D03*
X45510D02*
D03*
X37000Y48544D02*
D03*
X54000Y55118D02*
D03*
Y60456D02*
D03*
X64516Y62000D02*
D03*
X73152Y76454D02*
D03*
X80518Y74676D02*
D03*
X83312Y80456D02*
D03*
X616204Y94488D02*
D03*
X556514Y120904D02*
D03*
X502158Y154686D02*
D03*
X566928Y168656D02*
D03*
X528574Y163068D02*
D03*
X530606Y41402D02*
D03*
X558800Y147828D02*
D03*
X537972Y159004D02*
D03*
X558556Y141272D02*
D03*
X527050Y150358D02*
D03*
X575564Y132080D02*
D03*
X559830Y52846D02*
D03*
X517906Y111506D02*
D03*
X529590Y168656D02*
D03*
X575310Y141224D02*
D03*
X558292Y133858D02*
D03*
X538480Y150114D02*
D03*
X73500Y60500D02*
D03*
X74930Y105664D02*
D03*
D62*
X336000Y76500D02*
D03*
Y88500D02*
D03*
X336000Y100500D02*
D03*
X336000Y112500D02*
D03*
X348000Y76500D02*
D03*
X348000Y88500D02*
D03*
Y100500D02*
D03*
X348000Y112500D02*
D03*
X360000Y76500D02*
D03*
X360000Y88500D02*
D03*
X360000Y100500D02*
D03*
X360000Y112500D02*
D03*
X372000Y76500D02*
D03*
Y88500D02*
D03*
X372000Y100500D02*
D03*
X372000Y112500D02*
D03*
D63*
X77724Y79502D02*
D03*
D64*
X617250Y141000D02*
X624078Y134172D01*
Y121809D02*
Y134172D01*
X166624Y166370D02*
X174000Y158994D01*
D71*
X176250Y143250D02*
D03*
X596077Y141750D02*
D03*
D72*
X194250Y143250D02*
D03*
X614077Y141750D02*
D03*
D73*
X228250Y173500D02*
D03*
Y160500D02*
D03*
Y167000D02*
D03*
X247250Y173500D02*
D03*
Y167000D02*
D03*
Y160500D02*
D03*
D74*
X77724Y79556D02*
D03*
D75*
X64516Y165608D02*
D03*
Y146608D02*
D03*
X43516Y156108D02*
D03*
D76*
X166624Y166370D02*
D03*
X202692Y166624D02*
D03*
D77*
X42962Y60456D02*
D03*
Y124456D02*
D03*
D78*
X18462Y104456D02*
D03*
Y80456D02*
D03*
D79*
X45212Y105456D02*
D03*
Y98956D02*
D03*
Y79456D02*
D03*
Y85956D02*
D03*
Y92456D02*
D03*
D80*
X589290Y120750D02*
D03*
D81*
X602250Y120750D02*
D03*
D82*
X605480Y107790D02*
D03*
X599003D02*
D03*
X586026D02*
D03*
X592526D02*
D03*
Y126205D02*
D03*
X586026D02*
D03*
X599003D02*
D03*
X605480D02*
D03*
D83*
X522950Y87254D02*
D03*
Y91313D02*
D03*
X512050Y83263D02*
D03*
Y79218D02*
D03*
X548930Y40507D02*
D03*
Y36449D02*
D03*
X559830Y44500D02*
D03*
Y48544D02*
D03*
D84*
X515572Y89486D02*
D03*
X519729Y81186D02*
D03*
X556308Y38276D02*
D03*
X552151Y46576D02*
D03*
D85*
X87904Y128250D02*
X102250D01*
X202692Y166624D02*
X209568Y173500D01*
X228250D01*
X90250Y146608D02*
Y157500D01*
Y146250D02*
Y146608D01*
D86*
X272686Y162814D02*
X287000Y148500D01*
X270002Y162814D02*
X272686D01*
X280765Y130500D02*
X287000D01*
X273079Y122814D02*
X280765Y130500D01*
X270002Y122814D02*
X273079D01*
X194250Y158182D02*
X202692Y166624D01*
X194250Y143250D02*
Y158182D01*
X247250Y145566D02*
Y158500D01*
Y145566D02*
X270002Y122814D01*
D87*
X45212Y79456D02*
X77678D01*
X77724Y79502D01*
D88*
X77597Y76581D02*
D03*
M02*
