G04 Layer_Color=16711935*
%FSLAX44Y44*%
%MOMM*%
G71*
G01*
G75*
%ADD25C,0.2000*%
%ADD67C,1.3000*%
%ADD68C,0.6000*%
%ADD73R,0.6000X0.4200*%
%ADD125R,0.3799X0.5300*%
%ADD126C,0.9000*%
%ADD127R,0.4200X0.6000*%
%ADD128R,0.6000X0.6000*%
%ADD129R,0.4500X0.3499*%
%ADD130R,0.3499X0.4500*%
%ADD138C,0.3000*%
%ADD152R,0.5300X0.3799*%
%ADD153R,1.2000X1.9000*%
%ADD154R,0.9000X0.9000*%
%ADD155R,0.6500X0.7000*%
%ADD156O,1.7000X1.0000*%
%ADD157C,4.6000*%
%ADD158R,1.3000X1.3000*%
%ADD159O,2.6000X3.1000*%
%ADD160C,1.6240*%
%ADD161C,1.6000*%
%ADD162C,0.3300*%
%ADD163R,1.9000X1.2000*%
%ADD164R,0.9000X0.9000*%
%ADD165R,0.7000X0.5200*%
%ADD166C,1.1000*%
%ADD167R,1.1160X0.8620*%
%ADD168R,2.6000X2.6000*%
%ADD169R,1.5000X1.7000*%
%ADD170R,1.6500X2.0000*%
%ADD171R,1.4500X0.5000*%
%ADD172R,1.0450X1.1000*%
%ADD173R,1.0470X1.1000*%
%ADD174R,0.4000X0.8000*%
%ADD175R,0.6000X0.6000*%
D25*
X508000Y107000D02*
D03*
X522250Y121250D02*
D03*
X548853Y102362D02*
D03*
X617000Y110000D02*
D03*
X631000Y94250D02*
D03*
X631000Y109250D02*
D03*
X563500Y64500D02*
D03*
X573542Y38750D02*
D03*
X529082Y94742D02*
D03*
X535940Y93726D02*
D03*
X539500Y76750D02*
D03*
X505500D02*
D03*
X543000Y34750D02*
D03*
X82188Y96412D02*
D03*
X82752Y86412D02*
D03*
X58250Y132334D02*
D03*
Y137115D02*
D03*
X53500D02*
D03*
Y132334D02*
D03*
X32000Y151538D02*
D03*
X73152Y76454D02*
D03*
X80518Y74676D02*
D03*
X83312Y80456D02*
D03*
X616204Y94488D02*
D03*
X556514Y120904D02*
D03*
X502158Y154686D02*
D03*
X566928Y168656D02*
D03*
X528574Y163068D02*
D03*
X530606Y41402D02*
D03*
X558800Y147828D02*
D03*
X537972Y159004D02*
D03*
X558556Y141272D02*
D03*
X527050Y150358D02*
D03*
X575564Y132080D02*
D03*
X559830Y52846D02*
D03*
X517906Y111506D02*
D03*
X529590Y168656D02*
D03*
X575310Y141224D02*
D03*
X558292Y133858D02*
D03*
X538480Y150114D02*
D03*
X73500Y60500D02*
D03*
X74930Y105664D02*
D03*
D67*
X144750Y173750D02*
D03*
D68*
X461772Y109982D02*
D03*
X473964Y104648D02*
D03*
X478790Y92456D02*
D03*
X473964Y79756D02*
D03*
X461518Y74930D02*
D03*
X448818Y79756D02*
D03*
X443484Y92456D02*
D03*
X449072Y105664D02*
D03*
X116078D02*
D03*
X110490Y92456D02*
D03*
X115824Y79756D02*
D03*
X128524Y74930D02*
D03*
X140970Y79756D02*
D03*
X145796Y92456D02*
D03*
X140970Y104648D02*
D03*
X128778Y109982D02*
D03*
D73*
X522950Y87254D02*
D03*
Y91313D02*
D03*
X512050Y83263D02*
D03*
Y79218D02*
D03*
X548930Y40507D02*
D03*
Y36449D02*
D03*
X559830Y44500D02*
D03*
Y48544D02*
D03*
D125*
X588250Y99750D02*
D03*
X583150D02*
D03*
X236050Y143000D02*
D03*
X230950D02*
D03*
Y150500D02*
D03*
X236050D02*
D03*
X548904Y96774D02*
D03*
X543804D02*
D03*
Y87884D02*
D03*
X548904D02*
D03*
X231000Y126000D02*
D03*
X225900D02*
D03*
X225849Y117500D02*
D03*
X230950D02*
D03*
X565140Y132080D02*
D03*
X570240D02*
D03*
X533410Y137160D02*
D03*
X528310D02*
D03*
X565140Y141224D02*
D03*
X570240D02*
D03*
X535676Y41402D02*
D03*
X540776D02*
D03*
X573542Y44704D02*
D03*
X568442D02*
D03*
X497380Y83312D02*
D03*
X502480D02*
D03*
X535950Y87376D02*
D03*
X530850D02*
D03*
D126*
X90250Y157500D02*
D03*
X104500Y128250D02*
D03*
X541528Y168656D02*
D03*
X553974D02*
D03*
X566928Y168660D02*
D03*
D127*
X549789Y133894D02*
D03*
X553847D02*
D03*
X545797Y144794D02*
D03*
X541752D02*
D03*
D128*
X552020Y141272D02*
D03*
X543720Y137115D02*
D03*
D129*
X66000Y78659D02*
D03*
Y73660D02*
D03*
X74000Y158001D02*
D03*
Y162999D02*
D03*
Y152750D02*
D03*
Y147751D02*
D03*
X79500Y147751D02*
D03*
Y152750D02*
D03*
D130*
X548853Y80010D02*
D03*
X543855D02*
D03*
X231000Y109750D02*
D03*
X226001D02*
D03*
D138*
X77724Y79502D02*
D03*
D152*
X464058Y155458D02*
D03*
Y150358D02*
D03*
X255000Y159000D02*
D03*
Y164100D02*
D03*
Y175100D02*
D03*
Y170000D02*
D03*
X533654Y126248D02*
D03*
Y121148D02*
D03*
X515366Y100320D02*
D03*
Y105420D02*
D03*
X514500Y38350D02*
D03*
Y33250D02*
D03*
X489500Y38350D02*
D03*
Y33250D02*
D03*
X464500Y38350D02*
D03*
Y33250D02*
D03*
X523750Y100200D02*
D03*
Y105300D02*
D03*
X489458Y150358D02*
D03*
Y155458D02*
D03*
X514096Y150358D02*
D03*
Y155458D02*
D03*
X545592Y159268D02*
D03*
Y154168D02*
D03*
X549656Y121148D02*
D03*
Y126248D02*
D03*
D153*
X90250Y128250D02*
D03*
X287000Y148500D02*
D03*
D154*
X90250Y146250D02*
D03*
X287000Y130500D02*
D03*
D155*
X59000Y71000D02*
D03*
Y81000D02*
D03*
D156*
X18462Y59456D02*
D03*
Y125456D02*
D03*
D157*
X128270Y92350D02*
D03*
X461010D02*
D03*
D158*
X144750Y157850D02*
D03*
D159*
X629158Y20000D02*
D03*
Y164700D02*
D03*
X19200Y165170D02*
D03*
Y20470D02*
D03*
D160*
X112014Y17780D02*
D03*
X137414D02*
D03*
X86614D02*
D03*
X61214D02*
D03*
X270002Y162814D02*
D03*
Y122814D02*
D03*
D161*
X513842Y167640D02*
D03*
X624078Y61809D02*
D03*
Y81809D02*
D03*
Y121809D02*
D03*
Y101809D02*
D03*
X595376Y164846D02*
D03*
X578612Y20066D02*
D03*
X464312Y167386D02*
D03*
X489204Y167640D02*
D03*
X464312Y17272D02*
D03*
X514604Y17270D02*
D03*
X489458Y17272D02*
D03*
D162*
X336000Y76500D02*
D03*
Y88500D02*
D03*
X336000Y100500D02*
D03*
X336000Y112500D02*
D03*
X348000Y76500D02*
D03*
X348000Y88500D02*
D03*
Y100500D02*
D03*
X348000Y112500D02*
D03*
X360000Y76500D02*
D03*
X360000Y88500D02*
D03*
X360000Y100500D02*
D03*
X360000Y112500D02*
D03*
X372000Y76500D02*
D03*
Y88500D02*
D03*
X372000Y100500D02*
D03*
X372000Y112500D02*
D03*
D163*
X176250Y143250D02*
D03*
X596077Y141750D02*
D03*
D164*
X194250Y143250D02*
D03*
X614077Y141750D02*
D03*
D165*
X228250Y173500D02*
D03*
Y160500D02*
D03*
Y167000D02*
D03*
X247250Y173500D02*
D03*
Y167000D02*
D03*
Y160500D02*
D03*
D166*
X77724Y79556D02*
D03*
D167*
X64516Y165608D02*
D03*
Y146608D02*
D03*
X43516Y156108D02*
D03*
D168*
X166624Y166370D02*
D03*
X202692Y166624D02*
D03*
D169*
X42962Y60456D02*
D03*
Y124456D02*
D03*
D170*
X18462Y104456D02*
D03*
Y80456D02*
D03*
D171*
X45212Y105456D02*
D03*
Y98956D02*
D03*
Y79456D02*
D03*
Y85956D02*
D03*
Y92456D02*
D03*
D172*
X589290Y120750D02*
D03*
D173*
X602250Y120750D02*
D03*
D174*
X605480Y107790D02*
D03*
X599003D02*
D03*
X586026D02*
D03*
X592526D02*
D03*
Y126205D02*
D03*
X586026D02*
D03*
X599003D02*
D03*
X605480D02*
D03*
D175*
X515572Y89486D02*
D03*
X519729Y81186D02*
D03*
X556308Y38276D02*
D03*
X552151Y46576D02*
D03*
M02*
