G04 Layer_Color=8388736*
%FSLAX44Y44*%
%MOMM*%
G71*
G01*
G75*
%ADD25C,0.2000*%
%ADD39R,1.0000X0.8000*%
%ADD40R,0.8000X1.6000*%
%ADD67C,1.3000*%
%ADD68C,0.6000*%
%ADD124C,0.6096*%
%ADD125R,0.3799X0.5300*%
%ADD126C,0.9000*%
%ADD127R,0.4200X0.6000*%
%ADD128R,0.6000X0.6000*%
%ADD129R,0.4500X0.3499*%
%ADD130R,0.3499X0.4500*%
%ADD131R,0.7000X0.6500*%
%ADD132R,1.0500X0.9500*%
%ADD133R,0.5500X1.1000*%
%ADD134R,0.4500X0.4500*%
%ADD135R,4.8000X4.8000*%
%ADD136O,0.7500X0.3000*%
%ADD137O,0.3000X0.7500*%
%ADD138C,0.3000*%
%ADD139R,1.6000X1.1000*%
%ADD140R,2.6000X1.4000*%
%ADD141R,0.9000X0.4500*%
%ADD142R,2.7000X0.7000*%
%ADD143R,1.1000X1.9000*%
%ADD144O,1.8000X0.4000*%
%ADD145R,1.5000X2.8500*%
%ADD146R,1.1000X1.0450*%
%ADD147R,1.1000X1.0470*%
%ADD148R,0.8000X0.4000*%
%ADD149R,0.8500X0.9000*%
%ADD150R,0.9000X2.3000*%
%ADD151R,1.1000X0.9000*%
%ADD152R,0.5300X0.3799*%
%ADD153R,1.2000X1.9000*%
%ADD154R,0.9000X0.9000*%
%ADD155R,0.6500X0.7000*%
%ADD156O,1.7000X1.0000*%
%ADD157C,4.6000*%
%ADD158R,1.3000X1.3000*%
%ADD159O,2.6000X3.1000*%
%ADD160C,1.6240*%
%ADD161C,1.6000*%
%ADD162C,0.3300*%
D25*
X508000Y107000D02*
D03*
X522250Y121250D02*
D03*
X548853Y102362D02*
D03*
X617000Y110000D02*
D03*
X631000Y94250D02*
D03*
X631000Y109250D02*
D03*
X563500Y64500D02*
D03*
X573542Y38750D02*
D03*
X529082Y94742D02*
D03*
X535940Y93726D02*
D03*
X539500Y76750D02*
D03*
X505500D02*
D03*
X543000Y34750D02*
D03*
X82188Y96412D02*
D03*
X82752Y86412D02*
D03*
X58250Y132334D02*
D03*
Y137115D02*
D03*
X53500D02*
D03*
Y132334D02*
D03*
X32000Y151538D02*
D03*
X73152Y76454D02*
D03*
X80518Y74676D02*
D03*
X83312Y80456D02*
D03*
X616204Y94488D02*
D03*
X556514Y120904D02*
D03*
X502158Y154686D02*
D03*
X566928Y168656D02*
D03*
X528574Y163068D02*
D03*
X530606Y41402D02*
D03*
X558800Y147828D02*
D03*
X537972Y159004D02*
D03*
X558556Y141272D02*
D03*
X527050Y150358D02*
D03*
X575564Y132080D02*
D03*
X559830Y52846D02*
D03*
X517906Y111506D02*
D03*
X529590Y168656D02*
D03*
X575310Y141224D02*
D03*
X558292Y133858D02*
D03*
X538480Y150114D02*
D03*
X73500Y60500D02*
D03*
X74930Y105664D02*
D03*
D39*
X538212Y17702D02*
D03*
Y27686D02*
D03*
X553212Y17702D02*
D03*
Y27686D02*
D03*
X537958Y158672D02*
D03*
Y168656D02*
D03*
X552958Y158672D02*
D03*
Y168656D02*
D03*
D40*
X263000Y12500D02*
D03*
X297000D02*
D03*
D67*
X144750Y173750D02*
D03*
D68*
X461772Y109982D02*
D03*
X473964Y104648D02*
D03*
X478790Y92456D02*
D03*
X473964Y79756D02*
D03*
X461518Y74930D02*
D03*
X448818Y79756D02*
D03*
X443484Y92456D02*
D03*
X449072Y105664D02*
D03*
X116078D02*
D03*
X110490Y92456D02*
D03*
X115824Y79756D02*
D03*
X128524Y74930D02*
D03*
X140970Y79756D02*
D03*
X145796Y92456D02*
D03*
X140970Y104648D02*
D03*
X128778Y109982D02*
D03*
D124*
X365794Y142401D02*
G03*
X365794Y142401I-2794J0D01*
G01*
Y141842D02*
G03*
X365794Y141842I-2794J0D01*
G01*
X379544Y142401D02*
G03*
X379544Y142401I-2794J0D01*
G01*
Y141842D02*
G03*
X379544Y141842I-2794J0D01*
G01*
X579171Y164846D02*
G03*
X579171Y164846I-2794J0D01*
G01*
X579730D02*
G03*
X579730Y164846I-2794J0D01*
G01*
X599491Y20066D02*
G03*
X599491Y20066I-2794J0D01*
G01*
X600050D02*
G03*
X600050Y20066I-2794J0D01*
G01*
D125*
X605050Y108250D02*
D03*
X599950D02*
D03*
X77250Y144500D02*
D03*
X82350D02*
D03*
X577450Y98500D02*
D03*
X582550D02*
D03*
X588850Y70000D02*
D03*
X583750D02*
D03*
X577332Y51308D02*
D03*
X582432D02*
D03*
D126*
X597750Y121250D02*
D03*
X599750Y70000D02*
D03*
X129750Y156750D02*
D03*
X577450Y109500D02*
D03*
X604500Y143360D02*
D03*
X567000Y86500D02*
D03*
X581750Y121250D02*
D03*
D127*
X585318Y89678D02*
D03*
X589376D02*
D03*
X581326Y78778D02*
D03*
X577282D02*
D03*
D128*
X587550Y82299D02*
D03*
X579250Y86456D02*
D03*
D129*
X315750Y116500D02*
D03*
Y111501D02*
D03*
X364000Y57249D02*
D03*
Y52251D02*
D03*
X67000Y131000D02*
D03*
Y135999D02*
D03*
X152250Y141251D02*
D03*
Y146250D02*
D03*
X73352Y111547D02*
D03*
Y116545D02*
D03*
X73406Y65065D02*
D03*
Y70063D02*
D03*
D130*
X377251Y132250D02*
D03*
X382250D02*
D03*
X389001Y64750D02*
D03*
X394000D02*
D03*
X361251Y171518D02*
D03*
X366249D02*
D03*
X378749Y171500D02*
D03*
X373750D02*
D03*
X389001Y59500D02*
D03*
X394000D02*
D03*
X371501Y32200D02*
D03*
X376499D02*
D03*
X395999Y124000D02*
D03*
X391000D02*
D03*
X393000Y104194D02*
D03*
X397999D02*
D03*
X337751Y32200D02*
D03*
X342750D02*
D03*
X325999D02*
D03*
X321000D02*
D03*
X349500Y52500D02*
D03*
X344501D02*
D03*
X358999D02*
D03*
X354000D02*
D03*
X404001Y104250D02*
D03*
X409000D02*
D03*
D131*
X392500Y132000D02*
D03*
X402500D02*
D03*
D132*
X389500Y51750D02*
D03*
Y40250D02*
D03*
X375000D02*
D03*
Y51750D02*
D03*
D133*
X328750Y42400D02*
D03*
X346250Y42500D02*
D03*
D134*
X337500Y45700D02*
D03*
Y39200D02*
D03*
D135*
X354000Y94500D02*
D03*
D136*
X384250Y116500D02*
D03*
Y112500D02*
D03*
Y108500D02*
D03*
Y104500D02*
D03*
Y100500D02*
D03*
Y96500D02*
D03*
Y92500D02*
D03*
Y88500D02*
D03*
Y84500D02*
D03*
X384250Y80500D02*
D03*
X384250Y76500D02*
D03*
X384250Y72500D02*
D03*
X323750D02*
D03*
X323750Y76500D02*
D03*
X323750Y80500D02*
D03*
X323750Y84500D02*
D03*
X323750Y88500D02*
D03*
Y92500D02*
D03*
Y96500D02*
D03*
Y100500D02*
D03*
X323750Y104500D02*
D03*
Y108500D02*
D03*
Y112500D02*
D03*
Y116500D02*
D03*
D137*
X376000Y64250D02*
D03*
X372000Y64250D02*
D03*
X368000Y64250D02*
D03*
X364000Y64250D02*
D03*
X360000Y64250D02*
D03*
X356000D02*
D03*
X352000D02*
D03*
X348000D02*
D03*
X344000D02*
D03*
X340000Y64250D02*
D03*
X336000D02*
D03*
X332000D02*
D03*
X332000Y124750D02*
D03*
X336000Y124750D02*
D03*
X340000Y124750D02*
D03*
X344000Y124750D02*
D03*
X348000D02*
D03*
X352000D02*
D03*
X356000Y124750D02*
D03*
X360000Y124750D02*
D03*
X364000D02*
D03*
X368000Y124750D02*
D03*
X372000Y124750D02*
D03*
X376000Y124750D02*
D03*
D138*
X363000Y145500D02*
D03*
Y138744D02*
D03*
X376750Y145500D02*
D03*
Y138744D02*
D03*
X573278Y164846D02*
D03*
X580034D02*
D03*
X593598Y20066D02*
D03*
X600354D02*
D03*
X77724Y79502D02*
D03*
D139*
X61750Y148250D02*
D03*
Y168250D02*
D03*
D140*
X45600Y82492D02*
D03*
X45510Y100092D02*
D03*
D141*
X67510Y81412D02*
D03*
Y101412D02*
D03*
Y96412D02*
D03*
Y91412D02*
D03*
Y86412D02*
D03*
D142*
X44510Y115492D02*
D03*
Y67332D02*
D03*
D143*
X357500Y159000D02*
D03*
X382500D02*
D03*
D144*
X95250Y146000D02*
D03*
Y141000D02*
D03*
Y136000D02*
D03*
Y131000D02*
D03*
Y126000D02*
D03*
X136250Y146000D02*
D03*
Y141000D02*
D03*
Y136000D02*
D03*
Y131000D02*
D03*
Y126000D02*
D03*
D145*
X504002Y126968D02*
D03*
X544002D02*
D03*
X504002Y59468D02*
D03*
X544002D02*
D03*
X171770Y125698D02*
D03*
X211770D02*
D03*
X171770Y58198D02*
D03*
X211770D02*
D03*
D146*
X94460Y158037D02*
D03*
D147*
X94460Y170997D02*
D03*
D148*
X81500Y174227D02*
D03*
Y167750D02*
D03*
Y154773D02*
D03*
Y161273D02*
D03*
X99915D02*
D03*
Y154773D02*
D03*
Y167750D02*
D03*
Y174227D02*
D03*
D149*
X408750Y114612D02*
D03*
X395250D02*
D03*
D150*
X338550Y15000D02*
D03*
X366950D02*
D03*
D151*
X352750Y30800D02*
D03*
D152*
X406000Y75850D02*
D03*
Y70750D02*
D03*
X152250Y130900D02*
D03*
Y136000D02*
D03*
Y124000D02*
D03*
Y118900D02*
D03*
X584250Y143360D02*
D03*
Y138260D02*
D03*
X592640D02*
D03*
Y143360D02*
D03*
D153*
X42688Y151538D02*
D03*
D154*
Y133538D02*
D03*
D155*
X110000Y169000D02*
D03*
Y159000D02*
D03*
D156*
X18462Y59456D02*
D03*
Y125456D02*
D03*
D157*
X128270Y92350D02*
D03*
X461010D02*
D03*
D158*
X144750Y157850D02*
D03*
D159*
X629158Y20000D02*
D03*
Y164700D02*
D03*
X19200Y165170D02*
D03*
Y20470D02*
D03*
D160*
X112014Y17780D02*
D03*
X137414D02*
D03*
X86614D02*
D03*
X61214D02*
D03*
X270002Y162814D02*
D03*
Y122814D02*
D03*
D161*
X513842Y167640D02*
D03*
X624078Y61809D02*
D03*
Y81809D02*
D03*
Y121809D02*
D03*
Y101809D02*
D03*
X595376Y164846D02*
D03*
X578612Y20066D02*
D03*
X464312Y167386D02*
D03*
X489204Y167640D02*
D03*
X464312Y17272D02*
D03*
X514604Y17270D02*
D03*
X489458Y17272D02*
D03*
D162*
X336000Y76500D02*
D03*
Y88500D02*
D03*
X336000Y100500D02*
D03*
X336000Y112500D02*
D03*
X348000Y76500D02*
D03*
X348000Y88500D02*
D03*
Y100500D02*
D03*
X348000Y112500D02*
D03*
X360000Y76500D02*
D03*
X360000Y88500D02*
D03*
X360000Y100500D02*
D03*
X360000Y112500D02*
D03*
X372000Y76500D02*
D03*
Y88500D02*
D03*
X372000Y100500D02*
D03*
X372000Y112500D02*
D03*
M02*
