G04 Layer_Physical_Order=4*
G04 Layer_Color=16440176*
%FSLAX44Y44*%
%MOMM*%
G71*
G01*
G75*
%ADD46C,0.1500*%
%ADD54C,4.5000*%
%ADD59C,1.5000*%
%ADD60C,0.5000*%
%ADD61C,0.4000*%
%ADD63C,0.7000*%
D46*
X471206Y59456D02*
X499634Y87884D01*
X443550Y59456D02*
X471206D01*
X406406Y96600D02*
X443550Y59456D01*
X555250Y56250D02*
X563500Y64500D01*
X441250Y56250D02*
X555250D01*
X411088Y86412D02*
X441250Y56250D01*
X499634Y87884D02*
X553847D01*
X534938Y117814D02*
X540186D01*
X559500Y98500D01*
X544995Y120814D02*
X564750Y101059D01*
X562500Y72250D02*
X564750Y74500D01*
Y101059D01*
X567750Y44542D02*
Y102302D01*
X573360Y149860D02*
X584250D01*
X567000Y143500D02*
X573360Y149860D01*
X567000Y133940D02*
Y143500D01*
X559874Y126814D02*
X567000Y133940D01*
X538666Y126814D02*
X559874D01*
X567750Y44542D02*
X573542Y38750D01*
X546238Y123814D02*
X567750Y102302D01*
X591597Y34500D02*
X614000Y56903D01*
X559860Y34500D02*
X591597D01*
X541360Y53000D02*
X559860Y34500D01*
X593769Y31500D02*
X624078Y61809D01*
X558542Y31500D02*
X593769D01*
X540042Y50000D02*
X558542Y31500D01*
X614000Y71731D02*
X624078Y81809D01*
X614000Y56903D02*
Y71731D01*
X537423Y123814D02*
X546238D01*
X388350Y96600D02*
X406406D01*
X381000Y89250D02*
X388350Y96600D01*
X398938Y86412D02*
X411088D01*
X393000Y92350D02*
X398938Y86412D01*
X381000Y72000D02*
Y89250D01*
X376750Y67750D02*
X381000Y72000D01*
X330250Y67750D02*
X376750D01*
X322750Y60250D02*
X330250Y67750D01*
X400000Y75750D02*
X400500Y76250D01*
X409500D01*
X435750Y50000D01*
X419750Y99250D02*
Y108000D01*
X408250Y119500D02*
X419750Y108000D01*
X353250Y119500D02*
X408250D01*
X439000Y53000D02*
X541360D01*
X410750Y81250D02*
X439000Y53000D01*
X435750Y50000D02*
X540042D01*
X238747Y139250D02*
X331250D01*
X216497Y117000D02*
X238747Y139250D01*
X424799Y141292D02*
X524188D01*
X400921Y165170D02*
X424799Y141292D01*
X524188D02*
X538666Y126814D01*
X423556Y138292D02*
X522945D01*
X399796Y162052D02*
X423556Y138292D01*
X522945D02*
X537423Y123814D01*
X422119Y135292D02*
X521703D01*
X398497Y158915D02*
X422119Y135292D01*
X521703D02*
X536181Y120814D01*
X420216Y132292D02*
X520460D01*
X397061Y155448D02*
X420216Y132292D01*
X520460D02*
X534938Y117814D01*
X328390Y167500D02*
X343507D01*
X328250Y167640D02*
X328390Y167500D01*
X340614Y155448D02*
X397061D01*
X337500Y158562D02*
X340614Y155448D01*
X343507Y167500D02*
X348955Y162052D01*
X343515Y163250D02*
X347850Y158915D01*
X332500Y163250D02*
X343515D01*
X347850Y158915D02*
X398497D01*
X348955Y162052D02*
X399796D01*
X342000Y173250D02*
X350080Y165170D01*
X400921D01*
X536181Y120814D02*
X544995D01*
X346517Y126233D02*
Y131756D01*
Y126233D02*
X353250Y119500D01*
X237598Y133858D02*
X328500D01*
X217740Y114000D02*
X237598Y133858D01*
X189072Y131130D02*
X197702Y122500D01*
X158770Y131130D02*
X189072D01*
X150500Y114000D02*
X217740D01*
X145750Y118750D02*
X150500Y114000D01*
X151742Y117000D02*
X216497D01*
X146993Y121750D02*
X151742Y117000D01*
X108202Y121750D02*
X146993D01*
X82864Y96412D02*
X108202Y121750D01*
X82188Y96412D02*
X82864D01*
X115090Y118750D02*
X145750D01*
X82752Y86412D02*
X115090Y118750D01*
X400000Y81250D02*
X410750D01*
X536136Y141272D02*
X558556D01*
X527050Y150358D02*
X536136Y141272D01*
D54*
X128270Y92350D02*
D03*
X461010D02*
D03*
D59*
X624078Y61809D02*
D03*
Y81809D02*
D03*
D60*
X461772Y109982D02*
D03*
X473964Y104648D02*
D03*
X478790Y92456D02*
D03*
X473964Y79756D02*
D03*
X461518Y74930D02*
D03*
X448818Y79756D02*
D03*
X443484Y92456D02*
D03*
X449072Y105664D02*
D03*
X116078D02*
D03*
X110490Y92456D02*
D03*
X115824Y79756D02*
D03*
X128524Y74930D02*
D03*
X140970Y79756D02*
D03*
X145796Y92456D02*
D03*
X140970Y104648D02*
D03*
X128778Y109982D02*
D03*
D61*
X559500Y98500D02*
D03*
X562500Y72250D02*
D03*
X584250Y149860D02*
D03*
X563500Y64500D02*
D03*
X573542Y38750D02*
D03*
X400000Y75750D02*
D03*
X419750Y99250D02*
D03*
X553847Y87884D02*
D03*
X328250Y167640D02*
D03*
X337500Y158562D02*
D03*
X332500Y163250D02*
D03*
X342000Y173250D02*
D03*
X346517Y131756D02*
D03*
X331250Y139250D02*
D03*
X328500Y133858D02*
D03*
X197702Y122500D02*
D03*
X82188Y96412D02*
D03*
X82752Y86412D02*
D03*
X393000Y92350D02*
D03*
X400000Y81250D02*
D03*
X322750Y60250D02*
D03*
X158770Y131130D02*
D03*
X73152Y76454D02*
D03*
X558556Y141272D02*
D03*
X527050Y150358D02*
D03*
D63*
X77724Y79502D02*
D03*
M02*
