G04 Layer_Physical_Order=3*
G04 Layer_Color=36540*
%FSLAX44Y44*%
%MOMM*%
G71*
G01*
G75*
%ADD45C,0.2540*%
%ADD46C,0.1500*%
%ADD47C,0.3810*%
%ADD48C,0.2032*%
%ADD50C,0.3000*%
%ADD54C,4.5000*%
%ADD60C,0.5000*%
%ADD61C,0.4000*%
%ADD63C,0.7000*%
D45*
X594529Y82004D02*
Y82320D01*
X585500Y91349D02*
X594529Y82320D01*
X599003Y101750D02*
Y102547D01*
X594050Y107500D02*
X599003Y102547D01*
X589500Y107500D02*
X594050D01*
X585500Y103500D02*
X589500Y107500D01*
X585500Y91349D02*
Y103500D01*
D46*
X531300Y119095D02*
Y154300D01*
X528500Y116295D02*
X531300Y119095D01*
X528500Y105750D02*
Y116295D01*
Y105750D02*
X535940Y98310D01*
Y93726D02*
Y98310D01*
X531686Y154686D02*
X533654Y156654D01*
X502158Y154686D02*
X531686D01*
X533654Y156654D02*
Y163068D01*
X522250Y29240D02*
Y121250D01*
Y29240D02*
X530202Y21288D01*
X579278Y92754D02*
Y93278D01*
X558800Y147828D02*
X563500Y143128D01*
Y127890D02*
Y143128D01*
X556514Y120904D02*
X563500Y127890D01*
X517906Y29094D02*
Y111506D01*
Y29094D02*
X525952Y21048D01*
Y15548D02*
Y21048D01*
Y15548D02*
X530000Y11500D01*
X530202Y17702D02*
Y21288D01*
X557250Y11500D02*
X563000Y17250D01*
X530000Y11500D02*
X557250D01*
X348671Y151500D02*
X354709Y157538D01*
X335287Y151500D02*
X348671D01*
X321287Y165500D02*
X335287Y151500D01*
X294750Y165500D02*
X321287D01*
X354709Y157538D02*
X425489D01*
X428341Y154686D01*
X447500D01*
X348414Y147000D02*
X355951Y154538D01*
X299000Y150000D02*
X309000D01*
X312000Y147000D01*
X348414D01*
X349656Y144000D02*
X357194Y151538D01*
X304750Y144000D02*
X349656D01*
X355951Y154538D02*
X424247D01*
X428925Y149860D01*
X440000D01*
X357194Y151538D02*
X423004D01*
X429000Y145542D01*
X266250Y87750D02*
X281750D01*
X255000Y99000D02*
X266250Y87750D01*
X255000Y99000D02*
Y152250D01*
X539242Y168656D02*
X566928D01*
X533654Y163068D02*
X539242Y168656D01*
X575310Y141224D02*
Y167894D01*
X569214Y173990D02*
X575310Y167894D01*
X534924Y173990D02*
X569214D01*
X529590Y168656D02*
X534924Y173990D01*
D47*
X225849Y58198D02*
Y134620D01*
X119000Y129500D02*
X122500Y126000D01*
X126500Y169250D02*
Y174227D01*
Y160053D02*
Y169250D01*
X119000Y129500D02*
Y152553D01*
X126500Y160053D01*
D48*
X538212Y54349D02*
X570000Y86137D01*
X538212Y40712D02*
Y54349D01*
X570000Y86137D02*
Y126516D01*
X527500Y30000D02*
X538212Y40712D01*
X570000Y126516D02*
X575564Y132080D01*
D50*
X112288Y133538D02*
Y143712D01*
X81750Y174250D02*
X112288Y143712D01*
X47773Y174250D02*
X81750D01*
X47750Y174227D02*
X47773Y174250D01*
D54*
X128270Y92350D02*
D03*
X461010D02*
D03*
D60*
X461772Y109982D02*
D03*
X473964Y104648D02*
D03*
X478790Y92456D02*
D03*
X473964Y79756D02*
D03*
X461518Y74930D02*
D03*
X448818Y79756D02*
D03*
X443484Y92456D02*
D03*
X449072Y105664D02*
D03*
X116078D02*
D03*
X110490Y92456D02*
D03*
X115824Y79756D02*
D03*
X128524Y74930D02*
D03*
X140970Y79756D02*
D03*
X145796Y92456D02*
D03*
X140970Y104648D02*
D03*
X128778Y109982D02*
D03*
D61*
X594529Y82004D02*
D03*
X522250Y121250D02*
D03*
X579278Y92754D02*
D03*
X599003Y101750D02*
D03*
X535940Y93726D02*
D03*
X527500Y30000D02*
D03*
X530202Y17702D02*
D03*
X563000Y17250D02*
D03*
X304750Y144000D02*
D03*
X447500Y154686D02*
D03*
X440000Y149860D02*
D03*
X429000Y145542D02*
D03*
X294750Y165500D02*
D03*
X299000Y150000D02*
D03*
X126500Y169250D02*
D03*
X225849Y134620D02*
D03*
X281750Y87750D02*
D03*
X255000Y152250D02*
D03*
X225849Y58198D02*
D03*
X122500Y126000D02*
D03*
X119000Y129500D02*
D03*
X47750Y174227D02*
D03*
X112288Y133538D02*
D03*
X126500Y174227D02*
D03*
X73152Y76454D02*
D03*
X556514Y120904D02*
D03*
X502158Y154686D02*
D03*
X566928Y168656D02*
D03*
X558800Y147828D02*
D03*
X575564Y132080D02*
D03*
X517906Y111506D02*
D03*
X529590Y168656D02*
D03*
X575310Y141224D02*
D03*
D63*
X77724Y79502D02*
D03*
M02*
