G04 Layer_Color=128*
%FSLAX44Y44*%
%MOMM*%
G71*
G01*
G75*
%ADD94R,0.2819X0.4320*%
%ADD95R,0.2220X0.4020*%
%ADD96R,0.5020X0.5020*%
%ADD97R,0.3520X0.2519*%
%ADD98R,0.2519X0.3520*%
%ADD120R,0.4320X0.2819*%
%ADD121R,1.1020X1.8020*%
%ADD122R,0.8020X0.8020*%
%ADD123R,0.5520X0.6020*%
%ADD176O,2.0000X1.5000*%
%ADD177R,1.8020X1.1020*%
%ADD178R,0.8020X0.8020*%
%ADD179R,0.6020X0.4220*%
%ADD180R,1.0180X0.7640*%
%ADD181R,2.5020X2.5020*%
%ADD182R,1.4020X1.6020*%
%ADD183R,1.5520X1.9020*%
%ADD184R,1.3520X0.4020*%
%ADD185R,0.9470X1.0020*%
%ADD186R,0.9490X1.0020*%
%ADD187R,0.3020X0.7020*%
%ADD188R,0.4020X0.2220*%
%ADD189R,0.5020X0.5020*%
D94*
X588250Y99750D02*
D03*
X583150D02*
D03*
X236050Y143000D02*
D03*
X230950D02*
D03*
Y150500D02*
D03*
X236050D02*
D03*
X548904Y96774D02*
D03*
X543804D02*
D03*
Y87884D02*
D03*
X548904D02*
D03*
X231000Y126000D02*
D03*
X225900D02*
D03*
X225849Y117500D02*
D03*
X230950D02*
D03*
X565140Y132080D02*
D03*
X570240D02*
D03*
X533410Y137160D02*
D03*
X528310D02*
D03*
X565140Y141224D02*
D03*
X570240D02*
D03*
X535676Y41402D02*
D03*
X540776D02*
D03*
X573542Y44704D02*
D03*
X568442D02*
D03*
X497380Y83312D02*
D03*
X502480D02*
D03*
X535950Y87376D02*
D03*
X530850D02*
D03*
D95*
X549789Y133894D02*
D03*
X553847D02*
D03*
X545797Y144794D02*
D03*
X541752D02*
D03*
D96*
X552020Y141272D02*
D03*
X543720Y137115D02*
D03*
D97*
X66000Y78659D02*
D03*
Y73660D02*
D03*
X74000Y158001D02*
D03*
Y162999D02*
D03*
Y152750D02*
D03*
Y147751D02*
D03*
X79500Y147751D02*
D03*
Y152750D02*
D03*
D98*
X548853Y80010D02*
D03*
X543855D02*
D03*
X231000Y109750D02*
D03*
X226001D02*
D03*
D120*
X464058Y155458D02*
D03*
Y150358D02*
D03*
X255000Y159000D02*
D03*
Y164100D02*
D03*
Y175100D02*
D03*
Y170000D02*
D03*
X533654Y126248D02*
D03*
Y121148D02*
D03*
X515366Y100320D02*
D03*
Y105420D02*
D03*
X514500Y38350D02*
D03*
Y33250D02*
D03*
X489500Y38350D02*
D03*
Y33250D02*
D03*
X464500Y38350D02*
D03*
Y33250D02*
D03*
X523750Y100200D02*
D03*
Y105300D02*
D03*
X489458Y150358D02*
D03*
Y155458D02*
D03*
X514096Y150358D02*
D03*
Y155458D02*
D03*
X545592Y159268D02*
D03*
Y154168D02*
D03*
X549656Y121148D02*
D03*
Y126248D02*
D03*
D121*
X90250Y128250D02*
D03*
X287000Y148500D02*
D03*
D122*
X90250Y146250D02*
D03*
X287000Y130500D02*
D03*
D123*
X59000Y71000D02*
D03*
Y81000D02*
D03*
D176*
X18462Y125456D02*
D03*
Y59456D02*
D03*
D177*
X176250Y143250D02*
D03*
X596077Y141750D02*
D03*
D178*
X194250Y143250D02*
D03*
X614077Y141750D02*
D03*
D179*
X228250Y173500D02*
D03*
Y160500D02*
D03*
Y167000D02*
D03*
X247250Y173500D02*
D03*
Y167000D02*
D03*
Y160500D02*
D03*
D180*
X64516Y165608D02*
D03*
Y146608D02*
D03*
X43516Y156108D02*
D03*
D181*
X166624Y166370D02*
D03*
X202692Y166624D02*
D03*
D182*
X42962Y60456D02*
D03*
Y124456D02*
D03*
D183*
X18462Y104456D02*
D03*
Y80456D02*
D03*
D184*
X45212Y105456D02*
D03*
Y98956D02*
D03*
Y79456D02*
D03*
Y85956D02*
D03*
Y92456D02*
D03*
D185*
X589290Y120750D02*
D03*
D186*
X602250Y120750D02*
D03*
D187*
X605480Y107790D02*
D03*
X599003D02*
D03*
X586026D02*
D03*
X592526D02*
D03*
Y126205D02*
D03*
X586026D02*
D03*
X599003D02*
D03*
X605480D02*
D03*
D188*
X522950Y87254D02*
D03*
Y91313D02*
D03*
X512050Y83263D02*
D03*
Y79218D02*
D03*
X548930Y40507D02*
D03*
Y36449D02*
D03*
X559830Y44500D02*
D03*
Y48544D02*
D03*
D189*
X515572Y89486D02*
D03*
X519729Y81186D02*
D03*
X556308Y38276D02*
D03*
X552151Y46576D02*
D03*
M02*
